<svg viewBox="0 0 97 58" fill="currentColor" xmlns="http://www.w3.org/2000/svg">
<path d="M32.1575 8.94366C26.9011 8.91568 21.6056 9.04157 16.4443 10.1354C13.9686 10.6613 11.5656 11.4362 9.2465 12.4516C7.34983 13.2797 5.39163 14.2532 3.92297 15.747C2.60258 17.0898 1.82489 18.799 1.38289 20.6118C0.809418 22.9644 0.121247 25.4514 0.459737 27.8879C1.01083 31.8575 4.55239 34.2829 8.09955 35.469C10.6061 36.3082 15.2946 37.5027 16.6429 34.2913C17.6668 31.8547 16.0247 28.5285 13.5434 27.7173C9.1318 26.271 9.95705 33.3905 10.7879 35.6536C12.2202 39.5505 14.7658 43.3662 18.3018 45.6265C20.6377 47.1203 23.4351 47.898 26.1542 48.3009C28.5852 48.6617 31.1784 48.9191 33.6346 48.6897C37.0251 48.3736 40.7821 46.5217 38.9917 42.5633C38.7595 42.0458 37.9958 41.78 37.4755 41.9451C35.3214 42.6304 33.215 45.5286 33.1478 47.7777C33.0583 50.7458 35.5676 53.0845 37.9986 54.3713C44.6201 57.8737 52.4474 58.4891 59.6955 56.9254C65.9646 55.5714 72.6561 52.788 76.7515 47.6519C81.1128 42.1801 83.2136 34.7976 84.534 28.0474C85.0795 25.2527 85.7341 21.8483 83.1129 19.8537C80.9057 18.1752 77.4621 19.0228 77.8146 22.2259C78.1027 24.8583 80.6092 26.8053 82.8472 27.8404C85.0851 28.8754 87.8714 29.4545 90.1513 28.0726C94.202 25.6164 95.4608 19.5851 96.2133 15.2883C96.6525 12.7789 96.784 10.3508 95.6175 8.00092C94.6048 5.95879 92.7054 4.43139 90.6688 3.48305C85.9076 1.26188 80.2428 1.08565 75.2353 2.50954C70.516 3.85232 63.9337 6.85397 63.8498 12.6027C63.8358 13.5287 65.0415 14.4015 65.8695 13.7609C69.5341 10.9382 70.1496 5.3965 65.4135 3.38514C62.7895 2.26896 59.7011 1.58079 56.8925 1.11642C53.7118 0.590499 50.5171 0.75275 47.3085 0.677219C44.4131 0.607283 41.4674 0.492588 38.8294 1.88851C37.4811 2.60466 36.3061 3.61453 35.0081 4.40901C33.8528 5.11396 32.5772 5.58393 31.4274 6.30287C29.4636 7.53095 28.4034 9.20382 28.1852 11.4921C28.0229 13.165 28.2299 15.4085 29.9168 16.2702C31.8834 17.2744 34.1745 15.7386 34.4431 13.6937C34.7116 11.6488 33.6206 9.46958 32.0009 8.30025C30.5994 7.28757 29.2566 9.61504 30.6441 10.6193C31.2903 11.0865 32.0009 12.5272 31.7939 13.3328C31.7239 13.6014 31.5561 13.9986 31.1561 13.8839C30.991 13.8364 30.8819 13.2461 30.8483 12.9692C30.7001 11.7943 30.8847 10.348 31.7127 9.46119C32.9324 8.15198 34.8683 7.64285 36.3621 6.73088C38.1301 5.64827 39.6966 4.13765 41.7528 3.62292C43.8089 3.1082 45.9182 3.35437 47.9771 3.37955C50.2458 3.40752 52.5145 3.3236 54.7776 3.53341C56.8394 3.72643 58.8339 4.3055 60.8397 4.78946C62.3783 5.16152 65.3044 5.53638 66.0262 7.18966C66.6584 8.64153 65.6681 10.5578 64.5127 11.4474L66.5325 12.6055C66.5856 8.94646 71.028 6.82879 73.9569 5.74898C77.3754 4.49013 80.8414 3.99778 84.4641 4.48454C87.7986 4.93213 91.9976 6.22175 93.4187 9.62344C94.1404 11.3523 93.8747 13.1986 93.5474 14.9777C93.1893 16.9248 92.7277 18.8606 92.0591 20.7237C91.4521 22.4133 90.6185 24.324 89.1806 25.4821C87.7427 26.6403 85.7957 26.2346 84.1983 25.5241C83.2248 25.0905 82.2877 24.503 81.5352 23.7449C81.2191 23.426 80.0609 21.9937 80.4554 21.6273C80.7715 21.3335 81.6499 22.1112 81.7925 22.2707C82.1814 22.7099 82.3157 23.2498 82.3632 23.8204C82.4611 24.9926 82.1646 26.1927 81.9408 27.334C80.819 33.0772 79.1378 39.0497 76.0186 44.0543C73.3443 48.3456 69.204 50.9109 64.5519 52.6761C58.336 55.0371 51.4879 55.854 44.995 54.1811C42.2199 53.4649 38.8658 52.4243 36.8908 50.2199C36.0796 49.3163 35.5257 48.1722 36.0628 46.9917C36.4124 46.2196 37.3244 44.8125 38.186 44.5383L36.6698 43.9201C37.4839 45.7216 34.0766 46.0098 32.9492 46.0517C29.195 46.1832 25.1555 45.7944 21.6615 44.3509C18.5116 43.0501 16.2765 40.5408 14.6567 37.6062C13.9714 36.3642 13.3392 35.0802 12.9951 33.6982C12.7125 32.5625 12.3321 30.7637 13.2273 29.8098L12.2789 30.2042C13.7728 30.2518 15.3393 33.5248 13.314 33.6786C10.3011 33.9108 6.2952 32.403 4.31181 30.1259C2.82357 28.4166 2.9075 26.2346 3.33271 24.1254C3.71036 22.2455 4.01808 20.1166 5.11468 18.4941C6.04343 17.1178 7.52048 16.2646 8.96955 15.5316C11.1851 14.4099 13.5406 13.5902 15.9492 12.9999C21.2447 11.7019 26.7249 11.5984 32.1491 11.6292C33.878 11.6376 33.8808 8.95205 32.1491 8.94366H32.1575Z" />
</svg>
