<svg viewBox="0 0 94 70" fill="currentColor" xmlns="http://www.w3.org/2000/svg">
<path d="M6.66448 17.8757C6.0913 22.514 3.39296 26.7026 2.09229 31.1513C1.15316 34.3655 -0.182788 38.3778 0.804841 41.7154C1.50588 44.0831 3.84268 43.9949 5.95462 44.1581C8.7191 44.3741 11.4968 44.2374 14.2613 44.3829C17.0258 44.5284 19.7682 45.1986 22.5106 45.6968C25.2531 46.195 28.0131 46.7374 30.5439 47.9675C33.0747 49.1976 35.1337 45.5028 32.6823 44.3124C28.3923 42.2313 23.6614 41.6273 19.0231 40.7278C13.9262 39.7358 8.7191 40.5074 3.62223 39.6344L4.88763 40.6088C4.27918 39.2949 4.94494 37.1212 5.24035 35.8029C5.58867 34.2553 6.02075 32.7166 6.49252 31.2042C7.90783 26.6894 10.3064 22.633 10.8972 17.8757C11.2323 15.1773 6.99515 15.2038 6.66448 17.8757Z" />
<path d="M31.6109 4.77222C37.6117 4.77222 43.6124 4.79868 49.6175 4.78986C51.0813 4.78986 52.5451 4.79868 54.0089 4.77663C54.926 4.7634 56.1605 4.44154 57.0424 4.662C58.0609 4.91331 58.0388 5.47326 57.9065 6.54025C57.7919 7.4882 57.4524 8.38324 56.963 9.19891C55.5565 11.5401 59.216 13.6697 60.6181 11.3373C61.857 9.27387 62.611 6.45648 61.9893 4.07118C61.2177 1.12593 58.6252 0.323484 55.8696 0.464573C47.8186 0.883434 39.6751 0.543936 31.6109 0.539527C28.8861 0.539527 28.8817 4.77222 31.6109 4.77222Z" />
<path d="M46.7738 67.888C46.7738 64.74 46.668 61.5787 46.7562 58.4306C46.8268 55.9042 47.3867 53.4307 47.713 50.9308C48.2906 46.4953 47.3338 41.1339 49.4898 37.0599C51.3108 33.6208 57.0558 35.1949 60.2038 35.2125C65.6931 35.2434 71.2353 35.1508 76.6187 33.9603C77.6064 33.7399 78.0649 32.8228 78.1707 31.919C78.8056 26.5046 82.8532 22.1838 85.5471 17.6821C88.1705 13.2951 89.3168 7.92487 92.9058 4.15072C94.7841 2.17546 91.7947 -0.818287 89.912 1.15697C85.8689 5.4073 84.5815 11.2273 81.5437 16.1081C78.5058 20.9889 74.6567 25.7904 73.938 31.919L75.49 29.8776C69.7671 31.1474 63.5635 31.2444 57.7259 30.896C53.5373 30.6447 48.6786 30.389 46.1345 34.4101C43.4538 38.6428 44.0711 44.0659 43.7096 48.8277C43.4847 51.7906 42.7307 54.6917 42.5588 57.659C42.3604 61.0452 42.5456 64.4931 42.5456 67.8836C42.5456 70.6084 46.7783 70.6128 46.7783 67.8836L46.7738 67.888Z" />
</svg>
