<svg viewBox="0 0 95 72" fill="currentColor" xmlns="http://www.w3.org/2000/svg">
<path d="M22.9657 20.8077C34.3792 20.6426 45.5326 23.3925 56.8595 24.3576C58.6358 24.5087 60.7423 24.3884 61.8977 22.8246C63.053 21.2609 62.9159 19.1768 62.8404 17.4116C62.7593 15.4702 62.5858 13.6099 61.5312 11.9174C60.4766 10.2249 59.0135 9.078 57.405 8.09889C53.1696 5.52525 48.3161 4.0454 43.4709 3.15302C37.8956 2.12636 32.2084 1.46057 26.5464 1.15285C23.6958 0.998988 20.848 1.02976 17.9946 0.962621C15.1412 0.895483 12.3829 0.666093 9.5827 0.867508C6.78247 1.06892 1.11485 1.80185 2.12473 5.98962C2.68701 8.32828 4.87461 10.4907 6.5279 12.1244C8.57563 14.147 10.8639 15.4646 13.3173 16.9052C14.5789 17.6438 15.7958 18.4578 17.1526 19.0117C18.5093 19.5656 19.8409 19.7838 21.1837 20.1838C24.0371 21.0315 26.7898 22.1616 29.8138 22.1784C31.5426 22.1868 31.5454 19.5013 29.8138 19.4929C27.4556 19.4817 25.2316 18.6788 23.016 17.9515C20.9459 17.2745 18.7751 16.9584 16.8533 15.8898C12.9061 13.6938 9.26939 11.523 6.37963 7.97301C5.73063 7.17574 3.85914 5.31264 5.23828 4.4818C6.69854 3.60061 8.95328 3.56704 10.5842 3.5055C12.9704 3.41598 15.3566 3.58662 17.74 3.64816C20.1235 3.70971 22.5209 3.67054 24.9127 3.76566C29.9621 3.96987 34.9863 4.52097 39.9825 5.28187C44.6179 5.98962 49.1721 7.01628 53.4242 9.03883C56.3671 10.4376 59.7436 12.2783 60.0709 15.8926C60.2052 17.378 60.4038 19.1628 59.9926 20.6091C59.531 22.2372 57.2847 21.7252 55.9867 21.5798C45.0123 20.3713 34.0435 17.9627 22.9629 18.1221C21.2368 18.1473 21.2312 20.8328 22.9629 20.8077H22.9657Z"/>
<path d="M0.387514 6.45135C0.387514 15.7081 0.421083 24.9676 0.409894 34.2243C0.404299 38.6751 0.0909852 43.2349 0.572145 47.6661C0.765169 49.4564 1.17639 51.2076 1.44774 52.9868C1.69672 54.6261 2.01842 56.1647 3.12901 57.4515C5.23548 59.8909 8.45254 61.6057 11.4374 62.6771C15.3175 64.0703 19.4045 64.9766 23.3517 66.1739C31.3944 68.6133 39.5265 71.1282 47.9832 71.4947C50.8701 71.6206 54.767 72.0597 56.3783 69.0721C57.2147 67.5195 57.5281 65.7096 58.1435 64.0675C58.9184 61.9973 59.6121 59.9216 60.1269 57.7676C61.106 53.6778 61.5927 49.49 61.9424 45.3078C62.1187 43.1874 62.4907 41.0865 62.6334 38.9632C62.7928 36.5882 62.667 34.174 62.667 31.7934C62.667 29.7932 62.6753 27.793 62.6418 25.7901C62.6026 23.5046 62.3928 21.1127 62.639 18.8356C62.6474 18.7517 62.846 18.0328 62.6809 18.153C62.5159 18.2733 62.8572 18.1922 62.9635 18.1894C63.5062 18.1838 64.1328 18.4803 64.6643 18.5839C66.6086 18.9615 68.6115 18.9643 70.5697 19.3336C72.4104 19.6805 74.5225 19.9658 76.1562 20.9309C77.7899 21.896 78.9005 23.3003 80.2069 24.5116C83.1918 27.2839 85.5025 30.5233 88.0733 33.6565C89.4357 35.3209 94.0794 39.2122 91.3072 41.3494C90.2022 42.2027 88.7923 42.6474 87.5166 43.1622C85.7179 43.8895 84.0086 44.8183 82.2546 45.6435C79.9803 46.7149 77.6752 47.722 75.3114 48.5752C73.1154 49.3669 70.7292 50.2733 68.3793 50.3936C66.3232 50.4999 64.2699 50.2677 62.211 50.402C60.3451 50.5222 58.3673 50.7908 56.549 50.2481L57.4861 51.8986C57.5169 51.7419 58.6414 51.6216 59.0191 51.4958C59.987 51.1768 60.9325 50.7153 61.8333 50.2453C63.8475 49.1935 65.7246 47.901 67.5625 46.5723C69.4004 45.2435 71.0033 43.9007 72.6566 42.474C74.0274 41.2935 75.5324 40.2025 76.6626 38.7758C78.6739 36.2357 78.9257 32.5711 77.7088 29.6226C76.4248 26.509 73.6329 24.2235 70.6313 22.8444C68.5388 21.8848 66.3456 21.3701 64.0713 21.0652C61.7969 20.7603 59.5002 20.2707 57.2175 20.1784C55.4887 20.1085 55.4915 22.794 57.2175 22.8639C59.5534 22.9563 62.0012 23.429 64.3147 23.7899C66.6281 24.1508 68.7206 24.7522 70.6956 25.8908C74.1029 27.8602 76.9591 31.6871 75.3478 35.7909C74.654 37.5617 72.9336 38.717 71.5404 39.9032C69.5319 41.6208 67.5401 43.316 65.3805 44.8462C63.2208 46.3764 61.1759 47.736 58.8317 48.7011C57.2707 49.3417 55.2929 49.1095 54.8957 51.1852C54.7558 51.9098 55.0915 52.6147 55.8328 52.8357C59.117 53.8148 62.8404 52.942 66.2197 53.0623C70.525 53.2134 74.5253 51.8259 78.4725 50.2201C82.0169 48.7794 85.3626 46.8856 88.9126 45.4757C91.0918 44.6085 94.0179 43.5594 94.7284 41.0361C95.6096 37.9086 92.8038 34.9293 90.9099 32.834C88.216 29.8547 86.062 26.4503 83.1834 23.622C80.6713 21.1519 78.2487 18.4328 74.7323 17.5124C71.1236 16.5669 67.4394 16.3403 63.8083 15.6214C62.6362 15.3892 61.4193 15.4339 60.6388 16.4606C59.6261 17.7894 59.9031 19.9406 59.9031 21.4988C59.8975 26.1313 59.9674 30.7667 59.9898 35.3993C60.0122 40.0318 59.4163 44.3931 58.924 48.8578C58.4316 53.3225 57.6399 57.5438 56.1853 61.6784C55.5195 63.5723 54.9992 65.6452 54.1711 67.4663C53.4242 69.1056 51.5863 68.8483 50.0365 68.8483C45.6557 68.8483 41.3197 68.1965 37.0592 67.2202C32.8406 66.2523 28.6976 64.985 24.5574 63.729C20.4172 62.4729 16.3609 61.5526 12.3773 60.1622C10.615 59.5468 9.00363 58.6936 7.47064 57.6305C6.05513 56.6486 4.73754 55.6472 4.32911 53.9071C3.39197 49.8984 3.05907 45.8281 3.07865 41.7215C3.12061 32.2801 3.09544 22.836 3.08425 13.3946C3.08145 11.0811 3.07865 8.76483 3.07865 6.45135C3.07865 4.72253 0.393109 4.71973 0.393109 6.45135H0.387514Z"/>
<path d="M13.1915 45.1985C13.1635 42.8962 12.6907 40.4904 13.2586 38.2245L11.9634 39.2092C11.7676 39.2036 11.9158 39.1729 11.969 39.503C12.0389 39.9254 12.1816 40.359 12.2767 40.7786C12.4725 41.6598 12.6739 42.5773 13.1635 43.3522C14.0363 44.737 16.0449 45.4531 17.4212 44.3537C19.7039 42.5298 18.7696 37.2902 16.8281 35.5166C15.5525 34.3529 13.6502 36.2467 14.9287 37.4161C15.5665 37.9979 16.4729 42.2584 15.712 42.1717C14.9511 42.085 14.7636 39.4666 14.593 38.9071C14.1985 37.6007 13.4265 36.56 11.9634 36.5237C11.3871 36.5097 10.808 36.9489 10.6682 37.5084C10.036 40.0429 10.4752 42.6277 10.5059 45.1957C10.5255 46.9218 13.211 46.9274 13.1915 45.1957V45.1985Z"/>
<path d="M19.3486 34.4507C19.3318 36.7894 19.0045 39.2036 19.3011 41.5339C19.4493 42.706 20.0704 43.7243 20.7921 44.639C21.5138 45.5538 22.4594 46.5133 23.6707 46.5581C25.0526 46.6112 25.7855 45.4167 26.0149 44.2082C26.3338 42.5186 23.7462 41.7968 23.4245 43.4949C23.4161 43.5452 23.2678 44.0823 23.2846 44.0991C23.2455 44.0655 23.8581 43.9033 23.8609 43.8893C23.8525 43.9313 23.3126 43.4585 23.293 43.4389C22.8174 42.9801 22.3363 42.3367 22.0929 41.7185C21.774 40.9044 21.8943 39.8834 21.9055 39.0246C21.9223 37.4999 22.023 35.9781 22.0342 34.4507C22.0482 32.7219 19.3626 32.7191 19.3486 34.4507Z"/>
<path d="M22.3116 42.1164L22.9832 41.4448C23.2266 41.2014 23.3777 40.8405 23.3777 40.4963C23.3777 40.1521 23.2322 39.7744 22.9832 39.5477C22.7342 39.3211 22.39 39.1392 22.0346 39.1532C21.6793 39.1672 21.3407 39.2903 21.0861 39.5477L20.4145 40.2193C20.1711 40.4627 20.02 40.8237 20.02 41.1678C20.02 41.512 20.1655 41.8897 20.4145 42.1164C20.6636 42.343 21.0077 42.5249 21.3631 42.5109C21.7185 42.4969 22.057 42.3738 22.3116 42.1164Z"/>
<path d="M28.9746 33.1081C28.969 35.1307 28.9186 37.1532 28.9298 39.1758C28.9382 40.6388 28.8403 42.1998 29.6907 43.4699C31.0755 45.5316 33.8953 45.6435 36.0046 46.4911C37.6075 47.1373 38.3041 44.5385 36.7179 43.9007C35.3779 43.3608 32.6532 43.2405 31.8588 41.8781C31.2881 40.9018 31.6098 39.2094 31.6154 38.1184C31.621 36.4483 31.6573 34.7782 31.6601 33.1081C31.6629 31.4381 28.9774 31.3765 28.9746 33.1081Z"/>
<path d="M28.9719 38.4819H31.6574C33.3862 38.4819 33.389 35.7964 31.6574 35.7964H28.9719C27.243 35.7964 27.2402 38.4819 28.9719 38.4819Z"/>
<path d="M29.6432 34.4508H37.7026C39.4314 34.4508 39.4342 31.7653 37.7026 31.7653H29.6432C27.9144 31.7653 27.9116 34.4508 29.6432 34.4508Z"/>
<path d="M44.8137 31.4883C42.573 33.466 40.8414 36.1152 39.5685 38.8064C38.9251 40.1631 38.7349 41.6318 38.2118 43.0249C37.6383 44.5523 36.8047 45.9314 36.4102 47.5288C35.9934 49.2072 38.5838 49.9206 39.0006 48.2421C39.3391 46.8742 40.0077 45.6657 40.5476 44.3761C41.1183 43.0081 41.2806 41.5059 41.8904 40.1603C43.0206 37.6566 44.6543 35.206 46.716 33.3877C48.014 32.2408 46.1089 30.3497 44.8165 31.4883H44.8137Z"/>
<path d="M41.0623 42.5103C43.5604 42.5606 47.5468 43.4894 48.4028 40.18C48.8336 38.5043 46.246 37.791 45.8124 39.4666C45.5074 40.6527 41.9743 39.8415 41.0623 39.8247C39.3335 39.7911 39.3335 42.4767 41.0623 42.5103Z"/>
<path d="M38.3768 41.8389C38.3293 46.0266 38.8916 50.1948 39.7672 54.2847C40.128 55.9743 42.7185 55.2582 42.3576 53.5713C41.5295 49.7081 41.0176 45.7944 41.0624 41.8389C41.0819 40.11 38.3964 40.11 38.3768 41.8389Z"/>
<path d="M21.1334 35.9725H22.7531C23.4553 35.9725 24.1295 35.3543 24.0959 34.6298C24.0623 33.9052 23.5056 33.287 22.7531 33.287H21.1334C20.4312 33.287 19.7571 33.9052 19.7906 34.6298C19.8242 35.3543 20.3809 35.9725 21.1334 35.9725Z"/>
</svg>
