<svg viewBox="0 0 67 70" fill="currentColor" xmlns="http://www.w3.org/2000/svg">
<path d="M17.8349 8.42066C15.9715 10.3425 13.3292 11.1719 11.0724 12.5116C8.69597 13.9205 6.60662 15.9912 4.83891 18.0966C3.07119 20.2019 1.27158 22.7803 0.561841 25.5369C-0.147901 28.2935 0.686777 30.8507 2.00259 33.259C3.61347 36.2096 5.48751 39.022 7.24193 41.8849C8.99635 44.7478 10.6896 47.6665 12.4228 50.5533C14.1613 53.4455 15.7828 56.4041 17.5212 59.2909C18.3054 60.5907 19.2039 61.8933 19.8286 63.2782C20.4532 64.6631 20.4772 66.1145 21.3517 67.4011C22.4336 68.9934 23.9063 69.525 25.7644 69.0359C28.4252 68.3341 30.9798 66.8561 33.1409 65.1841C37.1601 62.074 38.67 57.276 39.284 52.4141C40.0071 46.6936 40.1559 40.8216 40.2915 35.0639C40.4457 28.5008 40.4749 21.7436 39.2521 15.2682C38.5876 11.7541 37.6014 8.30901 36.8119 4.82144C36.2138 2.18183 34.6508 0.446021 31.8596 0.198807C29.3024 -0.0271409 26.6602 0.560324 24.2385 1.33386C21.567 2.18981 18.7547 3.39132 16.8806 5.55776C15.8094 6.79383 17.609 8.60673 18.6855 7.36269C20.1981 5.61625 22.3991 4.63802 24.5496 3.91499C26.5033 3.25841 28.5183 2.76132 30.5864 2.71348C31.53 2.69221 32.6199 2.68424 33.3828 3.33018C34.1457 3.97613 34.2627 5.09789 34.4594 6.01498C35.0522 8.77154 35.8416 11.4829 36.4424 14.2395C37.713 20.061 37.8273 26.0951 37.7848 32.0336C37.7476 37.5121 37.4392 42.9827 37.0857 48.448C36.8092 52.7198 36.3866 57.4328 33.747 60.9868C32.2185 63.0443 29.9138 64.5089 27.6278 65.5962C26.5299 66.1198 24.4858 67.3878 23.5527 66.1065C22.827 65.107 22.7845 63.8258 22.3353 62.6934C21.801 61.351 20.9929 60.1282 20.2565 58.8895C18.7387 56.3429 17.3033 53.7485 15.7854 51.2019C12.7285 46.0663 9.63698 40.9545 6.51092 35.864C5.02764 33.4504 2.81866 30.6353 2.82664 27.6741C2.83461 24.7128 4.88675 21.9775 6.63852 19.8908C8.39028 17.8042 10.5594 15.6723 13.0475 14.3139C15.3309 13.0672 17.7897 12.1182 19.6345 10.215C20.7775 9.03471 18.9753 7.22978 17.8296 8.41003L17.8349 8.42066Z" />
<path d="M37.7821 7.7404C39.7678 7.63141 41.5169 6.88179 43.3936 6.31559C45.5361 5.66699 47.7211 5.77332 49.9328 5.82382C53.1864 5.90091 56.985 5.31345 59.9702 6.91103C63.2318 8.65748 63.9203 12.6102 64.0984 15.9809C64.3164 20.141 63.9894 24.2665 63.1574 28.3469C62.2882 32.608 61.0042 36.7707 59.7655 40.9362C59.0345 43.3897 58.37 45.8645 57.5751 48.2994C56.169 52.6057 54.1912 58.1906 49.8132 60.3225C46.9928 61.6941 43.4919 60.9871 41.2218 58.8977C39.4647 57.2789 39.0421 55.5749 39.0235 53.2729C39.0049 50.6865 39.058 48.1 39.0607 45.5136C39.0607 43.8708 36.5115 43.8682 36.5088 45.5136C36.5061 48.1 36.453 50.6865 36.4716 53.2729C36.4875 55.3623 36.6922 57.1885 37.9123 58.9535C39.9645 61.9227 43.4335 63.7038 47.046 63.5655C52.995 63.3369 56.4614 57.9992 58.5374 53.0417C59.6379 50.418 60.4646 47.696 61.2515 44.9634C62.4317 40.8697 63.7289 36.8106 64.7789 32.6797C65.9778 27.9561 66.7593 23.1527 66.7141 18.2696C66.6795 14.6145 66.4855 10.4996 64.2845 7.41609C61.6422 3.71586 57.2243 3.26131 53.0163 3.28257C50.4697 3.29586 47.8727 3.05928 45.3394 3.33574C42.8061 3.61219 40.3898 5.04763 37.7874 5.19117C36.1553 5.28155 36.1446 7.83343 37.7874 7.74305L37.7821 7.7404Z" />
<path d="M39.0448 16.9403C39.0448 21.7065 38.888 26.4966 38.9624 31.2575C38.989 32.9428 39.4276 34.6121 40.8418 35.6621C42.6813 37.0285 44.1327 35.8961 45.3661 34.3277C47.49 31.6323 48.7128 27.4217 47.575 24.0803C46.4772 20.8559 43.2076 19.0749 42.1124 15.8957C41.5515 14.2662 38.9252 14.4336 38.9784 16.321C39.1352 21.6746 40.6371 26.8581 40.9561 32.1905C41.2325 36.8291 40.2091 41.5873 42.3516 45.9308C42.8487 46.9409 44.6297 47.0074 45.1056 45.9308C47.0647 41.5129 45.9588 36.6483 46.0572 31.9885C46.1423 27.9453 46.2406 23.3147 42.7185 20.5741C41.1182 19.3301 38.8428 21.5709 40.4617 22.8309C43.3884 25.1064 42.9152 29.0246 42.8594 32.3367C42.7956 36.1619 43.9572 40.6994 42.349 44.3252H45.1029C43.1651 40.3964 44.433 35.4229 44.0715 31.2096C43.6409 26.2175 42.3144 21.3477 42.1656 16.3263L39.0315 16.7516C39.6004 18.4077 40.5228 19.7767 41.6605 21.0925C42.6148 22.1956 43.7446 23.235 44.3506 24.588C45.5787 27.318 44.2337 31.8184 41.711 33.4239H43.3219C42.333 32.9773 42.1656 32.3075 42.147 31.2628C42.1257 29.9922 42.232 28.7162 42.2373 27.4429C42.248 23.9447 42.2294 20.4439 42.2294 16.9457C42.2294 14.8935 39.0395 14.8909 39.0395 16.9457L39.0448 16.9403Z" />
<path d="M5.71615 36.9382C5.97665 39.3971 7.22336 41.8639 8.39829 43.9985C9.57322 46.133 11.2931 49.0517 13.8715 49.6285C15.1555 49.9156 16.3809 49.376 17.2103 48.3978C18.5686 46.7949 18.7175 44.655 18.1965 42.688C17.6754 40.7209 16.5138 38.8734 15.6127 37.0047C14.9428 35.6171 14.4191 34.1577 13.8131 32.7436C12.3271 29.2666 10.4611 24.8859 6.69703 23.3867C6.00589 23.1129 5.27489 23.5834 4.89476 24.1203C0.426306 30.4336 7.10108 38.0148 11.5057 42.3105C13.2469 44.0091 16.0353 46.7497 18.7494 45.9389C21.8701 45.0059 21.6787 40.9787 21.3119 38.4295C21.1072 37.0074 20.7723 35.6224 20.3921 34.2402C19.6425 31.4995 19.4219 28.7563 19.3794 25.9253C19.3501 23.8731 16.1948 23.8678 16.1895 25.9253C16.1736 33.7351 15.2591 41.5104 15.2379 49.3202C15.2326 51.3723 18.4224 51.375 18.4277 49.3202C18.449 41.5104 19.3634 33.7351 19.3794 25.9253H16.1895C16.2427 29.4341 16.7185 32.7117 17.5904 36.1009C18.0795 37.9989 18.869 40.697 18.0795 42.6029C17.8801 43.084 17.6887 42.9299 17.1677 42.7039C16.1044 42.2414 15.1714 41.3801 14.3314 40.6013C12.6142 39.009 11.0352 37.236 9.58385 35.3965C7.50513 32.7595 5.42906 28.8626 7.64601 25.7312L5.84374 26.4649C8.1112 27.3687 9.45891 30.827 10.3893 32.8499C11.5111 35.2928 12.4175 37.8101 13.6669 40.1972C14.3979 41.5928 15.392 43.2701 15.3017 44.9049C15.2724 45.4525 15.105 45.9416 14.7594 46.3669C14.5813 46.5849 14.6504 46.4919 14.4829 46.5796C14.8524 46.3908 14.5866 46.6726 14.4377 46.5184C14.5733 46.6593 14.3607 46.4546 14.5015 46.5184C14.3181 46.4334 14.1374 46.3244 13.9752 46.2048C13.7041 46.0054 13.3559 45.6279 13.09 45.3249C12.3776 44.5115 11.8088 43.5652 11.2798 42.6242C10.679 41.5556 10.1341 40.4471 9.67954 39.3067C9.47486 38.7937 9.28347 38.2753 9.12664 37.7463C9.07081 37.5629 9.02297 37.3768 8.97246 37.1908C8.94056 37.0765 8.85284 36.4491 8.906 36.9409C8.69335 34.9207 5.50083 34.8994 5.71615 36.9409V36.9382Z" />
</svg>
