<svg viewBox="0 0 73 61" fill="currentColor" stroke="currentColor" xmlns="http://www.w3.org/2000/svg">
<path d="M32.0455 25.4482C32.0455 29.6095 32.0455 33.7708 32.0455 37.9321C32.0455 38.8852 32.7151 48.0544 33.4649 43.4483C34.4384 37.4681 34.3681 31.058 34.3681 24.9966C34.3681 21.7806 33.6442 26.6773 33.2068 27.7708" stroke-width="3" stroke-linecap="round"/>
<path d="M32.0457 13.8707C32.0385 14.912 31.7266 16.8674 33.3362 16.7386C34.3972 16.6537 33.4428 15.0101 32.0457 13.8707Z" />
<path d="M32.0458 13.8354C32.0458 14.867 31.7082 16.8689 33.3362 16.7386C35.5237 16.5636 29.1446 9.76307 27.9813 14.416" stroke-width="3" stroke-linecap="round"/>
<path d="M39.594 39.3848V43.6421C39.594 42.7424 39.5339 41.1425 39.594 39.3848Z" />
<path d="M39.594 26.6099C39.594 32.2873 39.594 49.3196 39.594 43.6421C39.594 40.9472 39.055 31.9718 42.8198 31.2873C45.6532 30.7721 47.1424 31.0248 47.1424 34.0292C47.1424 36.861 47.723 39.4922 47.723 42.2873" stroke-width="3" stroke-linecap="round"/>
<path d="M37.8518 2.2085C29.3127 2.2085 20.8489 3.67354 12.3821 4.59163C11.0202 4.7393 2.32825 4.36986 2.32825 6.90028C2.32825 7.92317 3.03163 8.87954 3.37087 9.80472C4.69561 13.4177 5.37468 17.3029 6.20083 21.0501C7.66027 27.6697 9.44444 34.1997 11.5629 40.6365C13.8791 47.6743 14.8749 53.5988 22.287 56.4992C25.9524 57.9335 30.047 57.7999 33.9047 57.8397C40.0464 57.903 46.0908 58.7353 52.2623 58.4727C57.8126 58.2365 63.0873 55.8094 68.6091 55.1959C71.3493 54.8914 70.8025 54.3206 69.9868 51.3978C68.1109 44.6758 64.9314 38.7866 63.6939 31.8114C62.8138 26.8514 62.2603 21.8138 61.2735 16.8796C60.6684 13.8541 59.6441 7.65006 56.6562 5.96937C54.8332 4.94397 51.5946 5.55977 49.5813 5.55977C43.8304 5.55977 38.8904 3.54901 33.16 3.54901" stroke-width="3" stroke-linecap="round"/>
</svg>
