<svg viewBox="0 0 137 55" fill="currentColor" stroke="currentColor" xmlns="http://www.w3.org/2000/svg">
<mask id="path-1-outside-1_414_118" maskUnits="userSpaceOnUse" x="-0.878418" y="-1" width="37" height="51" fill="black">
<rect fill="white" x="-0.878418" y="-1" width="37" height="51"/>
<path d="M9.11427 11.2973C8.17956 22.6029 6.29099 33.5102 3.49323 44.2646C3.20612 45.3735 2.47239 45.8323 1.45154 45.5965C0.408361 45.3575 -0.082921 44.5641 0.201002 43.4456C1.41326 38.6755 2.51386 33.883 3.37839 29.0364C4.25887 24.1101 4.95751 19.1583 5.43922 14.1779C5.8348 10.0833 6.13786 5.98225 6.24314 1.87169C6.26866 0.813784 6.76313 0.170123 7.61171 0.0267316C8.51452 -0.123033 9.29611 0.361309 9.66936 1.35868C11.0954 5.19201 12.1577 9.1305 13.1211 13.0977C14.5822 19.1105 15.7625 25.1935 17.6702 31.0917C19.1441 35.6451 21.0805 39.9756 23.8496 43.9077C24.3026 44.5514 24.7747 45.1823 25.4287 45.6411C26.4049 46.3262 27.0684 46.1701 27.5693 45.0867C28.5199 43.0314 29.024 40.8423 29.327 38.6118C30.1597 32.4714 30.6765 26.2992 31.1518 20.1206C31.5825 14.5348 31.8792 8.94248 32.0993 3.34703C32.1471 2.13936 32.8745 1.41604 33.9687 1.48295C35.031 1.54987 35.567 2.32417 35.4968 3.54459C35.3373 6.38056 35.232 9.21971 35.0789 12.0557C34.8141 17.0011 34.4472 21.9369 33.991 26.8664C33.6369 30.6902 33.3083 34.5171 32.7947 38.325C32.4406 40.957 31.927 43.5508 30.8743 46.0108C30.8328 46.1095 30.7945 46.2115 30.7467 46.3103C29.142 49.774 26.0986 50.4814 23.1509 48.0628C22.095 47.1961 21.2464 46.1478 20.484 45.0166C17.2109 40.154 15.1755 34.7529 13.5613 29.1702C11.9152 23.4792 10.7827 17.6639 9.32163 11.9282C9.28335 11.7785 9.22274 11.6319 9.11108 11.2973H9.11427Z"/>
</mask>
<path d="M9.11427 11.2973C8.17956 22.6029 6.29099 33.5102 3.49323 44.2646C3.20612 45.3735 2.47239 45.8323 1.45154 45.5965C0.408361 45.3575 -0.082921 44.5641 0.201002 43.4456C1.41326 38.6755 2.51386 33.883 3.37839 29.0364C4.25887 24.1101 4.95751 19.1583 5.43922 14.1779C5.8348 10.0833 6.13786 5.98225 6.24314 1.87169C6.26866 0.813784 6.76313 0.170123 7.61171 0.0267316C8.51452 -0.123033 9.29611 0.361309 9.66936 1.35868C11.0954 5.19201 12.1577 9.1305 13.1211 13.0977C14.5822 19.1105 15.7625 25.1935 17.6702 31.0917C19.1441 35.6451 21.0805 39.9756 23.8496 43.9077C24.3026 44.5514 24.7747 45.1823 25.4287 45.6411C26.4049 46.3262 27.0684 46.1701 27.5693 45.0867C28.5199 43.0314 29.024 40.8423 29.327 38.6118C30.1597 32.4714 30.6765 26.2992 31.1518 20.1206C31.5825 14.5348 31.8792 8.94248 32.0993 3.34703C32.1471 2.13936 32.8745 1.41604 33.9687 1.48295C35.031 1.54987 35.567 2.32417 35.4968 3.54459C35.3373 6.38056 35.232 9.21971 35.0789 12.0557C34.8141 17.0011 34.4472 21.9369 33.991 26.8664C33.6369 30.6902 33.3083 34.5171 32.7947 38.325C32.4406 40.957 31.927 43.5508 30.8743 46.0108C30.8328 46.1095 30.7945 46.2115 30.7467 46.3103C29.142 49.774 26.0986 50.4814 23.1509 48.0628C22.095 47.1961 21.2464 46.1478 20.484 45.0166C17.2109 40.154 15.1755 34.7529 13.5613 29.1702C11.9152 23.4792 10.7827 17.6639 9.32163 11.9282C9.28335 11.7785 9.22274 11.6319 9.11108 11.2973H9.11427Z" />
<path d="M9.11427 11.2973C8.17956 22.6029 6.29099 33.5102 3.49323 44.2646C3.20612 45.3735 2.47239 45.8323 1.45154 45.5965C0.408361 45.3575 -0.082921 44.5641 0.201002 43.4456C1.41326 38.6755 2.51386 33.883 3.37839 29.0364C4.25887 24.1101 4.95751 19.1583 5.43922 14.1779C5.8348 10.0833 6.13786 5.98225 6.24314 1.87169C6.26866 0.813784 6.76313 0.170123 7.61171 0.0267316C8.51452 -0.123033 9.29611 0.361309 9.66936 1.35868C11.0954 5.19201 12.1577 9.1305 13.1211 13.0977C14.5822 19.1105 15.7625 25.1935 17.6702 31.0917C19.1441 35.6451 21.0805 39.9756 23.8496 43.9077C24.3026 44.5514 24.7747 45.1823 25.4287 45.6411C26.4049 46.3262 27.0684 46.1701 27.5693 45.0867C28.5199 43.0314 29.024 40.8423 29.327 38.6118C30.1597 32.4714 30.6765 26.2992 31.1518 20.1206C31.5825 14.5348 31.8792 8.94248 32.0993 3.34703C32.1471 2.13936 32.8745 1.41604 33.9687 1.48295C35.031 1.54987 35.567 2.32417 35.4968 3.54459C35.3373 6.38056 35.232 9.21971 35.0789 12.0557C34.8141 17.0011 34.4472 21.9369 33.991 26.8664C33.6369 30.6902 33.3083 34.5171 32.7947 38.325C32.4406 40.957 31.927 43.5508 30.8743 46.0108C30.8328 46.1095 30.7945 46.2115 30.7467 46.3103C29.142 49.774 26.0986 50.4814 23.1509 48.0628C22.095 47.1961 21.2464 46.1478 20.484 45.0166C17.2109 40.154 15.1755 34.7529 13.5613 29.1702C11.9152 23.4792 10.7827 17.6639 9.32163 11.9282C9.28335 11.7785 9.22274 11.6319 9.11108 11.2973H9.11427Z" mask="url(#path-1-outside-1_414_118)"/>
<mask id="path-2-outside-2_414_118" maskUnits="userSpaceOnUse" x="96.8584" y="6.56006" width="41" height="49" fill="black">
<rect fill="white" x="96.8584" y="6.56006" width="41" height="49"/>
<path d="M102.438 25.3338C102.693 24.7283 103.053 24.2121 103.698 23.9413C104.476 23.6162 105.098 23.8903 105.685 24.432C109.708 28.1379 113.728 31.8501 117.779 35.5273C123.697 40.8965 129.637 46.237 135.567 51.5903C135.727 51.7369 135.89 51.8803 136.046 52.03C136.837 52.8044 136.907 53.5691 136.26 54.3147C135.59 55.0891 134.604 55.2006 133.797 54.5569C133.29 54.1522 132.824 53.6934 132.339 53.26C122.58 44.5482 112.914 35.7344 103.299 26.8664C103.066 26.6498 102.859 26.4044 102.521 26.0507C102.734 27.8893 102.916 29.5941 103.136 31.2925C103.356 33.01 103.621 34.7179 103.854 36.4354C103.95 37.146 103.813 37.7961 103.203 38.2517C102.651 38.666 102.045 38.6755 101.436 38.3919C100.906 38.1466 100.635 37.7291 100.546 37.1333C99.9717 33.4178 99.5251 29.6865 99.1199 25.9488C98.6382 21.51 98.3096 17.0585 98.0289 12.6038C97.9587 11.4981 97.9013 10.3892 97.8598 9.28029C97.8247 8.2893 98.4532 7.61378 99.4198 7.56279C100.428 7.51181 101.203 8.17777 101.267 9.20063C101.391 11.1189 101.477 13.0372 101.599 14.9522C101.694 16.4626 101.851 17.973 101.905 19.4866C101.93 20.1812 102.151 20.2226 102.734 20.0346C105.851 19.0341 109.013 18.1865 112.212 17.4791C118.009 16.1981 123.859 15.3027 129.79 14.9459C130.97 14.8757 131.765 15.5194 131.809 16.5487C131.851 17.4664 131.12 18.1961 130.032 18.2757C121.008 18.9417 112.174 20.605 103.541 23.3231C102.738 23.5759 102.361 24.1091 102.412 24.9227C102.422 25.0565 102.428 25.1936 102.434 25.3274L102.438 25.3338Z"/>
</mask>
<path d="M102.438 25.3338C102.693 24.7283 103.053 24.2121 103.698 23.9413C104.476 23.6162 105.098 23.8903 105.685 24.432C109.708 28.1379 113.728 31.8501 117.779 35.5273C123.697 40.8965 129.637 46.237 135.567 51.5903C135.727 51.7369 135.89 51.8803 136.046 52.03C136.837 52.8044 136.907 53.5691 136.26 54.3147C135.59 55.0891 134.604 55.2006 133.797 54.5569C133.29 54.1522 132.824 53.6934 132.339 53.26C122.58 44.5482 112.914 35.7344 103.299 26.8664C103.066 26.6498 102.859 26.4044 102.521 26.0507C102.734 27.8893 102.916 29.5941 103.136 31.2925C103.356 33.01 103.621 34.7179 103.854 36.4354C103.95 37.146 103.813 37.7961 103.203 38.2517C102.651 38.666 102.045 38.6755 101.436 38.3919C100.906 38.1466 100.635 37.7291 100.546 37.1333C99.9717 33.4178 99.5251 29.6865 99.1199 25.9488C98.6382 21.51 98.3096 17.0585 98.0289 12.6038C97.9587 11.4981 97.9013 10.3892 97.8598 9.28029C97.8247 8.2893 98.4532 7.61378 99.4198 7.56279C100.428 7.51181 101.203 8.17777 101.267 9.20063C101.391 11.1189 101.477 13.0372 101.599 14.9522C101.694 16.4626 101.851 17.973 101.905 19.4866C101.93 20.1812 102.151 20.2226 102.734 20.0346C105.851 19.0341 109.013 18.1865 112.212 17.4791C118.009 16.1981 123.859 15.3027 129.79 14.9459C130.97 14.8757 131.765 15.5194 131.809 16.5487C131.851 17.4664 131.12 18.1961 130.032 18.2757C121.008 18.9417 112.174 20.605 103.541 23.3231C102.738 23.5759 102.361 24.1091 102.412 24.9227C102.422 25.0565 102.428 25.1936 102.434 25.3274L102.438 25.3338Z" />
<path d="M102.438 25.3338C102.693 24.7283 103.053 24.2121 103.698 23.9413C104.476 23.6162 105.098 23.8903 105.685 24.432C109.708 28.1379 113.728 31.8501 117.779 35.5273C123.697 40.8965 129.637 46.237 135.567 51.5903C135.727 51.7369 135.89 51.8803 136.046 52.03C136.837 52.8044 136.907 53.5691 136.26 54.3147C135.59 55.0891 134.604 55.2006 133.797 54.5569C133.29 54.1522 132.824 53.6934 132.339 53.26C122.58 44.5482 112.914 35.7344 103.299 26.8664C103.066 26.6498 102.859 26.4044 102.521 26.0507C102.734 27.8893 102.916 29.5941 103.136 31.2925C103.356 33.01 103.621 34.7179 103.854 36.4354C103.95 37.146 103.813 37.7961 103.203 38.2517C102.651 38.666 102.045 38.6755 101.436 38.3919C100.906 38.1466 100.635 37.7291 100.546 37.1333C99.9717 33.4178 99.5251 29.6865 99.1199 25.9488C98.6382 21.51 98.3096 17.0585 98.0289 12.6038C97.9587 11.4981 97.9013 10.3892 97.8598 9.28029C97.8247 8.2893 98.4532 7.61378 99.4198 7.56279C100.428 7.51181 101.203 8.17777 101.267 9.20063C101.391 11.1189 101.477 13.0372 101.599 14.9522C101.694 16.4626 101.851 17.973 101.905 19.4866C101.93 20.1812 102.151 20.2226 102.734 20.0346C105.851 19.0341 109.013 18.1865 112.212 17.4791C118.009 16.1981 123.859 15.3027 129.79 14.9459C130.97 14.8757 131.765 15.5194 131.809 16.5487C131.851 17.4664 131.12 18.1961 130.032 18.2757C121.008 18.9417 112.174 20.605 103.541 23.3231C102.738 23.5759 102.361 24.1091 102.412 24.9227C102.422 25.0565 102.428 25.1936 102.434 25.3274L102.438 25.3338Z" mask="url(#path-2-outside-2_414_118)"/>
<mask id="path-3-outside-3_414_118" maskUnits="userSpaceOnUse" x="65.2192" y="15.2134" width="27" height="29" fill="black">
<rect fill="white" x="65.2192" y="15.2134" width="27" height="29"/>
<path d="M80.3362 16.2205C81.9057 16.2268 83.4785 16.281 84.9938 16.759C87.2269 17.4632 88.9943 18.7123 89.326 21.1914C89.6451 23.578 88.57 25.4612 86.6942 26.8728C84.7354 28.3482 82.4353 28.5011 80.1033 28.3705C76.8557 28.1889 73.6401 27.695 70.4212 27.2807C69.6301 27.1788 69.5567 27.4177 69.6556 28.0837C69.7928 29.011 70.0544 29.8936 70.5744 30.6616C72.4916 33.4975 74.7949 35.983 77.7745 37.7037C81.0827 39.6124 84.595 39.8195 88.1903 38.5194C89.4505 38.0637 90.3373 38.3633 90.7329 39.3957C91.0966 40.3484 90.6117 41.2184 89.3707 41.6804C84.8184 43.3756 80.3681 43.1303 76.1571 40.6862C72.683 38.666 69.9268 35.83 67.7128 32.497C64.6566 27.8989 66.6632 22.2174 70.3734 19.305C73.0116 17.2369 76.0678 16.3766 79.3632 16.2205C79.6854 16.2045 80.0108 16.2205 80.3362 16.2205ZM80.5786 19.5694C79.6726 19.5121 78.7507 19.5917 77.8447 19.7415C75.232 20.1717 72.9255 21.185 71.1932 23.2817C70.7626 23.8011 70.8934 23.9859 71.5154 24.0528C72.7532 24.1835 73.9846 24.3619 75.2224 24.483C77.4013 24.6933 79.5674 25.1107 81.7686 25.0342C82.9553 24.9928 84.0782 24.7283 84.997 23.9062C86.541 22.5265 86.2124 20.7803 84.2728 20.0697C83.0861 19.6332 81.8547 19.5057 80.5786 19.5694Z"/>
</mask>
<path d="M80.3362 16.2205C81.9057 16.2268 83.4785 16.281 84.9938 16.759C87.2269 17.4632 88.9943 18.7123 89.326 21.1914C89.6451 23.578 88.57 25.4612 86.6942 26.8728C84.7354 28.3482 82.4353 28.5011 80.1033 28.3705C76.8557 28.1889 73.6401 27.695 70.4212 27.2807C69.6301 27.1788 69.5567 27.4177 69.6556 28.0837C69.7928 29.011 70.0544 29.8936 70.5744 30.6616C72.4916 33.4975 74.7949 35.983 77.7745 37.7037C81.0827 39.6124 84.595 39.8195 88.1903 38.5194C89.4505 38.0637 90.3373 38.3633 90.7329 39.3957C91.0966 40.3484 90.6117 41.2184 89.3707 41.6804C84.8184 43.3756 80.3681 43.1303 76.1571 40.6862C72.683 38.666 69.9268 35.83 67.7128 32.497C64.6566 27.8989 66.6632 22.2174 70.3734 19.305C73.0116 17.2369 76.0678 16.3766 79.3632 16.2205C79.6854 16.2045 80.0108 16.2205 80.3362 16.2205ZM80.5786 19.5694C79.6726 19.5121 78.7507 19.5917 77.8447 19.7415C75.232 20.1717 72.9255 21.185 71.1932 23.2817C70.7626 23.8011 70.8934 23.9859 71.5154 24.0528C72.7532 24.1835 73.9846 24.3619 75.2224 24.483C77.4013 24.6933 79.5674 25.1107 81.7686 25.0342C82.9553 24.9928 84.0782 24.7283 84.997 23.9062C86.541 22.5265 86.2124 20.7803 84.2728 20.0697C83.0861 19.6332 81.8547 19.5057 80.5786 19.5694Z" />
<path d="M80.3362 16.2205C81.9057 16.2268 83.4785 16.281 84.9938 16.759C87.2269 17.4632 88.9943 18.7123 89.326 21.1914C89.6451 23.578 88.57 25.4612 86.6942 26.8728C84.7354 28.3482 82.4353 28.5011 80.1033 28.3705C76.8557 28.1889 73.6401 27.695 70.4212 27.2807C69.6301 27.1788 69.5567 27.4177 69.6556 28.0837C69.7928 29.011 70.0544 29.8936 70.5744 30.6616C72.4916 33.4975 74.7949 35.983 77.7745 37.7037C81.0827 39.6124 84.595 39.8195 88.1903 38.5194C89.4505 38.0637 90.3373 38.3633 90.7329 39.3957C91.0966 40.3484 90.6117 41.2184 89.3707 41.6804C84.8184 43.3756 80.3681 43.1303 76.1571 40.6862C72.683 38.666 69.9268 35.83 67.7128 32.497C64.6566 27.8989 66.6632 22.2174 70.3734 19.305C73.0116 17.2369 76.0678 16.3766 79.3632 16.2205C79.6854 16.2045 80.0108 16.2205 80.3362 16.2205ZM80.5786 19.5694C79.6726 19.5121 78.7507 19.5917 77.8447 19.7415C75.232 20.1717 72.9255 21.185 71.1932 23.2817C70.7626 23.8011 70.8934 23.9859 71.5154 24.0528C72.7532 24.1835 73.9846 24.3619 75.2224 24.483C77.4013 24.6933 79.5674 25.1107 81.7686 25.0342C82.9553 24.9928 84.0782 24.7283 84.997 23.9062C86.541 22.5265 86.2124 20.7803 84.2728 20.0697C83.0861 19.6332 81.8547 19.5057 80.5786 19.5694Z" mask="url(#path-3-outside-3_414_118)"/>
<mask id="path-4-outside-4_414_118" maskUnits="userSpaceOnUse" x="38.5327" y="13.9102" width="26" height="27" fill="black">
<rect fill="white" x="38.5327" y="13.9102" width="26" height="27"/>
<path d="M39.5327 25.7832C39.7337 21.6121 42.4485 18.2472 46.9051 16.1441C49.2308 15.0448 51.7063 14.5987 54.2616 15.1404C56.4724 15.6088 58.1983 16.8197 59.1298 18.9291C60.2368 21.4369 59.1011 24.3238 56.5234 25.7673C54.5583 26.8666 52.5007 26.9017 50.3888 26.3153C49.2371 25.9967 48.1397 25.5347 47.0647 25.0216C46.1491 24.5883 45.8014 23.6833 46.1682 22.7847C46.5159 21.9308 47.4539 21.5452 48.4141 21.9339C49.5179 22.3801 50.5738 22.9409 51.7574 23.1671C52.6729 23.3424 53.5853 23.371 54.469 22.9919C55.3718 22.6031 56.0704 21.9977 56.1023 20.9621C56.131 19.9711 55.509 19.2987 54.6795 18.8526C53.5566 18.244 52.3443 18.2153 51.1193 18.4288C47.8239 18.9992 45.1219 20.4777 43.6321 23.6164C41.903 27.2617 43.2652 31.6973 47.7314 33.0324C49.9294 33.6889 52.2008 33.8291 54.4467 34.1413C57.2859 34.5365 60.0485 35.1355 62.3933 36.9231C63.143 37.4935 63.3535 38.169 63.0409 38.9816C62.6613 39.9726 61.465 40.4091 60.5526 39.7145C58.1313 37.8663 55.2665 37.6305 52.4209 37.2928C50.2165 37.0315 48.0089 36.7989 45.9162 35.9831C41.8902 34.4122 39.5423 30.9995 39.5359 25.7864L39.5327 25.7832Z"/>
</mask>
<path d="M39.5327 25.7832C39.7337 21.6121 42.4485 18.2472 46.9051 16.1441C49.2308 15.0448 51.7063 14.5987 54.2616 15.1404C56.4724 15.6088 58.1983 16.8197 59.1298 18.9291C60.2368 21.4369 59.1011 24.3238 56.5234 25.7673C54.5583 26.8666 52.5007 26.9017 50.3888 26.3153C49.2371 25.9967 48.1397 25.5347 47.0647 25.0216C46.1491 24.5883 45.8014 23.6833 46.1682 22.7847C46.5159 21.9308 47.4539 21.5452 48.4141 21.9339C49.5179 22.3801 50.5738 22.9409 51.7574 23.1671C52.6729 23.3424 53.5853 23.371 54.469 22.9919C55.3718 22.6031 56.0704 21.9977 56.1023 20.9621C56.131 19.9711 55.509 19.2987 54.6795 18.8526C53.5566 18.244 52.3443 18.2153 51.1193 18.4288C47.8239 18.9992 45.1219 20.4777 43.6321 23.6164C41.903 27.2617 43.2652 31.6973 47.7314 33.0324C49.9294 33.6889 52.2008 33.8291 54.4467 34.1413C57.2859 34.5365 60.0485 35.1355 62.3933 36.9231C63.143 37.4935 63.3535 38.169 63.0409 38.9816C62.6613 39.9726 61.465 40.4091 60.5526 39.7145C58.1313 37.8663 55.2665 37.6305 52.4209 37.2928C50.2165 37.0315 48.0089 36.7989 45.9162 35.9831C41.8902 34.4122 39.5423 30.9995 39.5359 25.7864L39.5327 25.7832Z" />
<path d="M39.5327 25.7832C39.7337 21.6121 42.4485 18.2472 46.9051 16.1441C49.2308 15.0448 51.7063 14.5987 54.2616 15.1404C56.4724 15.6088 58.1983 16.8197 59.1298 18.9291C60.2368 21.4369 59.1011 24.3238 56.5234 25.7673C54.5583 26.8666 52.5007 26.9017 50.3888 26.3153C49.2371 25.9967 48.1397 25.5347 47.0647 25.0216C46.1491 24.5883 45.8014 23.6833 46.1682 22.7847C46.5159 21.9308 47.4539 21.5452 48.4141 21.9339C49.5179 22.3801 50.5738 22.9409 51.7574 23.1671C52.6729 23.3424 53.5853 23.371 54.469 22.9919C55.3718 22.6031 56.0704 21.9977 56.1023 20.9621C56.131 19.9711 55.509 19.2987 54.6795 18.8526C53.5566 18.244 52.3443 18.2153 51.1193 18.4288C47.8239 18.9992 45.1219 20.4777 43.6321 23.6164C41.903 27.2617 43.2652 31.6973 47.7314 33.0324C49.9294 33.6889 52.2008 33.8291 54.4467 34.1413C57.2859 34.5365 60.0485 35.1355 62.3933 36.9231C63.143 37.4935 63.3535 38.169 63.0409 38.9816C62.6613 39.9726 61.465 40.4091 60.5526 39.7145C58.1313 37.8663 55.2665 37.6305 52.4209 37.2928C50.2165 37.0315 48.0089 36.7989 45.9162 35.9831C41.8902 34.4122 39.5423 30.9995 39.5359 25.7864L39.5327 25.7832Z" mask="url(#path-4-outside-4_414_118)"/>
</svg>
