<svg viewBox="0 0 105 62" fill="currentColor" stroke="currentColor" xmlns="http://www.w3.org/2000/svg">
*<path d="M12.7925 12.4336C12.8376 11.989 13.0384 11.6306 13.3331 11.3801C13.6565 11.1052 14.0723 10.9768 14.4729 10.9768C14.8733 10.9768 15.2885 11.1051 15.6086 11.3826C15.9373 11.6675 16.1408 12.0891 16.1348 12.6134L16.1348 12.6138C16.1027 15.2497 14.8801 17.3571 13.388 19.2539C12.789 20.0153 12.1378 20.7532 11.4978 21.4785C11.3424 21.6546 11.1876 21.83 11.0344 22.0048C10.2454 22.905 9.49353 23.7942 8.86815 24.7226L8.86813 24.7226C8.45877 25.3302 8.04481 25.9207 7.63338 26.5076C7.01212 27.3938 6.39662 28.2718 5.81139 29.188L12.7925 12.4336ZM12.7925 12.4336L12.7823 12.4439L12.7803 12.6068C12.7581 14.4671 11.7872 16.083 10.4963 17.6435C9.96491 18.2858 9.39036 18.9062 8.81585 19.5266C8.69368 19.6585 8.57151 19.7904 8.44976 19.9225C7.76081 20.6702 7.0865 21.4232 6.53631 22.1931L12.7925 12.4336ZM1.98612 29.8685L1.63166 29.6842C2.86707 27.3076 4.46676 25.0782 6.01553 22.9198C6.18996 22.6767 6.36375 22.4345 6.53629 22.1931L1.98612 29.8685ZM1.98612 29.8685L1.63165 29.6842C1.35456 30.2173 1.01868 30.8648 0.797258 31.5424C0.575937 32.2197 0.454427 32.9685 0.645247 33.6992C0.794606 34.2712 1.08758 34.6459 1.50366 34.8769C1.89019 35.0915 2.35292 35.1627 2.79162 35.2154C4.13279 35.3801 5.45827 35.6576 6.76598 36.0173C9.09857 36.6609 11.3343 37.579 13.5858 38.526C13.7519 38.5959 13.9181 38.666 14.0844 38.7361C16.1657 39.613 18.2678 40.4988 20.4485 41.1785C21.1675 41.4026 21.8913 41.6128 22.6142 41.8227C24.2092 42.2859 25.7995 42.7478 27.3238 43.3549C29.5233 44.231 31.5255 45.3897 33.0796 47.2322C33.418 47.6333 33.845 47.8163 34.2797 47.798C34.7001 47.7804 35.0822 47.5769 35.3638 47.2941C35.9224 46.7329 36.1881 45.7329 35.4962 44.9116L35.496 44.9114M1.98612 29.8685L35.496 44.9114M35.496 44.9114C33.6113 42.6783 31.2024 41.3092 28.6433 40.2926C26.965 39.6259 25.1905 39.1004 23.4524 38.5858C22.5604 38.3217 21.6781 38.0604 20.8233 37.7843L20.8232 37.7843C18.9244 37.1718 17.1057 36.3976 15.2687 35.6156C14.2551 35.1841 13.2359 34.7502 12.1946 34.3398M35.496 44.9114L12.1946 34.3398M12.1946 34.3398C9.59612 33.3154 6.95954 32.5171 4.21281 32.0643C4.24508 31.9701 4.27683 31.8849 4.31386 31.8047C4.73219 30.9062 5.2641 30.0461 5.81124 29.1882L12.1946 34.3398Z" stroke-width="0.8"/>
<path d="M41.3214 4.31615C40.4952 4.10322 40.0921 3.33867 40.0913 2.64296C40.0909 2.24298 40.2185 1.82839 40.4993 1.51287C40.7885 1.18793 41.2146 0.997908 41.7389 1.02081L41.7392 1.02082C43.8417 1.11416 45.7886 1.62308 47.7993 2.14864C48.014 2.20477 48.2295 2.26109 48.4459 2.31711C50.5551 2.86302 52.6807 3.10887 54.8707 3.36216C54.9933 3.37635 55.1162 3.39056 55.2392 3.40484L41.3214 4.31615ZM41.3214 4.31615V4.35756L41.7036 4.37458C43.3972 4.44998 45.0066 4.87613 46.6695 5.31646C47.1238 5.43676 47.5821 5.55812 48.0472 5.67367M41.3214 4.31615L55.2394 3.40486C56.8143 3.58721 58.3296 3.91866 59.8379 4.24861C60.3529 4.36126 60.8671 4.47373 61.3825 4.58003M48.0472 5.67367C48.0471 5.67365 48.0471 5.67363 48.047 5.67361L48.1437 5.28547L48.0472 5.67367ZM48.0472 5.67367C50.1342 6.19346 52.2503 6.42763 54.3484 6.65982C54.4488 6.67092 54.5491 6.68202 54.6494 6.69315C56.1416 6.85875 57.4668 7.15223 58.8282 7.45374C59.4584 7.59328 60.0962 7.73455 60.762 7.86565C61.8329 8.07651 62.9487 8.04049 64.0185 8.00596L64.062 8.00456C64.81 7.98044 65.537 7.95852 66.2441 8.00933M66.2441 8.00933C66.3143 8.95697 66.0654 9.89592 65.6421 10.826C65.1574 11.8909 64.4646 12.9028 63.8006 13.8727C63.6688 14.0652 63.5381 14.256 63.4104 14.4453C62.8266 15.3108 62.3375 16.2596 61.8602 17.1857C61.7053 17.4861 61.5517 17.7841 61.3965 18.0761C60.754 19.2849 60.0725 20.4167 59.1271 21.3392M66.2441 8.00933C66.3793 8.01904 66.5138 8.03142 66.6476 8.04696M66.2441 8.00933C66.2341 7.87476 66.2177 7.74002 66.1945 7.6051L66.6476 8.04696M59.1271 21.3392C58.7516 21.7055 58.5966 22.1475 58.6271 22.5816C58.6569 23.0043 58.8597 23.3888 59.1429 23.6721C59.4263 23.9555 59.8113 24.1587 60.2347 24.1931C60.6686 24.2283 61.1152 24.083 61.4907 23.7168L61.4908 23.7167C62.6927 22.5438 63.5538 21.134 64.3326 19.7146C64.5273 19.3598 64.7163 19.0057 64.9038 18.6542C65.4749 17.584 66.0333 16.5375 66.703 15.5658C68.5077 12.9476 70.4185 9.53304 69.2544 6.04921L69.2543 6.04873C69.0942 5.57163 68.7018 5.01948 68.0621 4.89306L68.0614 4.89292C66.9147 4.6685 65.7718 4.70264 64.681 4.73522L64.6283 4.73679C63.5069 4.77021 62.4393 4.79772 61.3825 4.58003M59.1271 21.3392C59.1272 21.3392 59.1272 21.3392 59.1272 21.3391L59.4065 21.6255M59.1271 21.3392L59.4065 21.6255M61.3825 4.58003C61.3825 4.58003 61.3826 4.58004 61.3826 4.58005L61.3018 4.9718M61.3825 4.58003L61.3018 4.9718M61.3018 4.9718C62.423 5.20275 63.5482 5.16919 64.6745 5.13559C65.7779 5.10268 66.8822 5.06973 67.9846 5.28547M61.3018 4.9718L67.9846 5.28547M67.9846 5.28547C68.4285 5.37319 68.7395 5.77193 68.8751 6.17597C69.9702 9.45355 68.1839 12.7125 66.3737 15.3388C65.6899 16.3309 65.1164 17.4057 64.5427 18.4809C63.5978 20.2521 62.6521 22.0245 61.2114 23.4304C60.0338 24.5788 58.2289 22.7739 59.4065 21.6255M67.9846 5.28547L66.6476 8.04696M59.4065 21.6255C60.6443 20.4176 61.4357 18.8824 62.2242 17.3529C62.6989 16.432 63.1726 15.5131 63.7421 14.669C63.8664 14.4847 63.9948 14.2972 64.1251 14.1069C65.361 12.3025 66.778 10.2337 66.6476 8.04696" stroke-width="0.8"/>
<path d="M29.5725 60.6234L29.5724 60.6232C32.8167 57.7584 36.8104 55.9994 40.8148 54.2358C41.0984 54.1109 41.382 53.986 41.6655 53.8606L41.6655 53.8606C43.6363 52.9888 45.5697 52.0765 47.4977 51.1668C50.345 49.8233 53.1806 48.4853 56.1075 47.2914C61.0001 45.2957 66.2021 43.5213 71.4297 42.235C75.6071 41.2074 79.6519 39.8138 83.6901 38.4224C84.4577 38.1579 85.225 37.8935 85.993 37.6318L85.9931 37.6317C91.3705 35.7977 96.7984 34.2491 102.46 34.1203C102.984 34.1084 103.4 33.8912 103.68 33.5584C103.954 33.2335 104.083 32.8176 104.083 32.4169C104.084 32.0166 103.956 31.6015 103.677 31.2829C103.39 30.9554 102.967 30.7567 102.442 30.7686L102.451 31.1685L102.442 30.7686C97.1131 30.8895 92.0861 32.1873 87.1559 33.7736C85.4647 34.3177 83.7897 34.8939 82.1179 35.469C78.8965 36.5771 75.6871 37.6811 72.397 38.5435C67.0039 39.9564 61.7064 41.4816 56.4951 43.5427L56.495 43.5427C52.9635 44.9399 49.5292 46.5473 46.105 48.1499C44.5541 48.8758 43.0052 49.6008 41.4503 50.3048L41.4502 50.3048C40.8036 50.5979 40.1527 50.8873 39.5003 51.1774C35.0779 53.1436 30.5888 55.1396 26.9186 58.5114L26.9186 58.5114C26.532 58.8666 26.3652 59.3026 26.3904 59.7369C26.415 60.1588 26.6178 60.5423 26.901 60.8249C27.4646 61.3872 28.4638 61.6394 29.2644 60.9057L29.5725 60.6234Z" stroke-width="0.8"/>
</svg>
