<svg viewBox="0 0 75 56" fill="currentColor" xmlns="http://www.w3.org/2000/svg">
<path d="M19.6563 4.20796C16.8784 4.23873 13.7984 4.11005 11.2416 5.38568C9.95196 6.02909 9.00363 7.23199 7.89304 8.12437C6.78246 9.01676 5.60194 9.90075 4.63962 10.9722C2.39887 13.4619 0.379115 17.5406 0.703618 20.9618C0.86587 22.6627 1.81141 24.1034 3.47029 24.6656C4.67039 25.0713 6.02435 25.0293 7.27481 25.0013C8.86935 24.9678 10.5366 24.9846 12.1032 24.6517C13.6698 24.3188 15.1216 23.7173 16.6686 23.3788C18.2156 23.0403 19.7486 22.5592 21.2564 22.036C24.2777 20.987 27.2905 19.7226 30.474 19.2554C32.0573 19.0232 33.6603 19.1379 35.252 19.0008C37.0172 18.8498 38.7684 18.5532 40.5392 18.4749C44.0108 18.3238 47.5775 18.3574 51.052 18.4581C54.5264 18.5588 57.6987 19.661 60.8402 20.8192C63.3523 21.7451 65.9791 23.3201 68.673 23.5886C71.104 23.8292 73.2133 22.2822 74.2539 20.1534C75.2946 18.0245 75.1183 15.4984 73.6973 13.4955C72.2762 11.4925 70.0522 10.1441 67.9345 8.92444C64.9245 7.19283 61.8165 5.63465 58.5911 4.34223C55.0131 2.90994 51.3429 2.36444 47.5384 1.89447C45.6277 1.65669 43.8262 1.68746 41.9099 1.69585C39.9937 1.70425 38.2425 1.33219 36.4074 1.13357C32.8602 0.747521 29.3466 0.294336 25.7659 0.316715C24.2413 0.327905 22.6467 0.43141 21.2536 1.11399C20.0311 1.71264 19.1891 3.09457 17.7288 2.92113C16.0168 2.71692 16.0308 5.40246 17.7288 5.60668C20.2018 5.90321 21.2872 3.65406 23.4916 3.1757C24.7085 2.91274 25.9981 2.99946 27.2318 3.01625C28.734 3.03863 30.1914 3.08338 31.6797 3.31557C34.5471 3.75757 37.4956 4.07368 40.3881 4.31426C41.7477 4.42895 43.0876 4.28908 44.45 4.29188C46.0026 4.29188 47.5608 4.56883 49.0993 4.76744C52.3192 5.18147 55.3628 5.88362 58.3701 7.12569C61.2011 8.29502 63.9314 9.71052 66.5834 11.2379C68.4576 12.3177 70.69 13.4983 71.781 15.4593C72.7517 17.2077 72.1643 19.647 70.3487 20.6401C68.3933 21.7087 65.5063 19.7421 63.6852 19.026C60.9941 17.9686 58.2414 16.9503 55.4104 16.3349C52.4842 15.6998 49.5721 15.7726 46.5956 15.7754C43.552 15.7754 40.5392 15.7166 37.5096 16.0691C34.6981 16.3964 31.8391 16.2593 29.0585 16.7853C26.2778 17.3112 23.651 18.349 20.9991 19.2834C18.3471 20.2177 15.6308 20.7436 12.976 21.6024C11.5717 22.0556 10.2904 22.1899 8.82739 22.2542C7.47343 22.313 5.87329 22.5396 4.5501 22.1871C1.42536 21.3507 4.81586 15.3334 5.78377 13.8731C7.16011 11.7946 9.38128 10.519 11.1549 8.82653C13.4292 6.65851 16.7078 6.92427 19.6535 6.8935C21.3795 6.87392 21.3851 4.18837 19.6535 4.20796H19.6563Z" />
<path d="M15.8015 32.5828C17.6199 32.3646 18.8787 31.0694 20.6019 30.6134C22.7252 30.0511 25.131 29.4609 27.327 29.3881C29.523 29.3154 31.4252 29.7126 33.4953 29.2119C35.5654 28.7112 37.6048 28.714 39.7896 28.7279C42.2597 28.7419 44.7299 28.7503 47.2 28.7363C49.2002 28.7251 50.9793 29.0804 52.6354 30.2693C54.188 31.3827 55.1559 33.0975 56.8064 34.0878C57.5086 34.5103 58.2723 34.804 58.4177 35.7104C58.524 36.3733 58.1632 36.8601 57.682 37.2853C55.2454 39.431 51.4549 39.2491 48.4505 39.0505C44.0305 38.7568 39.714 37.6014 35.2745 37.6042C30.6811 37.607 26.0569 37.4643 21.4775 37.898C19.3543 38.0994 17.3401 38.3679 15.3763 39.2351C13.958 39.8618 12.3663 40.9835 10.7465 40.7178C10.2961 40.645 9.34782 40.4324 9.1464 39.9485C8.79672 39.1064 10.0164 38.9862 10.5451 38.9806C11.9746 38.9638 13.5664 39.1596 14.8196 38.326C16.0729 37.4923 16.8729 35.8306 17.7317 34.5942C18.5906 33.3577 19.8914 31.3939 21.5838 31.2932C23.2763 31.1925 23.3126 28.5041 21.5838 28.6077C17.7317 28.837 15.9722 32.7255 13.93 35.4222C12.9034 36.7762 11.3256 36.1775 9.8038 36.323C8.01064 36.4936 6.43568 37.7777 6.39931 39.6939C6.33497 43.3278 11.1941 43.8845 13.7202 42.9082C14.7637 42.5053 15.7484 41.971 16.7778 41.5346C18.0395 41.0003 19.3431 40.8101 20.6998 40.6618C23.3798 40.3653 26.0793 40.301 28.7732 40.287C31.4672 40.273 34.3849 40.1667 37.1656 40.3233C39.9294 40.48 42.6374 41.1234 45.3845 41.4507C49.2981 41.9179 53.581 42.3123 57.2708 40.6506C58.7255 39.996 60.1857 38.9918 60.8207 37.4727C61.4921 35.8642 60.9858 33.9088 59.7018 32.7451C58.9856 32.0961 58.0401 31.8023 57.3323 31.1393C56.4427 30.3085 55.7378 29.3238 54.7867 28.5545C53.1222 27.2089 51.1975 26.3389 49.0603 26.1095C46.0251 25.785 42.8444 26.0564 39.7896 26.0396C38.3405 26.0312 36.8551 25.9109 35.4088 26.0592C34.0884 26.1935 32.8463 26.7446 31.5259 26.8257C30.1244 26.9124 28.7285 26.6606 27.327 26.6998C25.9255 26.739 24.6302 27.0467 23.307 27.2957C21.8971 27.5586 20.4061 27.7712 19.0521 28.2608C17.9695 28.6524 16.9457 29.7574 15.8015 29.8945C14.1063 30.0959 14.0867 32.7842 15.8015 32.58V32.5828Z" />
<path d="M36.3543 45.3083C34.0464 45.3083 31.7246 45.3838 29.4223 45.2747C27.6878 45.1908 25.8359 45.1572 24.426 46.3406C21.5782 48.7296 22.6217 53.3286 25.7968 54.8476C28.3313 56.0617 31.9176 56.0085 34.6842 55.919C37.4509 55.8295 40.7911 55.1413 41.5044 51.9718C41.8569 50.4108 41.8653 48.3659 40.7211 47.1183C39.4035 45.6776 37.4761 45.9405 35.7137 45.9517C33.9513 45.9629 33.9821 48.6484 35.7137 48.6373C36.7348 48.6317 38.6147 48.1533 38.9448 49.4485C39.1965 50.436 39.0399 51.9131 38.1363 52.5089C36.2116 53.7762 33.0086 53.2502 30.849 53.1048C29.6656 53.0264 28.4432 53.0125 27.3186 52.5872C25.9059 52.0501 24.854 50.3857 25.7017 48.9142C26.5493 47.4428 28.6614 47.9491 30.0237 47.9883C32.1302 48.047 34.245 47.9966 36.3543 47.9966C38.0831 47.9966 38.0859 45.3111 36.3543 45.3111V45.3083Z" />
</svg>
