<svg width="107" height="98" viewBox="0 0 107 98" fill="none" xmlns="http://www.w3.org/2000/svg">
<path d="M35.6855 23.3015C38.9578 26.5764 42.2726 29.8167 45.4332 33.2033C48.5486 36.542 51.5178 40.011 54.5323 43.4401C60.3697 50.0856 66.5022 56.4653 73.597 61.7844C75.6092 63.2916 77.9165 64.751 80.3594 65.4182C82.8023 66.0854 85.2878 64.9982 85.0273 62.1061C84.7907 59.4638 83.0363 56.8641 81.9863 54.4743C80.2133 50.4445 78.084 46.7256 75.479 43.1716C70.4417 36.2948 64.3703 30.3617 58.7907 23.9501C56.4382 21.2467 53.99 18.3492 50.4466 17.2514C48.4955 16.648 46.4167 16.6187 44.3912 16.6107C42.6075 16.6054 40.8239 16.3077 39.0402 16.414C37.5968 16.4991 36.2916 16.8181 35.4117 18.0409C34.6196 19.144 34.3511 20.529 34.1863 21.8501C33.7105 25.6646 33.9816 29.5935 34.0241 33.4239C34.0693 37.4671 34.9519 41.3853 36.4538 45.1387C37.9556 48.8921 40.6963 52.1723 43.1338 55.3356C47.7565 61.3299 53.8544 66.4124 60.8349 69.4188C64.256 70.8914 67.8552 71.8165 71.5714 72.1169C73.2939 72.2578 75.2424 72.295 76.8612 71.5985C78.1691 71.035 79.0383 69.9425 79.7082 68.7197C80.3781 67.4969 80.8645 66.1386 81.9491 65.1896C83.1851 64.105 81.3749 62.3054 80.1441 63.3847C79.1819 64.2273 78.5731 65.3225 78.0069 66.4496C77.4939 67.4677 76.9809 68.7729 75.8644 69.2699C74.4184 69.9132 72.4459 69.6687 70.9255 69.5065C69.2667 69.3284 67.6186 69.0121 66.0104 68.5682C59.2958 66.7127 53.2856 62.6005 48.4742 57.6349C45.9888 55.0671 43.9366 52.1697 41.8366 49.2882C40.7308 47.7677 39.6303 46.2126 38.9126 44.4635C38.2401 42.8314 37.7669 41.1035 37.2991 39.4023C36.2783 35.6914 36.5601 31.7333 36.5202 27.9161C36.5016 26.2946 36.5069 24.6678 36.6212 23.0489C36.6956 21.983 36.7727 20.5741 37.3921 19.6544C38.1045 18.5964 39.9573 18.9314 41.0578 18.9925C42.7138 19.0855 44.354 19.1281 46.01 19.1786C47.8974 19.2371 49.7873 19.4843 51.4434 20.4545C52.8868 21.2972 54.0804 22.5146 55.2021 23.7374C60.2182 29.1974 65.3512 34.6201 70.0642 40.3459C72.5416 43.3577 74.9314 46.5077 76.8878 49.8916C78.5519 52.7731 79.6896 55.8858 81.1862 58.8444C81.6965 59.8492 82.2654 60.9125 82.4515 62.0396C82.611 62.9966 82.385 63.2305 81.4387 63.0604C79.2802 62.6696 77.143 61.2235 75.3859 59.9609C68.2247 54.8066 62.1241 48.2382 56.3266 41.6378C53.3148 38.2087 50.3429 34.7398 47.2275 31.401C44.0669 28.0145 40.7547 24.7768 37.4798 21.4992C36.3182 20.3349 34.5133 22.1398 35.6749 23.3041L35.6855 23.3015Z" fill="#751FFF"/>
<path d="M60.6887 42.6347C62.4272 41.1939 63.8812 39.4847 65.4575 37.8765C67.0232 36.2762 68.7883 34.9418 70.5533 33.5728C71.917 32.5149 73.1929 31.4489 74.32 30.1437C74.8942 29.4792 76.2207 27.4962 77.1829 27.5626L75.9522 25.9464C75.7129 27.3659 73.6183 28.1953 72.5337 28.8758C70.6171 30.0799 68.6979 31.2416 66.6963 32.2996C64.6946 33.3575 62.8073 34.2188 61.0795 35.5346C60.3405 36.0981 59.6892 36.7016 59.1815 37.4831C58.61 38.3629 58.299 39.3917 57.5946 40.1838C56.5073 41.4092 58.3043 43.2195 59.3995 41.9887C60.088 41.2125 60.5133 40.3539 60.9997 39.4475C61.5952 38.3417 62.4219 37.6399 63.4665 36.9621C65.4629 35.6675 67.6692 34.7052 69.7452 33.5489C71.5847 32.5255 73.3604 31.3904 75.1441 30.274C76.4998 29.4234 78.1266 28.3255 78.4137 26.6243C78.5572 25.771 78.0708 25.0719 77.1829 25.0081C75.7236 24.9044 74.4689 26.1936 73.5545 27.1665C72.3237 28.477 71.2498 29.7636 69.8436 30.9013C67.927 32.4511 65.8908 33.8573 64.1311 35.5904C62.3714 37.3236 60.8004 39.2428 58.8864 40.8271C57.6211 41.8744 59.434 43.6714 60.6914 42.632L60.6887 42.6347Z" fill="#751FFF"/>
<path d="M39.9972 54.6205C39.0296 56.6646 37.541 58.2755 36.0099 59.9077C34.6675 61.3404 33.4792 62.837 32.3282 64.4266C31.4617 65.6228 30.3851 67.0078 30.2867 68.5415C30.1671 70.4049 31.6105 71.0908 33.1735 71.5028C34.2421 71.7846 35.3161 72.0637 36.3873 72.3321C37.0412 72.4943 37.65 72.6086 38.2773 72.279C39.0003 71.8989 39.4496 71.0482 39.9015 70.4103C40.6617 69.3363 41.4565 68.2837 42.1982 67.1965C43.4954 65.2932 44.2025 63.3846 44.3035 61.0746C44.3487 60.0326 44.2982 58.9906 44.2955 57.9486C44.2928 56.9065 44.5613 55.7422 44.2796 54.7135C43.8223 53.0468 42.0918 52.68 40.5767 52.5045C38.886 52.3078 37.5516 52.8634 36.3847 54.1074C35.0981 55.4817 34.2235 57.1777 32.9689 58.5812C31.6132 60.0991 30.1379 61.5026 28.7529 62.9938C27.368 64.4851 26.0681 66.0269 25.1085 67.7919C24.0506 69.7377 23.8725 71.7341 23.3063 73.834C22.7427 75.9181 21.403 78.0739 22.0675 80.2829C22.6125 82.0958 23.9974 83.8369 25.5843 84.847C27.4345 86.0246 29.7817 86.099 31.4616 84.5785C33.0353 83.1537 33.2878 80.8943 33.3384 78.8873C33.3915 76.7767 33.5351 74.4587 32.2272 72.6697C30.611 70.4608 27.8252 69.7298 25.8874 67.8982C24.6938 66.7712 22.8863 68.5708 24.0825 69.7032C25.3424 70.8941 26.8364 71.649 28.2877 72.5687C29.989 73.6453 30.7732 74.7724 30.7944 76.7873C30.8157 78.8022 31.0789 84.4509 27.5195 82.9889C26.209 82.452 25.058 81.0856 24.5769 79.7645C24.2951 78.9857 24.4945 78.3211 24.7497 77.5635C25.1218 76.4683 25.5418 75.3971 25.8316 74.2726C26.209 72.808 26.2888 71.2981 26.9028 69.8972C27.5621 68.39 28.5748 67.045 29.6461 65.8089C31.6158 63.5414 33.9205 61.569 35.7706 59.1979C36.5707 58.1718 37.2034 57.0129 38.07 56.04C39.0482 54.9421 39.8882 54.8411 41.2758 55.2053C41.9191 55.3727 41.927 55.3276 41.8367 55.9629C41.7224 56.763 41.7383 57.5791 41.7463 58.3818C41.7649 60.1496 41.9084 61.989 41.2731 63.677C40.6777 65.2533 39.4868 66.6409 38.5112 67.9886C38.0567 68.6186 37.6207 69.5357 37.0306 70.0381C37.3629 69.7537 37.4506 70.1152 37.0678 69.8706C36.685 69.6261 36.0152 69.5942 35.5952 69.4879C34.7897 69.2858 33.7504 69.1848 33.0008 68.8127C32.594 68.6106 32.8546 68.9031 32.8227 68.7648C32.7668 68.5256 32.9901 68.1534 33.0858 67.9461C33.6387 66.7499 34.5452 65.6733 35.3134 64.6074C37.4958 61.5877 40.574 59.3388 42.1982 55.9071C42.8973 54.4317 40.6963 53.1345 39.9945 54.6178L39.9972 54.6205Z" fill="#751FFF"/>
<path d="M31.4324 84.8976C33.5005 84.8976 35.5686 84.9055 37.6367 84.9029C39.1545 84.9029 40.8611 84.6769 42.3231 85.174C44.0084 85.7482 45.7123 87.0614 47.1504 88.0901C47.8176 88.5686 48.546 89.0869 49.0617 89.7355C49.0271 89.6903 49.3381 90.0811 49.2983 90.0651C50.0612 90.3629 48.9819 90.097 49.3461 90.0944C49.3727 90.0944 49.3514 89.7249 49.5162 89.7568C49.4392 89.7408 49.0271 89.9455 48.9367 89.9694C47.387 90.3974 45.6512 90.3974 44.0642 90.6951C42.1663 91.0513 40.2896 91.5059 38.4129 91.9604C34.7764 92.843 31.1161 93.768 27.3654 93.9568C25.5897 94.0471 23.8273 93.877 22.0542 93.8371C20.1217 93.7946 18.2636 94.1109 16.3603 94.3821C12.6601 94.9084 8.78444 94.5309 5.04966 94.6027C3.8508 94.6266 3.32448 94.6426 3.05865 93.3241C2.79283 92.0056 2.6998 90.4027 3.01612 89.1215C3.40422 87.5451 5.03105 86.3436 6.24053 85.3707C7.74508 84.1612 9.3533 83.1219 11.0785 82.2553C12.9366 81.3196 14.8478 80.8624 16.8282 80.2829C18.657 79.7486 20.4753 78.3105 22.4104 78.4541C24.0479 78.5763 24.0399 76.0218 22.4104 75.9022C20.3663 75.7507 18.8591 76.899 17.0196 77.5503C15.0392 78.252 12.9844 78.587 11.0519 79.4535C7.64407 80.9794 3.94118 83.2787 1.6498 86.3038C0.623731 87.6541 0.347277 89.1135 0.328669 90.7828C0.31272 92.314 0.352593 94.18 1.15272 95.5384C1.89967 96.8064 3.21549 97.1546 4.59776 97.1599C6.71104 97.1705 8.82697 97.1094 10.9429 97.1227C13.1545 97.136 15.2944 97.1067 17.4821 96.7718C19.6698 96.4369 21.9266 96.3704 24.234 96.4794C28.729 96.6921 33.0938 95.8574 37.4479 94.8127C39.6383 94.2864 41.8234 93.7281 44.0323 93.2869C45.9303 92.9068 48.009 92.9201 49.8565 92.3592C52.2143 91.6415 52.2994 89.5016 50.7975 87.8508C49.2079 86.1017 46.9776 84.855 44.968 83.6482C43.2588 82.6221 41.5894 82.3404 39.6197 82.3404C36.8924 82.3404 34.1624 82.3404 31.4351 82.3404C29.7923 82.3404 29.7896 84.8922 31.4351 84.8922L31.4324 84.8976Z" fill="#751FFF"/>
<path d="M77.2706 13.6736C79.057 13.732 80.8247 15.2685 82.199 16.2786C83.9082 17.5333 85.4101 18.9474 86.7153 20.6248C88.0204 22.3021 89.4878 24.2851 90.3198 26.3399C91.1678 28.4373 91.3645 30.6755 91.3831 32.9164C91.3964 34.5565 93.9483 34.5618 93.935 32.9164C93.9137 30.3831 93.6585 27.8392 92.7016 25.4707C91.7446 23.1022 90.1284 20.8587 88.5202 18.8199C86.912 16.781 85.2107 15.3296 83.2224 13.8809C81.4812 12.6129 79.5035 11.1961 77.2706 11.1217C75.6279 11.0685 75.6305 13.6204 77.2706 13.6736Z" fill="#751FFF"/>
<path d="M75.3115 2.79599C78.7114 2.39726 81.8454 5.51002 84.2564 7.49837C85.7796 8.75304 87.3825 9.89873 88.8471 11.2225C90.4102 12.6367 91.8562 14.1705 93.2571 15.7415C96.0748 18.9048 99.3577 22.0441 101.213 25.8932C103.069 29.7423 103.669 33.7137 104.36 37.7143C104.64 39.3305 107.101 38.6446 106.822 37.0364C106.064 32.661 105.256 28.2298 103.231 24.2318C102.258 22.3126 100.974 20.6804 99.5518 19.0855C97.9382 17.2753 96.3832 15.4092 94.7617 13.6043C91.8589 10.3746 88.576 7.75887 85.2399 5.0156C82.5312 2.78801 79.0915 -0.199817 75.3115 0.244105C73.7006 0.432838 73.682 2.98738 75.3115 2.79599Z" fill="#751FFF"/>
</svg>
