<svg width="85" height="99" viewBox="0 0 85 99" fill="none" xmlns="http://www.w3.org/2000/svg">
<path d="M42.0989 6.10534C44.583 10.1309 47.5875 13.6305 50.8465 17.0349C52.6033 18.8701 54.5447 22.3221 57.4792 22.1794C58.4248 22.1347 59.2472 21.0465 58.6374 20.1597C56.6624 17.2755 53.809 15.239 51.6242 12.5451C49.9849 10.5225 49.7387 7.56561 47.7469 5.81441C46.9273 5.09267 45.7272 4.60032 44.8488 5.51228C44.1858 6.20045 44.2138 7.2439 44.3312 8.1195C44.5494 9.76719 45.1929 12.5143 46.7902 13.4039C47.1902 13.6249 47.7497 13.6724 48.147 13.4039C49.2463 12.6542 49.6911 11.5799 50.3038 10.447C50.9975 9.16574 52.2508 8.24538 53.4369 7.44811C54.7014 6.60049 56.0945 5.91232 57.2778 4.9472C57.7646 4.54996 59.3255 2.68127 60.0221 2.96382C60.6543 3.22118 61.1215 5.23254 61.4152 5.81441C62.1062 7.18795 63.2168 8.73773 62.9846 10.3519C62.7524 11.966 61.2026 13.4207 60.2235 14.6515C59.1885 15.9523 58.2345 17.2671 57.5324 18.7805C56.8302 20.294 59.1241 21.7039 59.8514 20.1373C60.7159 18.2742 61.9887 16.7496 63.2475 15.1467C64.4169 13.6556 65.6589 12.0807 65.7065 10.0973C65.7513 8.19503 64.7917 6.50258 63.9469 4.86608C63.2951 3.60443 62.9314 1.96793 61.8404 0.997214C59.1773 -1.36942 56.3099 2.49944 54.2146 3.78906C52.5669 4.80453 50.8856 5.81441 49.4897 7.17117C48.8967 7.74744 48.3819 8.36567 47.9875 9.09301C47.6546 9.70845 47.3916 10.6764 46.793 11.0876H48.1498C48.2533 11.1463 47.9399 10.7323 47.8392 10.5337C47.6238 10.1085 47.4644 9.65809 47.3217 9.20491C47.179 8.75172 47.0504 8.30133 46.9888 7.84255C46.9692 7.69988 47.0028 7.36978 46.9496 7.25229C46.7846 6.89422 47.5287 7.06766 46.6783 7.49008L45.6432 7.62435C46.6056 7.96004 47.1035 9.59375 47.4588 10.4302C47.9735 11.6387 48.4407 12.7688 49.2408 13.8235C51.3584 16.6125 54.3433 18.6267 56.3267 21.5192L57.4848 19.4995C56.4386 19.5498 55.4147 18.1847 54.7909 17.4937C53.9013 16.509 53.0816 15.4824 52.1473 14.5396C49.2072 11.5771 46.614 8.30972 44.4236 4.75697C43.5172 3.28832 41.1925 4.63668 42.1045 6.11373L42.0989 6.10534Z" fill="#751FFF"/>
<path d="M42.3087 6.58085C38.9685 10.598 34.5766 13.608 31.5413 17.8909C30.842 18.8756 30.2153 19.9079 29.6251 20.9625C29.0852 21.9304 28.3494 22.9431 28.2292 24.076C28.0333 25.8916 29.5943 27.1532 30.8112 28.2554C32.4813 29.7688 33.7933 31.5088 35.178 33.2824C36.4368 34.8938 37.9531 36.9331 39.8078 37.8982C41.7772 38.9221 43.6319 37.6828 45.1481 36.4407C47.2462 34.7231 49.0589 32.6922 51.0815 30.8906C54.3824 27.9533 58.808 24.9153 59.3283 20.1568C59.5157 18.442 56.8274 18.4532 56.6428 20.1568C56.2847 23.4298 52.6173 26.0427 50.3178 28.012C48.7764 29.3296 47.3357 30.7396 45.881 32.1495C45.0921 32.916 44.2949 33.6769 43.4444 34.3762C42.8738 34.849 41.9506 35.7666 41.131 35.5539C40.5043 35.3889 39.8805 34.5273 39.4525 34.0937C38.7196 33.3496 38.0258 32.5803 37.374 31.7606C36.1431 30.2108 35.0269 28.5324 33.5946 27.1532C32.8897 26.4763 30.9007 25.251 30.9539 24.2411C30.9902 23.5333 31.8295 22.5179 32.1735 21.9108C32.6967 20.9961 33.2534 20.1037 33.8604 19.2449C36.7474 15.169 41.0219 12.31 44.2053 8.47752C45.3019 7.15712 43.4137 5.24647 42.3059 6.57805L42.3087 6.58085Z" fill="#751FFF"/>
<path d="M33.1918 28.3282C31.1749 30.3311 29.5356 32.7341 27.2753 34.4825C25.6555 35.7358 23.8008 37.1177 24.4694 39.434C24.682 40.1697 25.401 40.5138 26.1199 40.3712C28.1648 39.9655 29.8489 38.2591 31.0742 36.6701C31.6029 35.9876 32.0449 35.3078 32.2967 34.4742C32.4197 34.0685 32.5149 32.4712 32.9904 32.3257L31.3399 31.3886C31.9554 32.9328 29.337 34.7231 28.3103 35.5064C26.4332 36.9387 24.5422 38.3066 22.8217 39.9376C21.1992 41.4734 19.6382 43.163 18.2423 44.9142C17.2073 46.2122 16.0295 47.9578 16.6366 49.695C16.9359 50.5455 17.708 51.2896 18.5864 51.5246C19.8676 51.8686 20.9251 51.0266 22.1419 50.8895C23.5966 50.7245 25.18 50.9735 26.6486 50.9539C28.2991 50.9315 29.9524 50.8756 31.6001 50.8028C38.3979 50.5091 45.1705 50.3161 51.9711 50.193C58.5339 50.0727 65.1274 49.8992 71.665 50.6546C73.0106 50.8084 74.3394 51.0742 75.685 51.2224C76.9214 51.3567 78.1775 51.3455 79.4028 51.5749C79.8923 51.6672 81.4421 51.961 81.4897 52.6603C81.4757 52.4421 81.2938 52.8254 81.1316 52.9485C80.7567 53.2338 80.3175 53.4492 79.9007 53.6562C75.1003 56.0312 69.9754 57.8496 64.6798 58.7392C61.4796 59.2763 58.2345 59.2987 55.0119 59.5812C51.627 59.8749 48.284 60.2358 44.8823 60.2694C41.1562 60.3057 37.4272 60.2386 33.701 60.2106C29.9748 60.1826 26.1339 60.5687 22.4776 59.8693C20.7712 59.542 19.0955 59.0944 17.3667 58.8818C16.0743 58.7224 14.7707 58.7224 13.4727 58.6217C11.162 58.4398 8.53799 57.9195 7.53931 55.5417L7.40503 56.5767C7.97571 55.7963 9.14504 55.5389 9.9563 55.0885C11.0417 54.4815 11.9649 53.631 13.1006 53.1051C15.3218 52.0729 17.8199 51.3875 20.1614 50.6825C22.7602 49.902 25.4961 49.1719 28.2124 49.0376C30.7385 48.9117 33.1359 48.618 35.6312 48.218C41.0163 47.3592 46.4405 47.5158 51.8592 47.0263C56.7827 46.5815 61.7201 47.0515 66.638 46.6598C68.1319 46.5423 70.2076 46.0779 71.6483 46.615C71.9084 46.713 72.2861 46.9871 72.3308 47.0878C72.4064 47.2501 72.3252 47.3676 72.1658 47.6669C71.0776 49.7398 68.2773 51.1833 66.3191 52.2715C63.5469 53.8129 60.7466 54.3696 57.6107 55.1137C52.3207 56.3697 46.9469 57.5195 41.8052 59.3182C36.9124 61.0303 32.3386 63.4948 27.6501 65.6796C24.2093 67.2826 20.0299 69.1708 18.4857 72.897C17.9766 74.1251 19.5375 74.8077 20.4579 74.4132C21.879 73.8034 22.8021 72.4215 23.6302 71.1794C24.1701 70.3737 25.1268 68.2421 26.2654 68.1693L25.1072 66.1496C23.7673 68.0658 21.4818 69.1596 19.8201 70.771C18.3766 72.1753 16.6226 73.6915 16.0715 75.7028C15.7694 76.8078 17.0366 77.8457 18.0437 77.2191C19.2606 76.461 20.2649 75.4763 21.0342 74.265C21.4957 73.5376 21.0482 72.5054 20.2313 72.2928L19.7697 72.1725C18.0969 71.7389 17.3807 74.3265 19.0564 74.7629L19.518 74.8832L18.7151 72.911C18.1948 73.7307 17.5122 74.388 16.6897 74.9L18.6619 76.4162C19.1403 74.6762 21.2216 73.0369 22.5504 71.8927C24.2456 70.4325 26.1199 69.3722 27.4291 67.5035C27.9998 66.6867 27.2445 65.4223 26.271 65.4838C24.4834 65.5985 23.3672 66.8378 22.3881 68.2169C21.409 69.596 20.6733 71.4228 19.1095 72.0941L21.0817 73.6104C21.8314 71.806 23.9715 70.6199 25.5828 69.7163C27.4095 68.6953 29.3342 67.8756 31.2196 66.9692C33.9332 65.6628 36.6131 64.2809 39.391 63.1144C42.3954 61.8527 45.5062 60.924 48.6505 60.0847C51.7752 59.2511 54.9224 58.5126 58.0667 57.7657C60.2375 57.2509 62.5706 56.9124 64.6435 56.0732C67.4241 54.9458 70.146 53.3233 72.4232 51.3707C74.3394 49.7286 76.3703 46.7857 73.7519 44.7548C72.2945 43.6218 70.3251 43.7281 68.5767 43.8288C66.1177 43.9687 63.7063 44.0722 61.2362 44.0722C58.0079 44.0722 54.8161 44.0722 51.5962 44.3631C48.3764 44.654 45.26 44.6596 42.0737 44.8163C38.8874 44.973 35.9165 45.4541 32.8673 45.9744C29.8181 46.4948 26.8193 46.3101 23.8176 46.9871C20.816 47.6641 17.8731 48.5761 14.9413 49.5636C13.6349 50.0028 12.2698 50.4336 11.0753 51.1301C9.88076 51.8267 8.82613 52.6799 7.55889 53.2758C6.66091 53.6954 5.55033 54.2772 5.09155 55.2172C4.5908 56.2494 5.44962 57.4719 6.08464 58.2692C7.39384 59.9085 9.37723 60.7225 11.4026 61.0582C13.6965 61.4387 16.0379 61.3016 18.3234 61.7296C21.3419 62.2975 24.1785 62.9353 27.2725 62.9185C33.7765 62.885 40.2945 63.0892 46.7986 62.9241C50.1024 62.8402 53.3698 62.3479 56.6652 62.1381C59.7563 61.9394 62.8475 61.7968 65.9023 61.2401C71.1615 60.2778 76.057 58.3923 80.8798 56.1599C82.2757 55.5137 83.9962 54.5598 84.164 52.8533C84.3486 50.9483 82.4464 49.6139 80.8295 49.1467C78.6195 48.5061 76.1438 48.5817 73.8694 48.2516C70.7727 47.804 67.6535 47.5662 64.526 47.4655C58.0415 47.2613 51.5431 47.5298 45.0558 47.5802C38.5685 47.6305 31.8742 48.3047 25.2751 48.2767C23.9827 48.2711 22.6259 48.0445 21.3447 48.2851C20.7908 48.3886 19.2914 49.3286 19.1655 48.6516C19.0564 48.0753 19.9292 47.0962 20.2453 46.6934C20.7181 46.0947 21.2524 45.5464 21.7587 44.9757C23.7113 42.777 25.773 40.718 28.1369 38.9529C29.5971 37.8619 31.1385 36.838 32.3778 35.484C33.5443 34.2084 34.6437 32.4488 33.9388 30.678C33.6758 30.0206 33.0436 29.5059 32.2883 29.7409C30.3189 30.3507 30.2825 32.1047 29.7202 33.7664C29.1551 35.4309 27.1522 37.4422 25.4206 37.7863L27.071 38.7235C26.8584 37.9821 27.8739 37.3891 28.3942 36.9863C29.1943 36.3708 29.9692 35.7638 30.6881 35.0504C32.2379 33.5146 33.5527 31.7662 35.1025 30.2304C36.3306 29.0108 34.4311 27.1113 33.203 28.331L33.1918 28.3282Z" fill="#751FFF"/>
<path d="M11.3355 75.465C16.0716 76.3882 20.3516 78.752 25.001 79.9773C25.9969 80.2403 28.6461 80.6403 28.6405 81.9887C28.6321 83.4909 26.7102 85.1777 25.5465 85.8715C23.9827 86.8031 21.6636 86.445 19.96 86.1429C17.6773 85.7344 15.5568 84.5343 13.2769 84.2434C12.281 84.1175 11.2767 84.207 10.306 83.9049C9.19265 83.5608 8.23313 83.2028 7.04142 83.2559C6.15183 83.2979 4.46497 83.7986 3.80478 82.9482C3.38516 82.4083 3.66211 81.4739 3.82436 80.8865C4.22719 79.4374 4.89578 78.0471 5.72102 76.7882C6.16302 76.1112 6.67775 75.3867 7.32955 74.8971C7.98136 74.4076 8.1492 74.4859 8.63876 75.1154C9.69899 76.4777 11.5873 74.5643 10.5382 73.2159C7.503 69.3219 3.58937 74.6398 2.32213 77.3533C1.46612 79.1912 0.461835 81.5075 1.13322 83.5524C1.46891 84.5707 2.26339 85.326 3.24249 85.7232C4.85382 86.3778 6.39801 85.6897 8.02052 85.9918C9.3521 86.238 10.4683 86.7583 11.8586 86.8338C13.5315 86.9233 14.9386 87.55 16.5303 88.0367C19.1599 88.8424 22.0805 89.3991 24.8275 88.9459C28.2292 88.3864 33.7206 82.7859 30.3217 79.4402C28.537 77.6834 25.6332 77.4792 23.3673 76.7043C19.5935 75.4147 15.9904 73.6411 12.0516 72.8718C10.362 72.5417 9.64024 75.1293 11.3383 75.4622L11.3355 75.465Z" fill="#751FFF"/>
<path d="M1.2311 85.396C1.2255 86.7639 1.19473 88.1319 1.20592 89.497C1.21431 90.4062 1.18914 91.4189 1.64512 92.2413C2.34728 93.517 3.71523 93.696 5.03282 93.7352C7.34071 93.8051 9.48355 94.4513 11.7439 94.8374C13.5958 95.1535 14.9693 95.6738 16.6058 96.5438C18.9641 97.7971 22.7127 99.4391 24.503 96.4207C25.4877 94.7646 25.443 92.7001 25.7003 90.851C26.0192 88.5627 27.3732 86.6241 27.7173 84.347C27.9718 82.6573 25.387 81.9272 25.1268 83.6336C24.8443 85.4911 23.8316 87.0717 23.3561 88.8676C22.9504 90.395 22.9812 91.998 22.6707 93.5421C22.3826 94.9716 22.0217 95.7241 20.4999 95.3325C19.3054 95.0248 18.2144 94.359 17.1401 93.7771C15.9317 93.1225 14.7371 92.6582 13.3776 92.4008C11.5481 92.0567 9.72693 91.5811 7.89181 91.2846C7.05537 91.1503 6.21894 91.0776 5.37131 91.0524C5.12793 91.0468 4.15722 91.1028 4.02015 90.9769C3.67047 90.6552 3.88867 89.0551 3.88867 88.6718C3.88867 87.578 3.91105 86.4842 3.91664 85.3904C3.92224 83.6616 1.23669 83.6588 1.2311 85.3904V85.396Z" fill="#751FFF"/>
</svg>
