<svg width="78" height="65" viewBox="0 0 78 65" fill="none" xmlns="http://www.w3.org/2000/svg">
<path d="M6.70033 25.9616C11.4612 28.774 14.8876 33.4073 18.8723 37.1527C20.8792 39.04 22.9287 40.8875 24.8081 42.9051C25.7491 43.9179 26.621 44.9758 27.445 46.0843C28.0245 46.8605 28.5934 47.6845 29.3749 48.2747C30.8927 49.4204 32.5647 48.9047 34.0852 48.0407C36.5388 46.6478 38.9072 45.4463 41.5841 44.5239C47.2726 42.5675 53.0436 41.1905 58.8598 39.6886C62.0922 38.854 65.2049 37.6551 68.4267 36.8018C69.8568 36.4244 71.1673 35.7678 72.5788 35.3637C73.8734 34.9942 75.2423 34.9331 76.5661 34.7178C76.9782 34.6513 77.3663 34.2207 77.4566 33.8273C78.1052 31.0229 75.6544 28.4683 73.8308 26.674C71.6564 24.5315 69.2374 22.7027 67.164 20.4538C63.8014 16.8094 60.5929 13.0587 57.1399 9.49666C55.7311 8.04262 54.8193 6.41845 53.6949 4.7677C52.5704 3.11695 51.151 1.95531 49.4338 1.00101C48.8011 0.647472 48.0834 0.878736 47.6873 1.45823C45.9701 3.97821 43.0673 5.31795 40.3028 6.36795C37.1953 7.54819 34.0719 8.65667 30.9884 9.914C27.453 11.3548 23.9388 12.8699 20.5709 14.6749C17.0328 16.5702 13.5585 18.609 10.0576 20.5708C8.67272 21.347 7.3064 22.1444 5.9002 22.8808C4.49401 23.6171 2.97351 24.3561 2.07504 25.6692C0.304667 28.253 1.66567 31.7486 1.42112 34.6247C1.28023 36.2941 0.403021 37.78 0.296692 39.4707C0.203655 40.954 0.480109 42.4452 1.0915 43.7956C2.32757 46.5389 4.82097 48.4342 7.11235 50.263C8.64614 51.4884 10.2703 52.5491 11.9104 53.6257C13.7472 54.8298 15.2465 56.3264 16.9663 57.6635C18.5905 58.9288 20.4991 59.7369 22.3599 60.5822C24.0026 61.3265 25.4328 62.6822 27.2297 63.0437C27.8438 63.166 28.3089 62.9427 28.6705 62.4562C30.1351 60.4838 29.9039 57.8389 29.7842 55.5236C29.6168 52.3524 29.7364 49.1519 29.7364 45.9753C29.7364 44.3325 27.1845 44.3299 27.1845 45.9753C27.1845 48.9206 27.0968 51.8792 27.1978 54.8218C27.2696 56.8846 27.7879 59.3887 26.4668 61.167L27.9075 60.5795C26.4907 60.2951 25.3716 59.1946 24.093 58.5726C22.3439 57.722 20.4965 57.0521 18.8909 55.933C17.5325 54.984 16.4267 53.7081 15.0896 52.7219C13.726 51.7144 12.2666 50.8452 10.8631 49.8935C8.44677 48.2561 5.57856 46.2225 3.96237 43.7371C3.21009 42.5781 2.80339 41.2756 2.83529 39.888C2.86984 38.3117 3.66731 36.9241 3.89325 35.3797C4.1192 33.8353 3.87996 32.2829 3.82148 30.7411C3.763 29.1993 3.45199 27.538 4.83692 26.4561C5.88426 25.64 7.16817 25.1216 8.32715 24.489C9.93271 23.6118 11.509 22.6814 13.1093 21.7962C16.4586 19.9408 19.7442 17.9418 23.1573 16.2033C26.3658 14.5685 29.6859 13.1703 33.0246 11.8306C36.1294 10.5839 39.3219 9.55248 42.4081 8.26591C45.3507 7.04047 48.0701 5.43226 49.8963 2.74746L48.1498 3.20467C49.7554 4.09783 50.9489 5.13454 51.9112 6.71086C52.8735 8.28718 53.8145 9.69071 55.0612 11.0118C58.2218 14.3559 61.2974 17.7371 64.3703 21.1636C66.3745 23.3991 68.541 25.2705 70.7579 27.2801C71.8292 28.2504 72.9058 29.2631 73.7989 30.4062C74.3359 31.092 75.2211 32.2005 75.0004 33.1521L75.8909 32.2616C74.7904 32.4397 73.6713 32.5115 72.5788 32.7401C71.3481 33.0006 70.2449 33.5907 69.0567 33.9761C67.8685 34.3616 66.5553 34.6141 65.3325 35.0341C63.9157 35.5206 62.5095 36.0177 61.0714 36.4403C55.4068 38.0964 49.5932 39.1517 43.9897 41.0337C41.4219 41.8976 38.8275 42.7084 36.366 43.8541C35.2469 44.3751 34.2049 44.9997 33.1469 45.6324C32.5754 45.9753 31.762 46.5973 31.0682 46.3554C30.3744 46.1135 29.8108 45.013 29.4094 44.4734C28.6279 43.4234 27.8039 42.408 26.9214 41.4404C25.0633 39.4042 23.0218 37.5488 21.0121 35.6668C16.7457 31.6715 13.08 26.7697 7.99222 23.7633C6.57539 22.926 5.28882 25.1323 6.70299 25.9669L6.70033 25.9616Z" fill="#751FFF"/>
<path d="M27.4955 64.5192C31.4137 64.272 34.3245 61.651 37.6499 59.9152C39.601 58.8971 41.6744 58.1395 43.5857 57.0416C45.4969 55.9438 47.2859 54.9443 49.2743 54.1096C53.2323 52.4429 57.2941 50.9889 61.2894 49.4099C65.2847 47.8309 69.1949 46.3796 72.8074 44.2663C74.3837 43.3439 75.5799 42.0679 75.8803 40.2178C76.2418 37.9929 75.8218 35.7334 75.7899 33.5005C75.7687 31.8604 73.2168 31.8551 73.2381 33.5005C73.262 35.2895 73.5331 37.0732 73.4587 38.8621C73.3843 40.6511 72.5017 41.5602 70.9068 42.4002C67.3634 44.2663 63.6419 45.7575 59.9204 47.2249C56.1989 48.6922 52.5173 50.0319 48.8622 51.5391C45.2072 53.0464 42.1556 55.0347 38.6919 56.6057C36.7009 57.5068 34.9013 58.6047 33.0459 59.7424C31.3739 60.7685 29.4945 61.8477 27.4929 61.9726C25.8607 62.0763 25.8501 64.6282 27.4929 64.5245L27.4955 64.5192Z" fill="#751FFF"/>
<path d="M21.4667 26.4404C21.1636 28.5537 22.0382 30.4756 23.0589 32.2779C24.0371 34.0057 25.0499 35.6751 25.9617 37.4401C26.7618 38.9872 28.2052 40.7283 30.1643 40.1036C31.9294 39.5401 32.9342 37.5677 34.1543 36.3183C35.3027 35.1408 33.4977 33.3358 32.3494 34.5134C31.5041 35.3827 30.7252 37.0015 29.6141 37.5331C28.7342 37.9558 27.9819 35.7654 27.6576 35.0876C27.0542 33.8249 26.2488 32.6766 25.539 31.4724C24.8293 30.2682 23.7128 28.5936 23.9255 27.1183C24.1568 25.5127 21.6979 24.8189 21.464 26.4404H21.4667Z" fill="#751FFF"/>
<path d="M25.8474 32.8759C25.8766 32.751 25.9112 32.6287 25.9511 32.5064C25.967 32.4559 25.9856 32.4081 26.0042 32.3602C25.9484 32.4931 25.9378 32.5197 25.9803 32.4373C26.0468 32.3708 26.0999 32.2326 26.1504 32.1502C26.0468 32.3177 26.0787 32.2353 26.185 32.1263C26.2727 32.0386 26.4322 31.9774 26.2036 32.0944C26.2834 32.0545 26.3631 32.0013 26.4375 31.9535C26.6608 31.8179 26.2382 31.9934 26.4827 31.9402C26.613 31.911 26.7406 31.8711 26.8735 31.8472C27.5327 31.7275 27.9633 30.8929 27.764 30.2788C27.5354 29.5717 26.9001 29.2581 26.1956 29.3883C24.7336 29.6541 23.7262 30.7865 23.3859 32.1981C23.2291 32.8467 23.5906 33.6122 24.2764 33.7664C24.9622 33.9206 25.6799 33.5697 25.8447 32.8759H25.8474Z" fill="#751FFF"/>
<path d="M20.3556 26.3978C21.4268 26.552 22.4183 26.5494 23.463 26.2144C24.319 25.9406 25.1058 25.5711 26.0016 25.4382C26.8974 25.3053 27.3254 24.2367 27.1154 23.4765C26.8655 22.5647 26.0096 22.2351 25.1536 22.3627C23.8485 22.5594 22.5459 23.5137 21.2035 23.3223C20.3529 23.2 19.489 23.5323 19.2418 24.4361C19.0371 25.1857 19.497 26.2756 20.3556 26.3978Z" fill="#751FFF"/>
<path d="M34.2686 17.2429C31.9001 19.3456 25.7597 26.5733 30.1936 29.3112C32.6152 30.8051 35.3372 27.4824 37.0969 26.1985C38.8567 24.9145 44.1598 24.2314 44.7632 27.2538C45.1673 29.2767 43.3172 30.9726 41.6053 31.5627C39.8934 32.1529 37.9635 32.1954 36.1293 32.2193C34.4892 32.2406 34.4839 34.7925 36.1293 34.7712C39.375 34.7287 43.2773 34.5639 45.6192 31.9694C48.0089 29.3165 47.9743 25.0873 44.5373 23.4047C41.5946 21.9639 37.8386 22.3919 35.292 24.3962C34.1197 25.3186 32.9927 26.241 31.7327 27.0385C31.4509 27.2166 31.3791 27.0996 31.6609 27.2139C31.5386 27.1634 31.3392 27.0411 31.3073 26.8976C31.2196 26.4988 31.2808 26.1506 31.3844 25.7599C32.0437 23.2904 34.1809 20.7252 36.0709 19.0479C37.3016 17.9553 35.4914 16.1557 34.2659 17.2429H34.2686Z" fill="#751FFF"/>
<path d="M46.5177 15.4326C46.3157 15.2093 46.2864 15.9722 46.1987 16.2381C46.0259 16.7803 45.792 17.2987 45.5661 17.8224C45.1514 18.7873 44.7659 19.7522 44.5825 20.7916C44.1439 23.285 45.3561 24.9809 47.2886 26.4217C49.4151 28.006 51.858 29.6328 54.6252 29.0134C57.3924 28.3941 59.1575 26.2755 58.7747 23.4737C58.6578 22.6125 57.5652 22.1606 56.813 22.3599C55.8906 22.6045 55.5822 23.4737 55.6992 24.3217C55.8028 25.0899 54.8778 25.5923 54.285 25.8023C53.3413 26.1399 52.5359 25.9246 51.6693 25.4727C50.4891 24.8586 47.9877 23.6226 47.6714 22.1845C47.3816 20.8793 48.4529 19.178 48.926 18.0111C49.5746 16.4108 50.0478 14.5873 48.7719 13.1731C47.3949 11.6447 45.1434 13.9068 46.515 15.43L46.5177 15.4326Z" fill="#751FFF"/>
</svg>
