<svg width="65" height="64" viewBox="0 0 65 64" fill="none" xmlns="http://www.w3.org/2000/svg">
<path d="M14.7648 1.81752C26.9016 1.81752 39.0384 1.81752 51.1752 1.81752C53.3125 1.81752 55.8094 1.40598 57.8952 1.95275C66.8566 4.30178 62.1555 21.9771 61.6218 28.5926C61.2584 33.0973 61.7623 37.6239 61.1942 42.1154C60.8098 45.1541 61.1049 52.1896 58.2618 54.0154C54.6818 56.3145 49.0933 56.1957 45.1883 56.72C37.7335 57.7207 30.3294 58.7394 22.9816 60.4725C20.1133 61.1491 17.3766 61.4529 14.4594 61.4529C13.3152 61.4529 11.7972 61.8913 11.1299 60.6416C9.20497 57.0362 7.40216 52.6331 6.63969 48.5387C5.48328 42.3289 4.50931 35.988 3.49349 29.742C2.82187 25.6125 1.63367 21.5166 1.56911 17.3011C1.45745 10.0095 2.86434 5.68242 9.14443 3.03457C11.276 2.13583 13.6036 2.42605 15.8645 2.42605" stroke="#751FFF" stroke-width="3" stroke-linecap="round"/>
<path d="M29.9598 24.3329C23.7929 24.3329 19.9783 30.2632 22.5223 36.1991C24.5133 40.8448 32.4993 46.4939 37.7354 43.1971C39.2278 42.2575 39.1387 39.8156 39.0201 38.3627C38.6305 33.59 37.4495 23.8254 32.4277 21.6283C27.6352 19.5316 26.1521 27.0279 24.4831 29.8096" stroke="#751FFF" stroke-width="3" stroke-linecap="round"/>
<path d="M43.9558 16.4224C43.0226 15.9039 42.3342 15.2739 41.5217 14.5968" stroke="#751FFF" stroke-width="3" stroke-linecap="round"/>
</svg>
