<svg width="44" height="118" viewBox="0 0 44 118" fill="none" xmlns="http://www.w3.org/2000/svg">
<path d="M2.98449 20.4756C4.59582 20.4868 6.06727 21.0519 7.64223 21.3036C9.21719 21.5554 10.683 21.5806 12.1993 21.4043C15.1198 21.0631 17.7074 19.8126 19.7999 17.7481C21.0308 16.5312 19.1341 14.6345 17.9004 15.8486C15.9842 17.7397 13.5924 18.7216 10.9068 18.8167C8.2213 18.9118 5.68682 17.8068 2.98729 17.7873C1.25847 17.7733 1.25847 20.4588 2.98729 20.4728L2.98449 20.4756Z" fill="#751FFF"/>
<path d="M1.17456 20.0672C1.19415 23.2675 1.38997 26.5097 1.66132 29.6988C1.91589 32.6837 2.68239 35.5035 2.64882 38.5275C2.61525 41.5516 2.48097 44.6791 2.20962 47.7647C1.93827 50.8503 2.05856 53.9274 2.09213 57.0018C2.12569 60.0762 2.05856 63.3352 2.31872 66.4936C2.5565 69.4113 2.45859 72.3906 2.90898 75.2831C3.35937 78.1757 4.21818 81.0347 5.93301 83.4461C7.30376 85.3707 8.8955 87.6226 10.9992 88.7836C11.9839 89.3263 13.0609 89.6871 14.1127 90.0704C15.4975 90.5739 16.8318 91.181 18.2529 91.5782C21.0476 92.3587 23.8534 92.3699 26.732 92.3027C28.1895 92.2692 29.6301 92.1489 31.0764 91.9587C32.1059 91.8216 33.1829 91.8272 34.1872 91.5474C36.6014 90.8705 37.0713 88.5038 37.8183 86.4141C38.8421 83.5412 38.9764 80.9228 38.8785 77.8987C38.7806 74.8747 38.926 72.0745 38.4533 69.1595C37.9805 66.2446 37.5553 63.3576 36.9594 60.4511C36.3972 57.7096 35.3733 55.0492 34.1172 52.5483C32.7241 49.7733 30.9365 47.152 29.1881 44.5896C27.4397 42.0271 26.0298 39.0087 24.6731 36.1385C23.1653 32.9438 21.9819 29.6848 20.986 26.2971C20.5049 24.6662 19.8922 23.0325 19.5258 21.3736C19.1593 19.7147 19.2516 18.0111 19.2544 16.3354C19.2572 14.6598 16.5745 14.6038 16.5689 16.3354C16.5605 19.1469 16.7619 21.5974 17.59 24.2942C18.418 26.9909 19.1369 29.752 20.1496 32.4039C22.0687 37.4142 24.4605 42.5167 27.5432 46.9143C30.4778 51.102 33.2668 55.8857 34.3187 60.9294C34.8865 63.657 35.3089 66.3481 35.7314 69.098C36.1706 71.9654 36.1034 74.7516 36.1817 77.6414C36.2153 78.9198 36.3076 80.201 36.2433 81.4795C36.1678 82.9453 35.7174 84.3244 35.225 85.698C34.9173 86.5596 34.6488 88.2884 33.8375 88.8143C33.1409 89.2647 31.9576 89.1584 31.1659 89.2535C28.3181 89.6032 25.4032 89.785 22.533 89.6228C19.8643 89.4717 17.4864 88.4619 15.0163 87.5499C13.9924 87.1722 12.935 86.8477 12.0035 86.2631C10.9236 85.5805 10.1544 84.4671 9.34869 83.4964C7.50238 81.2696 6.34983 78.9086 5.75957 76.0692C5.16931 73.2298 5.37352 70.3848 5.09378 67.5314C4.81404 64.678 4.79725 61.8078 4.78606 58.9377C4.77487 55.6451 4.61542 52.3357 4.79445 49.0431C4.9679 45.8708 5.23645 42.7405 5.30639 39.5626C5.33996 38.0128 5.36233 36.4574 5.17211 34.9132C4.98188 33.3691 4.57905 31.7941 4.39162 30.2191C3.99439 26.893 3.8713 23.4158 3.85172 20.0672C3.84053 18.3384 1.15498 18.3356 1.16617 20.0672H1.17456Z" fill="#751FFF"/>
<path d="M3.39293 17.7336C3.39293 14.2984 3.30621 10.8519 3.38453 7.41668C3.40691 6.43199 3.33698 4.82905 3.98598 4.0094C4.63499 3.18975 6.38899 3.50866 7.21423 3.86114C8.49546 4.40664 9.62563 5.45568 10.7754 6.23337C12.0286 7.08379 13.2931 7.92582 14.3785 8.98605C16.7535 11.3051 17.4501 14.5278 17.506 17.7364C17.5368 19.4625 20.2223 19.4681 20.1916 17.7364C20.1216 13.8284 19.1593 9.90081 16.2779 7.08938C14.9799 5.82214 13.4497 4.81227 11.9531 3.7968C10.4565 2.78132 9.0018 1.43296 7.17227 1.03852C5.76516 0.739193 3.96081 0.719611 2.70755 1.52248C1.4543 2.32534 1.06266 3.9003 0.869634 5.25147C0.643041 6.83761 0.696193 8.43495 0.704585 10.0295C0.718572 12.5975 0.71018 15.1656 0.707383 17.7336C0.707383 19.4625 3.39293 19.4653 3.39293 17.7336Z" fill="#751FFF"/>
<path d="M3.97484 81.1885C3.96924 84.6713 3.81818 88.3332 5.20012 91.6062C5.85192 93.1532 6.61562 94.5687 7.03524 96.208C7.45485 97.8473 7.9528 99.467 8.51788 101.078C9.5949 104.158 10.9628 107.048 12.991 109.605C14.7002 111.759 16.3871 114.151 18.625 115.793C21.2798 117.737 24.1863 117.497 27.3223 117.499C29.2665 117.499 31.2079 117.522 33.1493 117.524C34.3522 117.524 35.6307 117.597 36.7888 117.203C39.48 116.285 41.4801 112.802 42.2075 110.229C42.6634 108.623 42.7082 106.824 42.9432 105.174C43.1782 103.523 43.2509 101.8 42.8872 100.175C41.9949 96.1884 42.904 92.2776 42.546 88.2689C42.2382 84.8084 39.8604 81.8711 39.7877 78.3883C39.7513 76.6623 37.0658 76.6567 37.1021 78.3883C37.1609 81.1773 38.4617 83.5384 39.3289 86.1232C40.2996 89.0186 39.7401 92.0985 39.7038 95.0946C39.687 96.5661 39.6982 98.0711 39.9639 99.523C40.2493 101.076 40.5178 102.427 40.3891 104.03C40.1178 107.437 39.6646 110.76 37.4099 113.468C35.6726 115.555 32.5283 114.839 30.0917 114.825C28.5196 114.817 26.9474 114.805 25.3725 114.819C23.929 114.831 22.5582 114.903 21.2239 114.254C19.0335 113.191 17.5452 110.976 16.0486 109.141C15.1506 108.038 14.1855 106.947 13.447 105.728C12.6385 104.396 11.9951 102.723 11.43 101.269C10.2551 98.2333 9.74316 94.9659 8.34164 92.0314C6.66038 88.5122 6.64919 85.0182 6.65758 81.1857C6.66038 79.4569 3.97484 79.4541 3.97204 81.1857L3.97484 81.1885Z" fill="#751FFF"/>
<path d="M6.71619 78.7996C8.47578 78.7744 10.2633 78.4863 11.9082 79.2584C13.3321 79.9269 14.5938 80.8445 16.1855 81.0935C19.1228 81.5551 21.6769 79.5773 23.2043 77.2134C23.9568 76.0497 24.0575 74.637 24.0156 73.2858C23.9736 71.8675 23.9848 70.4073 23.3246 69.1148C22.0266 66.572 19.0613 65.0977 16.7982 63.5563C14.107 61.724 12.1488 59.486 11.069 56.3669C10.6942 55.2815 9.95563 53.2841 11.3683 52.7078C12.3195 52.319 14.3756 51.8742 15.3687 52.2407C18.0738 53.2394 16.8177 58.7615 17.1059 60.854C17.3017 62.2807 18.0374 63.657 18.4794 65.0194C19.0585 66.8014 19.8166 68.3316 20.9328 69.8422C22.1329 71.4731 23.526 72.925 24.3261 74.8076C25.0059 76.4078 25.736 77.8401 27.0732 79.001C28.3124 80.0752 29.6244 80.5256 31.2358 80.6711C32.3212 80.769 34.2234 80.9172 34.9592 81.8684C35.9998 83.2167 38.3357 81.8824 37.2782 80.5116C36.5061 79.5129 35.5382 78.9367 34.3493 78.5394C33.0149 78.0946 31.5743 78.2429 30.2623 77.8261C28.8551 77.3813 27.8397 76.0805 27.2242 74.802C26.8662 74.0579 26.6116 73.269 26.2339 72.5333C25.764 71.6213 25.087 70.8381 24.4548 70.0352C23.333 68.6113 22.1329 67.1762 21.4699 65.467C21.1118 64.5438 20.8712 63.5815 20.5244 62.6555C20.2586 61.9478 19.8754 61.254 19.7495 60.5015C19.2319 57.4103 20.3901 54.1765 18.4235 51.3847C16.6275 48.8306 13.5783 49.4236 10.9487 50.0447C7.92469 50.758 7.49668 53.796 8.27437 56.4228C9.19193 59.5224 10.9151 62.3814 13.4496 64.4095C14.5378 65.2823 15.7044 66.0432 16.8681 66.8125C18.1885 67.6881 19.8278 68.6225 20.7314 69.9709C21.5454 71.1849 21.523 73.3669 21.2965 74.7713C21.0419 76.349 19.0473 78.296 17.4528 78.4863C15.6736 78.6961 14.1042 77.2442 12.5517 76.6036C10.6858 75.8315 8.68839 76.0861 6.72179 76.1112C4.99576 76.1336 4.99017 78.8192 6.72179 78.7968L6.71619 78.7996Z" fill="#751FFF"/>
<path d="M9.57244 36.8631C9.53887 39.1514 8.72202 42.6454 10.9879 44.17C11.802 44.7183 13.0329 44.9896 13.9784 44.6511C15.0135 44.2819 15.2764 43.3084 15.6009 42.3684C16.4262 39.9654 17.5451 37.361 15.931 35.0139C15.3771 34.2083 14.5323 33.7131 13.5364 33.9174C12.728 34.0824 12.2412 34.6894 11.3796 34.5859C9.66755 34.3761 9.68434 37.0645 11.3796 37.2715C11.9894 37.347 13.6763 37.2043 14.0511 36.5693C14.1994 36.4742 14.0623 36.4239 13.6399 36.4239L13.7994 36.6644C13.8078 36.975 14.0819 37.361 14.0959 37.7219C14.1295 38.5247 13.8301 39.3416 13.5756 40.0913C13.4021 40.6004 12.8762 41.4453 12.9014 41.9824L12.8091 42.2705C13.1783 42.1474 13.2147 42.0831 12.9238 42.0803C12.7112 41.9628 12.4986 41.9992 12.3251 41.781C11.9307 41.283 12.1321 40.013 12.1517 39.4311C12.1797 38.5751 12.2412 37.7191 12.2552 36.8631C12.2804 35.1342 9.59482 35.1342 9.56964 36.8631H9.57244Z" fill="#751FFF"/>
</svg>
