<svg width="107" height="77" viewBox="0 0 107 77" fill="none" xmlns="http://www.w3.org/2000/svg">
<path d="M13.4108 14.7136C13.4108 22.9913 13.7271 31.3434 13.3151 39.6131C13.1556 42.8242 12.8366 46.3835 14.1392 49.4139C15.3486 52.2263 18.1026 52.4575 20.8033 52.7579C29.0969 53.6777 37.4517 53.5341 45.7799 53.4491C54.108 53.364 62.609 53.1487 70.8761 54.3316C73.1169 54.6532 75.3286 55.1636 77.5747 55.456C79.6668 55.7271 81.7854 55.7803 83.8854 55.9797C86.1475 56.1923 88.3857 56.2455 90.6585 56.2455C92.3863 56.2455 94.3933 56.7001 96.0573 56.1285C96.6474 55.9265 96.9265 55.4932 96.993 54.8978C97.4848 50.5968 97.0355 46.232 97.0355 41.9177C97.0355 37.327 97.0435 32.7389 97.0408 28.1482C97.0382 23.5575 96.9239 19.1475 97.0089 14.6524C97.0488 12.5684 97.0355 10.3196 97.53 8.28602C97.8862 6.82134 98.6065 5.3673 98.4337 3.82554C98.3753 3.30187 98.0829 2.70111 97.4981 2.59479C94.8877 2.11897 92.3757 2.64263 89.8025 3.1025C86.9715 3.61022 84.0555 3.66605 81.1846 3.75111C75.193 3.92655 69.1961 3.81491 63.2018 3.81491C51.1016 3.81491 39.0333 3.67668 26.9411 3.24073C23.6104 3.12111 20.277 3.22478 16.9436 3.24073C14.0594 3.25402 10.928 3.06795 8.12894 3.93452C7.55211 4.11263 7.2411 4.58579 7.19325 5.16528C7.03642 7.01008 9.00349 7.16957 9.78767 8.44285C11.0583 10.5109 10.2768 13.124 10.8456 15.3648C11.449 17.7466 11.1513 20.0247 11.1407 22.4543C11.1301 25.1763 11.1407 27.901 11.1407 30.623C11.1407 36.2159 11.2337 41.8194 11.1247 47.4123C11.0742 50.0386 10.9147 52.6675 11.037 55.2965C11.1141 56.9366 11.2151 58.8479 13.0493 59.4433C14.8835 60.0388 17.3928 59.6799 19.3599 59.6799C22.1404 59.6799 24.9262 59.6161 27.7067 59.6719C33.1799 59.7783 38.6107 60.5412 44.0148 61.3519C49.419 62.1627 54.6929 61.4902 60.0146 62.1414C61.2321 62.2903 62.4495 62.4657 63.6776 62.5136C65.1423 62.5694 66.6096 62.4365 68.0716 62.5215C70.7245 62.6731 73.3482 63.1675 76.0091 63.2818C78.6699 63.3961 81.3441 63.2898 83.9917 62.907C86.2671 62.5774 88.8296 62.4763 91.0253 61.7693C91.9318 61.4769 92.7957 60.9053 93.7473 60.7698C94.5554 60.6555 95.3157 60.9877 96.1105 60.9904C97.7665 61.001 98.0191 59.4407 98.3567 58.1621C98.984 55.8042 100.074 53.5155 101.283 51.4049C102.493 49.2943 103.724 47.4096 104.375 45.089C105.725 40.2856 106.621 35.5088 106.669 30.5087C106.693 27.9169 106.847 25.2933 106.605 22.7095C106.363 20.1257 105.571 17.6084 105.542 14.9688C105.513 12.3292 105.749 9.865 105.435 7.37425C105.225 5.70224 104.76 3.53313 103.599 2.23327C102.506 1.01049 100.871 0.98125 99.3429 0.954668C96.6527 0.909478 93.96 0.904162 91.2672 0.909478C85.8072 0.922769 80.3473 1.00783 74.89 0.962643C69.4778 0.917453 64.0631 0.771251 58.6536 1.00783C53.2441 1.24441 47.9197 2.24922 42.5236 2.95099C37.0423 3.66339 31.5265 4.0063 26.04 4.64958C23.411 4.95794 20.7873 5.32211 18.1398 5.45768C15.3646 5.60122 12.5682 5.49755 9.78767 5.50021C7.00718 5.50287 4.35694 5.50819 1.64024 5.50819C-0.00253132 5.50819 -0.0051896 8.06007 1.64024 8.06007C6.87427 8.06007 12.1402 8.22222 17.3715 8.04412C22.4992 7.86602 27.6269 7.01805 32.7334 6.54489C42.9489 5.59857 53.0049 3.54908 63.2869 3.4401C68.3561 3.38693 73.4279 3.53313 78.4971 3.52516C83.5664 3.51719 88.92 3.44807 94.1301 3.46136C95.3449 3.46402 96.5624 3.472 97.7772 3.48529C98.8139 3.49592 100.037 3.34972 101.052 3.60756C102.363 3.93984 102.676 6.19401 102.862 7.31046C103.245 9.61247 102.985 12.1271 102.985 14.4557C102.985 16.7843 103.487 19.1608 103.896 21.5478C104.332 24.0864 104.13 26.6995 104.117 29.262C104.104 31.6544 104.074 34.0521 103.74 36.4259C103.405 38.7996 102.777 40.881 102.246 43.0953C101.669 45.4824 100.675 47.391 99.4385 49.491C98.2689 51.474 97.2562 53.5687 96.456 55.7298C96.1822 56.4714 95.5602 57.7394 95.632 58.5449C95.5629 57.7474 95.5841 58.8505 95.5469 58.8133C95.6214 58.8878 96.0626 58.3428 96.0812 58.4359C96.0653 58.3561 95.0392 58.2737 94.9488 58.2631C92.902 58.0238 91.4426 59.1031 89.5261 59.5204C88.4628 59.7517 87.3703 59.8102 86.2937 59.9537C84.9805 60.1291 83.6913 60.4162 82.3728 60.5571C79.922 60.8203 77.4445 60.8229 74.9856 60.6741C72.5268 60.5252 69.858 59.9829 67.2901 59.9431C64.7223 59.9032 62.3033 59.8633 59.7674 59.5576C57.2314 59.2519 54.6796 59.3397 52.1224 59.3476C46.9894 59.3636 42.0238 58.4252 36.944 57.8165C31.8641 57.2078 26.6487 57.1068 21.4492 57.1227C19.0914 57.1307 16.5741 57.3752 14.2295 57.0882C13.5623 57.0057 13.6899 56.7665 13.6261 56.0488C13.5065 54.7064 13.5278 53.3427 13.549 51.9977C13.6314 46.8912 13.6873 41.7928 13.6873 36.6837C13.6873 31.4842 13.4906 26.2396 13.7192 21.0454C13.8175 18.8338 13.8361 16.8455 13.2992 14.687C13.0227 13.5759 13.1689 12.4435 13.0892 11.3111C13.0094 10.1787 12.8127 9.09412 12.4007 8.04678C12.095 7.27058 11.6564 6.57945 11.0583 5.99464C10.827 5.76603 10.5772 5.57198 10.3007 5.40186C10.1784 5.32743 9.9764 5.20249 9.84881 5.16262C9.54577 5.06958 9.75311 4.95262 9.73716 5.16528L8.80147 6.39603C11.2125 5.64907 13.9238 5.79793 16.4119 5.79527C19.3944 5.78996 22.377 5.70224 25.3595 5.7554C31.2262 5.85641 37.0875 6.21527 42.9595 6.29768C54.7354 6.46249 66.5432 6.53692 78.3191 6.36945C81.5062 6.32426 84.7147 6.25515 87.8886 5.94413C90.8313 5.65439 93.843 4.51933 96.8122 5.06161L95.8765 3.83085C96.044 5.32743 95.1934 6.76818 94.9382 8.22222C94.566 10.3328 94.4943 12.5232 94.4517 14.6604C94.364 19.1555 94.481 23.6611 94.4836 28.1562C94.4863 32.7469 94.4836 37.335 94.4783 41.9257C94.4783 46.2426 94.9276 50.6074 94.4358 54.9058L95.3715 53.675C94.0902 54.1163 92.4793 53.7016 91.1316 53.7016C89.1885 53.7016 87.2506 53.7229 85.3128 53.566C81.5116 53.2577 77.7502 52.9786 73.9968 52.2954C66.3332 50.9025 58.4781 50.852 50.7135 50.8706C42.8133 50.8892 34.9078 51.163 27.0155 50.7244C25.1123 50.6181 23.209 50.4719 21.3137 50.2698C20.0803 50.1396 18.2966 50.1821 17.236 49.4378C16.1754 48.6935 15.9521 46.8514 15.8298 45.6392C15.665 43.9938 15.7288 42.3298 15.8059 40.6817C16.2126 32.0478 15.9547 23.3607 15.9547 14.7189C15.9547 13.0761 13.4028 13.0735 13.4028 14.7189L13.4108 14.7136Z" fill="#751FFF"/>
<path d="M35.5218 20.3833C35.3703 22.8953 37.2709 23.9586 39.5623 24.2537C41.8537 24.5487 42.3189 22.4089 42.053 20.5375C41.7872 18.6661 40.373 17.0951 38.3369 17.7543C36.3007 18.4136 35.1071 20.479 37.441 21.7603C39.1955 22.7252 41.7101 21.8028 41.6703 19.5619C41.6304 17.3211 38.8525 17.4965 37.9727 19.0728C37.5633 19.8091 37.4277 20.6784 37.247 21.4891C37.1779 21.7975 37.13 22.4248 36.9333 22.6906C36.7366 22.9565 36.3591 23.0149 36.0162 23.1771C35.2427 23.5466 34.6021 24.0862 34.5489 25.0033C34.4904 26.0294 35.1709 26.8826 36.1571 27.0953C37.449 27.3718 38.6053 26.5637 39.775 26.1835C40.9446 25.8034 42.6485 26.4228 43.6054 25.4419C44.6288 24.3919 43.64 23.0761 42.9223 22.252C41.9547 21.1436 41.5533 19.8251 41.2901 18.4136C41.1918 17.8819 40.583 17.4593 40.0594 17.4779C38.7462 17.5178 37.8956 18.496 36.6489 18.6767C35.5298 18.8389 34.3256 18.6767 33.3899 19.445C31.7339 20.8113 33.4006 22.882 34.5888 23.9108C35.777 24.9395 37.6377 23.1824 36.3937 22.1058C36.0774 21.832 35.7717 21.5237 35.5192 21.1888C35.4288 21.0718 35.3464 20.9495 35.2746 20.8193C35.1151 20.5029 35.0885 20.6837 35.1948 21.3589C35.2826 21.4439 35.9551 21.2818 36.1252 21.2712C36.8483 21.2233 37.5686 21.1755 38.2491 20.9096C38.7994 20.697 39.4746 20.0484 40.062 20.0298L38.8313 19.0941C39.0253 20.1281 39.238 20.9788 39.7244 21.9224C39.9796 22.4168 40.2136 22.9166 40.5379 23.3711C40.7266 23.637 41.4629 24.2058 41.431 24.5434L42.0637 23.4429C41.5799 23.6848 40.5618 23.3844 40.0009 23.4854C39.0732 23.6556 38.2571 24.1075 37.3772 24.4185C37.3028 24.4451 36.7951 24.5487 36.7472 24.6019C36.508 25.4897 36.5745 25.8114 36.944 25.5615C37.0476 25.5004 37.154 25.4472 37.2683 25.4047C37.7813 25.2638 38.3634 24.9501 38.7303 24.5647C39.4719 23.7911 39.6128 22.5896 39.8361 21.5928C39.9105 21.2605 40.2694 20.5827 40.2322 20.269C40.1817 19.8331 38.6558 19.6045 38.2066 19.1526L38.5336 20.3939C38.5176 20.4577 39.1609 20.0989 39.3417 20.1919C39.7165 20.386 39.4746 21.3589 39.6048 21.6725V22.0367C40.0594 21.8374 40.1232 21.731 39.8015 21.7177C39.6713 21.5715 39.0998 21.521 38.9163 21.4625C38.0843 21.1967 38.0232 21.2552 38.0764 20.3833C38.1747 18.7432 35.6228 18.7485 35.5245 20.3833H35.5218Z" fill="#751FFF"/>
<path d="M45.3651 18.7432C45.3066 19.9686 45.8489 20.9495 46.3593 22.0234C46.8697 23.0973 47.1993 24.2271 48.1137 24.9793C48.8527 25.5881 49.5146 25.4498 50.3732 25.3036C51.4524 25.1202 52.3775 25.4791 53.4328 24.9847C53.9325 24.7507 54.1638 24.049 54.0203 23.5439C53.7598 22.6401 53.2414 21.9357 52.8294 21.1063C52.2977 20.0377 52.2765 18.6741 52.1462 17.5045C52.0266 16.4279 50.8304 15.7926 49.9691 16.6033C49.4109 17.127 49.2009 17.3981 48.446 17.5363C48.2041 17.5815 47.9781 17.632 47.7389 17.6879C47.4837 17.749 47.0531 17.6799 47.3003 17.9058L46.3992 20.0829C47.0265 20.0005 47.6033 20.2504 48.2254 20.3195C48.6214 20.3647 49.504 20.1441 49.7804 20.3541C50.3333 20.7714 50.1047 22.3451 49.9532 22.9139L52.0851 22.3504C51.6146 21.9782 51.2796 21.4891 50.8224 21.1037C50.538 20.8644 49.9798 20.681 49.8495 20.3248C49.7804 20.1387 49.8735 19.7958 49.9133 19.5965C49.9426 19.4582 50.0489 19.2775 50.0356 19.1419L50.134 18.9691C49.278 18.8787 49.0149 18.9931 49.3445 19.3174C50.4716 20.5162 52.2738 18.7086 51.1494 17.5124C49.5173 15.7766 47.7549 17.2439 47.4093 19.1552C47.2525 20.0244 47.2285 20.9761 47.699 21.7602C47.9649 22.2042 48.353 22.4833 48.765 22.7757C49.3365 23.1824 49.7326 23.722 50.2802 24.1526C51.0032 24.7242 52.1436 24.6019 52.412 23.5891C52.8134 22.0766 52.7762 20.0829 51.7927 18.791C51.2531 18.0813 50.4981 17.7437 49.6076 17.7437C49.1132 17.7437 48.6773 17.8181 48.1828 17.7304C47.5661 17.6214 47.0292 17.446 46.3965 17.5284C45.397 17.6613 44.5916 18.8761 45.4954 19.7055C46.4895 20.6199 47.5103 20.3222 48.7065 20.067C49.1797 19.966 49.6395 19.9473 50.0914 19.7586C50.8012 19.4636 51.2291 18.9186 51.7767 18.4029L49.5997 17.5018C49.7432 18.7857 49.7937 20.2318 50.211 21.4599C50.5433 22.4408 51.277 23.2249 51.5641 24.2191L52.1515 22.7783C51.7448 22.9697 50.958 22.6614 50.4928 22.6933C50.2137 22.7119 49.8256 22.7651 49.5651 22.882L49.3312 22.9511C49.6954 23.0362 49.7645 22.9697 49.5385 22.7518C49.5066 22.2866 48.858 21.3562 48.648 20.907C48.3131 20.1919 47.8798 19.5539 47.9197 18.7379C47.9994 17.0951 45.4475 17.1004 45.3678 18.7379L45.3651 18.7432Z" fill="#751FFF"/>
<path d="M39.0945 30.8433C39.8042 30.8273 42.0211 30.3037 42.5315 30.8832C42.6857 31.0559 42.4225 32.3531 42.4119 32.6642C42.3933 33.1373 42.3773 33.6211 42.3906 34.0969C42.4039 34.5728 42.6033 35.2373 42.5235 35.7131L44.0919 34.8226C43.2147 34.493 42.396 33.9879 41.4842 33.746C40.5086 33.4882 39.5251 33.7301 38.5575 33.5334L39.448 34.4239C39.4374 34.3707 40.1418 33.039 40.2587 32.7014C40.3544 32.4329 40.4129 32.0475 40.6336 31.8375C40.91 31.5743 40.9366 31.7869 40.8728 31.7285C41.4443 32.2468 41.1041 34.1421 41.0987 34.812C41.0828 36.4548 43.6347 36.4548 43.6506 34.812C43.6692 32.8954 43.9032 29.7002 41.3911 29.2457C39.8308 28.9639 38.5389 29.998 38.0046 31.3935C37.574 32.5206 36.7446 33.8736 36.9865 35.1017C37.0662 35.5058 37.4756 35.9098 37.877 35.9922C38.8499 36.1916 39.852 35.9683 40.8037 36.2049C41.7553 36.4415 42.5422 36.9545 43.4114 37.2815C44.0121 37.5074 44.8761 37.0263 44.9797 36.391C45.1977 35.0884 44.908 33.7009 44.9691 32.3691C45.0196 31.2845 45.1897 30.0538 44.4082 29.1686C43.1243 27.7119 40.7824 28.2515 39.0891 28.2887C37.3959 28.326 37.4437 30.8778 39.0891 30.8406L39.0945 30.8433Z" fill="#751FFF"/>
<path d="M48.6082 30.8433C50.1075 30.8194 51.6705 30.5323 53.1564 30.8327L52.2659 29.9422C52.4334 30.9258 52.1064 31.9013 51.9762 32.8689C51.8459 33.8365 51.8539 34.7164 51.8805 35.6521C51.8911 35.9976 51.7662 36.7845 51.9283 37.1061C51.8645 37.7095 52.0453 37.566 52.4653 36.6755L52.2075 36.4761C51.9709 36.1996 51.5828 36.1598 51.2771 36.0029C50.7667 35.7371 50.8783 36.0641 50.7773 35.4793C50.5354 34.0624 51.5748 32.5526 51.1521 31.1623C51.1309 31.0002 51.1202 30.838 51.1202 30.6759C50.2989 30.6918 50.0197 30.8752 50.2856 31.2208C50.2909 31.3963 50.5142 31.6674 50.5673 31.8641C50.8145 32.7759 50.6311 33.8897 50.6152 34.8227C50.5886 36.4655 53.1405 36.4655 53.1671 34.8227C53.191 33.3022 53.3797 31.7179 52.6886 30.3064C52.2048 29.3175 51.2505 28.318 50.041 28.6397C48.6508 29.0092 48.5949 30.3064 48.6375 31.476C48.6906 32.9194 48.1271 34.3389 48.2441 35.8062C48.361 37.2736 48.9724 37.8584 50.2484 38.3687C51.3781 38.8206 52.6859 40.1497 53.9087 38.9828C54.9507 37.9886 54.4085 35.9179 54.4138 34.6712C54.4191 32.829 55.0464 31.1118 54.7301 29.2697C54.661 28.8656 54.233 28.4589 53.8396 28.3792C52.0958 28.0256 50.3706 28.2729 48.6136 28.2994C46.9734 28.326 46.9681 30.8779 48.6136 30.8513L48.6082 30.8433Z" fill="#751FFF"/>
<path d="M27.2867 23.9558C28.9295 23.9558 28.9322 21.4039 27.2867 21.4039C25.6413 21.4039 25.6413 23.9558 27.2867 23.9558Z" fill="#751FFF"/>
<path d="M26.957 29.8597C28.5998 29.8597 28.6025 27.3079 26.957 27.3079C25.3116 27.3079 25.3116 29.8597 26.957 29.8597Z" fill="#751FFF"/>
<path d="M21.3802 26.2526C23.023 26.2526 23.0256 23.7007 21.3802 23.7007C19.7348 23.7007 19.7348 26.2526 21.3802 26.2526Z" fill="#751FFF"/>
<path d="M29.2537 30.8433C30.8965 30.8433 30.8992 28.2914 29.2537 28.2914C27.6083 28.2914 27.6083 30.8433 29.2537 30.8433Z" fill="#751FFF"/>
<path d="M29.2537 38.39C30.8965 38.39 30.8992 35.8381 29.2537 35.8381C27.6083 35.8381 27.6083 38.39 29.2537 38.39Z" fill="#751FFF"/>
<path d="M46.3726 60.1208C46.3274 62.5318 45.7081 65.4452 47.8719 67.1757C49.7326 68.667 52.4094 68.13 54.6051 68.0423C55.4079 68.0104 56.0698 67.9413 56.83 68.239C57.3856 68.457 57.8721 68.7254 58.4834 68.76C59.4245 68.8105 60.4425 68.5075 60.9529 67.6622C61.9524 66.0061 60.3841 64.3022 60.5781 62.6195C60.7722 60.9369 58.215 61.006 58.0262 62.6195C57.9491 63.2788 58.1113 63.9407 58.2788 64.576C58.3824 64.9694 58.4861 65.8625 58.7174 66.1922C58.7253 66.2746 58.728 66.3596 58.728 66.442C59.0683 66.1948 59.0975 66.1177 58.8131 66.2108C58.6828 66.0752 57.7046 65.8386 57.4494 65.7429C56.5084 65.3894 55.5966 65.4532 54.6078 65.4931C53.1777 65.5489 50.9793 66.0779 49.6821 65.3415C48.1244 64.4564 48.9006 61.5642 48.9272 60.1261C48.9591 58.4833 46.4072 58.4833 46.3753 60.1261L46.3726 60.1208Z" fill="#751FFF"/>
<path d="M46.8166 63.0077C41.7075 63.0768 36.6595 63.7945 31.6541 64.786C29.0624 65.2991 26.553 65.9477 24.0277 66.7265C22.9698 67.0535 21.9091 67.3858 20.8193 67.5958C19.8889 67.7765 18.9665 67.8935 18.0866 68.2656C16.0106 69.1429 14.4103 72.0004 17.0366 73.295C19.0356 74.2812 21.755 74.0366 23.9134 73.9542C27.4887 73.8213 31.0853 73.6485 34.6606 73.7283C37.1806 73.7841 39.565 74.3157 42.0504 74.6241C44.7246 74.959 47.4519 74.9271 50.0782 75.581C51.0591 75.8256 52.0081 76.1446 53.0102 76.2881C54.3553 76.4822 55.7296 76.429 57.0853 76.4051C59.685 76.3599 62.2767 76.445 64.8765 76.4769C68.4438 76.5194 72.2344 76.4636 75.3153 74.3849C76.445 73.6219 78.1516 71.9313 77.5003 70.3869C76.772 68.6591 73.8852 68.6617 72.3726 68.2736C69.8527 67.6277 67.3725 66.8462 65.0599 65.6526C63.3321 64.7621 61.3198 63.5872 59.2995 63.8371C57.6913 64.0364 57.6701 66.591 59.2995 66.3889C61.8062 66.0806 64.305 68.3294 66.5644 69.1641C68.2232 69.7755 69.9829 70.2992 71.6975 70.7351C72.8352 71.0249 74.5285 70.9584 75.4349 71.7825L75.0601 70.8813C74.9112 72.6783 71.2987 73.489 69.9297 73.7416C66.6841 74.3397 63.1247 73.8612 59.8418 73.8319C58.0874 73.816 56.333 73.9197 54.5812 73.8638C52.8295 73.808 51.1176 73.1328 49.3472 72.8271C47.5768 72.5214 45.8144 72.4231 44.0414 72.2742C42.0796 72.1094 40.187 71.6761 38.2385 71.4289C33.0736 70.7803 27.8104 71.3678 22.6242 71.4395C21.7709 71.4502 20.915 71.4449 20.0643 71.3784C19.4689 71.3332 18.7751 71.0913 18.2541 71.0621C18.0467 71.0515 18.0946 70.9451 18.0627 70.977C18.0893 70.9504 18.1797 71.3146 18.161 71.3013C18.4189 71.4449 17.8819 71.4103 18.161 71.3784C18.1132 71.3837 18.4827 70.9956 18.3551 71.1099C19.3679 70.1982 20.8538 70.2194 22.1271 69.9244C24.1766 69.4459 26.149 68.683 28.1825 68.146C30.1044 67.6383 32.0715 67.2848 34.0253 66.9206C38.2545 66.1311 42.5076 65.6154 46.8139 65.5596C48.454 65.5383 48.4594 62.9864 46.8139 63.0077H46.8166Z" fill="#751FFF"/>
</svg>
