<svg width="78" height="70" viewBox="0 0 78 70" fill="none" xmlns="http://www.w3.org/2000/svg">
<path d="M6.66097 43.804C6.71639 38.4278 5.51552 33.1994 4.99821 27.8601C4.77651 25.5877 4.48091 23.4446 4.01904 21.2091C3.50174 18.715 3.40936 16.3686 4.70261 14.1147C5.58942 12.5628 6.95657 11.3249 8.28677 10.161C9.76477 8.86776 11.2058 7.38975 12.7762 6.22583C14.5683 4.87715 16.8038 3.89797 19.0577 3.84255C21.7181 3.78712 23.1407 5.1358 24.5079 7.205C26.9281 10.8446 30.3829 13.7267 31.6946 17.9944C33.0064 22.2622 32.7477 26.7701 32.7662 31.241C32.7662 36.2662 32.5999 41.3469 32.8216 46.3721C32.914 48.4782 33.265 50.8061 32.3413 52.7829C31.4175 54.7597 29.4222 56.09 27.39 56.829C25.3577 57.568 23.1776 57.7342 20.9791 57.7712C18.2633 57.8266 15.7322 57.9929 13.3305 56.5149C11.2428 55.2216 10.319 52.6351 9.26595 50.529C7.93574 47.8686 6.73487 45.67 6.67944 42.6216C6.64249 40.5524 3.40936 40.534 3.44631 42.6216C3.50174 45.1712 4.03751 47.5175 5.21991 49.7715C6.53164 52.321 7.71404 55.3509 9.58002 57.568C12.8686 61.4477 18.4111 61.2445 22.9929 60.9674C27.2422 60.7087 31.8609 59.1753 34.4289 55.5726C35.7591 53.6882 36.1471 51.5636 36.1656 49.3096C36.1656 46.1689 36.0178 43.0281 36.0178 39.8689C36.0178 33.846 36.5536 27.5275 35.7591 21.5416C35.4451 19.2507 34.9093 17.0152 34.004 14.9091C32.877 12.3226 30.9926 10.4012 29.219 8.23961C27.7964 6.50295 26.7988 4.35985 25.1545 2.80794C23.307 1.05282 20.7944 0.44314 18.3557 0.646366C13.3674 1.03434 10.0234 4.37832 6.47622 7.46365C2.26391 11.1217 -0.322596 15.0754 0.656581 20.8396C1.28473 24.4976 1.72813 28.1372 2.24543 31.8322C2.79968 35.8228 3.46479 39.758 3.40936 43.804C3.39089 45.8733 6.60554 45.8733 6.64249 43.804H6.66097Z" fill="#751FFF"/>
<path d="M15.9909 4.89579C15.9909 7.8518 15.9909 10.8078 15.9539 13.7638C15.9539 15.7406 15.917 18.8444 17.9862 19.916C18.6882 20.2855 19.3533 20.1377 19.9445 19.6573C20.4988 19.2139 20.8683 18.4565 21.1639 17.8098C21.5519 16.9785 21.8844 16.1101 22.1431 15.2233C22.6788 13.4313 22.5126 11.2512 20.4064 10.6231C18.4665 10.0503 16.2311 11.2327 15.3258 12.9694C14.827 13.9116 14.6607 15.0016 14.6607 16.0547C14.6607 16.9785 14.6976 18.0685 14.9748 18.9553C15.3258 20.1007 16.1572 21.0614 17.3396 21.3755C18.522 21.6896 19.8152 21.2647 20.8498 20.6365C22.6234 19.565 20.9976 16.7752 19.224 17.8468C18.7991 18.1054 18.6328 18.1424 18.1894 18.2717C18.485 18.1793 17.8938 18.2717 18.2818 18.2717L18.134 18.2348C18.3003 18.3271 18.3003 18.3087 18.134 18.2348C18.2448 18.3456 18.2633 18.3456 18.1894 18.2717C18.1155 18.1978 18.1155 18.1978 18.1894 18.3087C18.0601 18.0131 18.1894 18.401 18.0786 18.087C17.9677 17.7544 17.9677 17.5327 17.9308 17.1078C17.8753 16.3688 17.8384 15.5559 17.9862 14.9647C18.134 14.3735 18.3557 14.0409 18.9838 13.7638C18.7252 13.8747 19.1871 13.7269 19.2055 13.7269C19.5566 13.6345 19.0947 13.8377 19.3718 13.7084C19.575 13.7084 19.5566 13.7084 19.3718 13.6899L19.5011 13.7269C19.8706 13.8377 19.2425 13.5236 19.3903 13.653C19.5381 13.7823 19.1316 13.4128 19.261 13.3204C19.261 13.3204 19.2055 13.967 19.2794 13.5236C19.2425 13.7638 19.1686 14.004 19.0947 14.2442C18.9099 14.8538 18.6143 15.7037 18.4296 16.1101C18.3003 16.4057 18.1525 16.7013 17.9862 16.9785C17.9123 17.0893 17.8569 17.2186 17.7645 17.3295C18.0047 16.9969 17.7645 17.3295 17.6721 17.3849L19.6305 17.1263C19.4088 17.0154 19.6674 17.2186 19.6859 17.2186C19.6489 17.2186 19.4457 16.9415 19.5935 17.1447C19.7598 17.3664 19.4272 16.7568 19.5011 16.96C19.5381 17.0708 19.4088 16.609 19.3718 16.4796C19.3533 16.3873 19.3349 16.2764 19.3164 16.184C19.224 15.7037 19.3164 16.3503 19.2979 16.0547C19.1871 15.094 19.1871 14.1333 19.2055 13.1726C19.2794 10.4198 19.2425 7.68552 19.2425 4.93274C19.2425 2.86354 16.0094 2.84506 16.0094 4.93274L15.9909 4.89579Z" fill="#751FFF"/>
<path d="M21.9768 59.3601C21.9953 67.0827 29.2744 70.4636 36.0732 69.6507C39.953 69.1888 43.4632 67.9141 46.5486 65.4569C48.082 64.2375 49.1905 62.6672 50.5761 61.3C51.8879 60.0067 53.4767 59.0645 54.5113 57.5311C55.4351 56.1455 55.6383 54.6859 55.7861 53.0786C56.0078 50.5291 56.248 47.9795 56.3219 45.4299C56.4512 40.6449 55.5644 36.4141 53.9201 31.9616C53.255 30.1326 52.5714 28.1927 52.1835 26.2898C51.7401 24.1467 54.1418 23.962 55.86 23.7033C57.301 23.4816 58.7791 23.2969 60.2386 23.2045C63.1022 23.0382 64.5802 24.2206 65.079 27.0473C65.5224 29.5599 65.5963 32.1279 65.6333 34.659C65.6333 36.2109 65.7072 37.9476 66.6864 39.2223C68.7925 41.9751 73.9655 40.7373 76.4597 39.2223C78.2333 38.1508 76.6075 35.3611 74.8339 36.4326C73.6699 37.1531 71.7301 37.7998 70.3444 37.5411C69.199 37.3194 68.9773 36.9499 68.8849 35.7121C68.811 34.7329 68.8849 33.7352 68.8849 32.7561C68.8479 29.5968 68.6632 25.2367 66.7972 22.5763C64.8019 19.7312 61.421 19.8235 58.3172 20.193C55.8046 20.4886 53.0333 20.581 50.8163 21.9112C47.7864 23.7403 48.9503 26.3452 49.6709 29.135C50.7794 33.3842 52.7747 37.2086 53.0703 41.661C53.2181 43.7672 53.1442 45.8733 52.9964 47.9795C52.8486 50.0857 53.0333 52.783 52.3497 54.7783C51.814 56.3856 50.336 57.2909 49.1166 58.344C47.694 59.5634 46.6225 61.1153 45.2553 62.39C40.2486 67.0273 25.2469 69.9278 25.2099 59.3971C25.2099 57.3279 21.9768 57.3094 21.9768 59.3971V59.3601Z" fill="#751FFF"/>
</svg>
