<svg width="58" height="53" viewBox="0 0 58 53" fill="none" xmlns="http://www.w3.org/2000/svg">
<path d="M2.10785 23.9334C6.09846 23.4715 10.0891 22.7694 14.1351 22.6771C16.6662 22.6216 19.3635 22.1782 21.8761 22.4738C27.7142 23.1944 20.3797 31.5266 19.0864 33.6143C17.202 36.6257 16.2782 40.1545 13.433 42.4638C12.0474 43.5908 14.0242 45.5307 15.3914 44.4222C18.3105 42.0574 19.4374 38.5287 21.2665 35.3879C22.7445 32.8383 24.8506 30.6768 26.0515 27.9425C27.123 25.5037 27.4556 22.0859 24.7767 20.497C22.338 19.056 19.0864 19.7026 16.426 19.8504C14.2275 19.9797 12.0289 19.9428 9.83041 20.1829C7.26238 20.4601 4.69435 20.848 2.12632 21.1436C0.371195 21.3469 0.35272 24.1181 2.12632 23.9149L2.10785 23.9334Z" fill="#751FFF"/>
<path d="M25.4604 3.03814C29.5618 3.03814 33.6633 2.87186 37.7647 2.98271C38.5222 2.98271 39.3351 2.94576 40.0741 3.13051C40.1665 3.14899 40.7023 3.38916 40.6099 3.25984C41.0163 3.79561 40.3697 5.47684 40.2034 6.06804C38.5037 12.5713 34.1621 18.1322 33.9219 25.0234C33.848 26.8155 36.6193 26.797 36.6932 25.0234C36.9518 17.7073 42.2726 11.8138 43.3442 4.68242C43.5105 3.57391 43.492 2.37304 42.6976 1.48623C41.7923 0.488583 40.4067 0.322307 39.1504 0.248407C34.6055 0.00823168 30.0422 0.248407 25.4788 0.266882C23.6867 0.266882 23.6867 3.03814 25.4788 3.03814H25.4604Z" fill="#751FFF"/>
<path d="M24.241 52.2001C32.0005 52.2001 40.7392 53.013 46.6143 46.9162C50.1984 43.1843 52.1937 38.0482 53.5055 33.1339C54.2075 30.4919 54.7433 27.7946 55.0758 25.0787C55.353 22.8433 55.4638 20.2752 57.182 18.6125C58.4568 17.3747 56.4984 15.4163 55.2236 16.6541C52.0829 19.7025 52.4524 24.894 51.6579 28.8846C50.5864 34.1315 48.9791 39.7849 45.5242 43.9972C40.2773 50.408 31.6864 49.4104 24.2595 49.4288C22.4674 49.4288 22.4674 52.2001 24.2595 52.2001H24.241Z" fill="#751FFF"/>
</svg>
