<svg width="67" height="76" viewBox="0 0 67 76" fill="none" xmlns="http://www.w3.org/2000/svg">
<path d="M28.0393 33.2544C27.5422 33.1295 26.5454 33.9615 26.0775 34.3948C23.3123 36.952 21.3817 40.2728 19.4288 43.6318C18.7365 44.8225 18.0415 46.0181 17.3054 47.1861C14.493 51.6493 11.8694 56.232 9.34673 60.8653C8.98512 61.529 8.60865 62.1954 8.22957 62.8664C6.27354 66.3289 4.2482 69.9142 3.83626 73.8799M28.0393 33.2544L3.83626 73.8799M28.0393 33.2544C28.3955 33.3422 28.4619 33.8605 28.5257 34.4028L28.0393 33.2544ZM3.83626 73.8799L4.08492 73.9057C4.08492 73.9057 4.08493 73.9057 4.08493 73.9056L3.83626 73.8799ZM28.2774 34.4318C28.2855 34.5006 28.2933 34.5693 28.3011 34.6379C28.4006 35.5093 28.4978 36.3611 28.9541 37.2111C29.4508 38.1368 30.1517 38.8691 30.8646 39.5536C31.0055 39.6889 31.1465 39.822 31.2866 39.9543C31.863 40.4986 32.4246 41.0288 32.904 41.6387L32.904 41.6388C33.3658 42.2258 33.7723 42.8571 34.1821 43.502C34.2091 43.5446 34.2362 43.5872 34.2633 43.6299C34.6446 44.2306 35.0322 44.8411 35.4656 45.4195L35.4658 45.4196C36.3078 46.5415 37.7769 47.9521 39.2393 48.5364C39.9738 48.8299 40.7411 48.9281 41.4305 48.6322C42.1243 48.3344 42.6784 47.6641 43.0407 46.5539L43.0407 46.5539C43.3519 45.5993 43.3861 44.6297 43.3589 43.6808C43.3503 43.3779 43.3356 43.0798 43.3211 42.7847C43.2895 42.1413 43.2586 41.5124 43.2919 40.8807L43.2919 40.8804C43.4122 38.5452 44.1507 36.161 44.9188 33.9286C46.2375 30.0987 47.9779 26.4258 49.721 22.7471C50.4274 21.2564 51.1342 19.7648 51.8135 18.2614L51.8136 18.2614C51.99 17.8707 52.1663 17.4801 52.3425 17.0894C53.3587 14.8368 54.3742 12.5859 55.4244 10.3542C56.4198 8.24169 57.4116 6.51541 59.334 5.20976C60.1442 4.65955 60.1521 3.72029 59.7829 3.08473C59.5973 2.76531 59.3064 2.49962 58.9462 2.38597C58.5778 2.26977 58.1635 2.32135 57.764 2.5924L57.7638 2.59253C54.6582 4.70336 53.2994 7.66676 51.8199 10.8932C51.777 10.9868 51.734 11.0805 51.6909 11.1745C50.9415 12.8036 50.2019 14.4349 49.4627 16.0654C48.3143 18.5985 47.1667 21.1298 45.9845 23.6477L45.9845 23.6478C44.17 27.5158 42.3425 31.4553 41.2009 35.6152C40.6951 37.4546 40.227 39.4415 40.2297 41.3942V41.3943C40.2304 41.78 40.2657 42.2053 40.3014 42.635L40.3036 42.6616C40.3404 43.1046 40.3772 43.5549 40.3816 43.9964C40.3877 44.6173 40.3289 45.1939 40.1328 45.6816C39.5152 45.4722 38.9514 44.994 38.4312 44.3828C37.8842 43.7402 37.4189 42.9925 37.0103 42.336C36.88 42.1266 36.7555 41.9265 36.636 41.742C36.5863 41.6652 36.5366 41.588 36.4868 41.5106C36.0438 40.8222 35.5888 40.1153 35.0523 39.4714L35.0522 39.4713C34.6146 38.9467 34.1114 38.4823 33.6223 38.0309C33.5742 37.9866 33.5263 37.9424 33.4786 37.8982C32.9403 37.4001 32.4258 36.9097 32.0039 36.3429L32.0037 36.3427C31.7 35.9355 31.5292 35.4502 31.4073 34.9176C31.3464 34.6516 31.2986 34.3784 31.2514 34.0996C31.246 34.0675 31.2406 34.0353 31.2352 34.0031C31.1938 33.7573 31.1517 33.5074 31.1011 33.2633C30.9871 32.712 30.8249 32.1615 30.5031 31.692C30.1762 31.2151 29.6956 30.8372 28.9749 30.6127L28.9748 30.6127C27.4045 30.124 25.9072 30.9361 24.7895 31.8254C21.9642 34.0724 19.9626 37.4316 18.1615 40.4543C18.1137 40.5345 18.066 40.6146 18.0184 40.6943L18.0184 40.6944C16.9695 42.4545 15.8888 44.2027 14.8068 45.9528C13.2741 48.432 11.739 50.9151 10.2889 53.4413C8.30669 56.8923 6.41522 60.3933 4.52812 63.891C2.82991 67.0315 1.41298 70.2215 1.03571 73.8541L28.2774 34.4318Z" fill="#751FFF" stroke="#751FFF" stroke-width="0.5"/>
<path d="M56.2453 4.80899C56.5262 4.81229 56.8113 4.82031 57.0993 4.8284C58.1777 4.85871 59.2964 4.89015 60.384 4.67951L56.2453 4.80899ZM56.2453 4.80899C54.0363 4.78389 51.8264 4.79147 49.6151 4.79905C48.5497 4.8027 47.484 4.80635 46.418 4.80635C45.8334 4.80635 45.3783 4.57666 45.0729 4.22075C44.7719 3.87008 44.6277 3.41101 44.6279 2.96132C44.6281 2.51163 44.7727 2.05265 45.0736 1.70207C45.3791 1.34626 45.834 1.11649 46.418 1.11649C47.4806 1.11649 48.5442 1.11354 49.6083 1.11059C51.7384 1.10468 53.8705 1.09877 56.0002 1.1165L56.2453 4.80899ZM63.295 0.58498L63.3013 0.33506C64.0756 0.354592 64.7009 0.547569 65.1642 0.957259C65.6271 1.36662 65.8942 1.96227 66.0141 2.71756C66.2352 4.10173 66.1384 5.44926 65.9211 6.82817C65.8302 7.40456 65.6996 7.96924 65.5712 8.52459C65.545 8.63791 65.5189 8.75085 65.4932 8.86342C65.3407 9.53205 65.2025 10.1933 65.1416 10.8784C65.049 11.9205 65.0539 12.9662 65.0589 14.0227C65.0606 14.3779 65.0622 14.7343 65.0602 15.0923C65.0571 15.6766 64.8254 16.1337 64.4697 16.4426C64.1188 16.7472 63.6598 16.8973 63.2093 16.9009C62.7588 16.9044 62.2989 16.7615 61.9486 16.4565C61.5932 16.1471 61.3673 15.6848 61.3703 15.0896C61.3717 14.8292 61.3719 14.5682 61.3722 14.3066C61.3741 12.4657 61.3761 10.5992 61.742 8.75552C61.8139 8.39274 61.8921 8.03567 61.9693 7.68261C62.2366 6.46085 62.4934 5.28713 62.449 4.09157L55.9982 1.36649C56.3285 1.36915 56.6639 1.38244 57.0014 1.39582C58.0141 1.43594 59.0458 1.47682 60.0148 1.23358C60.2647 1.17095 60.5155 1.10064 60.7674 1.03003C61.5952 0.797965 62.435 0.562562 63.295 0.58498ZM63.295 0.58498L63.3015 0.335065C62.7091 0.319622 62.1325 0.42012 61.5771 0.554665C61.2993 0.621964 61.0239 0.69852 60.7541 0.774133L60.7007 0.78909C60.448 0.859917 60.2004 0.929327 59.954 0.991084L59.9539 0.991107C59.3381 1.1457 58.6886 1.18156 58.0197 1.17565C57.6854 1.1727 57.3496 1.15941 57.0114 1.14601L57.0093 1.14593C56.6732 1.13261 56.3345 1.11919 56.0003 1.1165L64.8102 15.0908C64.8122 14.7388 64.8105 14.386 64.8089 14.033C64.8039 12.9734 64.7989 11.9111 64.8926 10.8563C64.9657 10.0334 65.1471 9.24881 65.3282 8.46565C65.4566 7.91047 65.5848 7.35604 65.6741 6.78925C65.8894 5.42293 65.9825 4.10445 65.7672 2.75674C65.5386 1.31599 64.7703 0.622195 63.295 0.58498Z" fill="#751FFF" stroke="#751FFF" stroke-width="0.5"/>
</svg>
