<svg width="140" height="59" viewBox="0 0 140 59" fill="none" xmlns="http://www.w3.org/2000/svg">
<path d="M2.8781 21.1548C1.29912 22.7763 1.65532 24.8072 1.7776 26.8646C1.93178 29.4218 1.00938 32.0215 0.937605 34.5973C0.892415 36.2401 3.4443 36.2401 3.48949 34.5973C3.55329 32.306 4.20189 30.1103 4.34278 27.8375C4.43315 26.3808 3.55063 24.1213 4.68303 22.9597C5.81542 21.7981 4.02645 19.9772 2.8781 21.1548Z" fill="#751FFF"/>
<path d="M6.47467 19.2035C6.47467 21.1307 5.90316 22.8772 5.31569 24.6901C4.69633 26.5987 4.31355 28.4594 4.34545 30.477C4.37734 32.4946 4.26836 34.6371 4.41988 36.6813C4.54481 38.3533 5.01532 39.927 6.1105 41.2215C8.0191 43.4783 11.0681 44.4273 13.7662 45.3577C17.3946 46.607 20.9433 47.5427 24.7924 47.774C29.2476 48.0398 33.7533 47.8537 38.2164 47.8511C42.6795 47.8484 47.1852 47.9122 51.6696 47.867C56.154 47.8218 60.5268 47.1972 64.9314 46.6416C69.3361 46.086 73.7753 45.9478 78.2225 45.6235C80.2587 45.4746 82.2869 45.1982 84.3231 45.06C85.8462 44.9563 87.4545 44.9643 88.9324 44.5257C92.0213 43.6059 93.3557 40.3443 94.1532 37.5106C95.243 33.6429 93.8076 29.754 92.7071 26.0537C92.0904 23.9803 91.3886 21.9335 90.7985 19.8521C90.2722 17.9994 90.1074 16.0216 89.5119 14.2034C87.6086 8.40055 80.3677 6.85613 75.0805 6.18095C70.6466 5.61475 66.1702 5.54563 61.7044 5.56424C57.305 5.58285 52.8844 5.48715 48.4904 5.76361C43.9714 6.04804 39.4764 6.62753 34.9574 6.90132C30.4916 7.1698 26.0365 6.96246 21.568 6.88271C15.4541 6.77373 5.8181 6.54246 3.95735 14.1822C3.50279 16.0509 3.71811 17.994 3.73406 19.8947C3.75001 21.5348 6.30189 21.5401 6.28594 19.8947C6.26733 18.103 5.97759 16.1732 6.53315 14.4347C7.00632 12.9567 8.11213 11.7791 9.43592 11.0136C12.2829 9.36814 15.8183 9.42131 18.9975 9.41333C22.937 9.4027 26.8738 9.63928 30.8133 9.60207C34.984 9.56219 39.1335 9.13156 43.2829 8.74346C51.348 7.99119 59.5326 7.92739 67.6295 8.17992C71.3085 8.29423 75.0592 8.52017 78.6505 9.36548C81.0429 9.92637 83.6001 10.777 85.4316 12.4915C86.2716 13.2784 86.9016 14.222 87.1833 15.3465C87.6751 17.3109 87.9648 19.2966 88.5417 21.2504C89.597 24.8177 90.849 28.3398 91.6917 31.9656C92.3695 34.887 91.8405 39.0737 89.5305 41.2853C88.539 42.2343 87.2259 42.3193 85.9233 42.415C84.1982 42.5426 82.4809 42.6915 80.7584 42.859C76.7578 43.2444 72.7413 43.2338 68.7433 43.6511C64.7454 44.0684 60.6172 44.7224 56.5341 45.0759C52.4511 45.4295 48.5515 45.3152 44.5536 45.3098C40.327 45.3045 36.1005 45.3098 31.8739 45.3152C27.6473 45.3205 23.4022 45.4268 19.2554 44.43C17.5063 44.01 15.8289 43.3853 14.1303 42.8031C12.6019 42.2768 11.0601 41.7531 9.6725 40.9105C8.28492 40.0678 7.30138 38.9301 7.0329 37.2767C6.70594 35.2591 6.96113 33.0342 6.90531 30.99C6.84948 28.9459 7.24556 26.9974 7.90213 24.9878C8.5215 23.0898 9.02124 21.2317 9.02124 19.2195C9.02124 17.5767 6.46936 17.574 6.46936 19.2195L6.47467 19.2035Z" fill="#751FFF"/>
<path d="M104.807 20.7825C102.755 16.4656 97.9251 15.6973 93.975 13.7941C91.9442 12.8158 89.7432 11.8536 87.9781 10.4341C86.4496 9.20598 85.0514 7.89282 83.0259 7.66421C81.3964 7.48079 81.4097 10.0327 83.0259 10.2161C84.642 10.3995 86.0296 12.2257 87.2949 13.1109C88.9457 14.2619 90.8782 15.1285 92.6885 15.9977C94.4987 16.8669 96.1973 17.5847 98.0129 18.2598C100.113 19.0387 101.617 19.9903 102.606 22.0717C103.311 23.555 105.512 22.2605 104.81 20.7825H104.807Z" fill="#751FFF"/>
<path d="M7.41033 45.7538C11.496 46.9819 15.4886 48.2818 19.4175 49.9538C22.9821 51.469 26.5069 52.7927 30.3002 53.6221C37.6262 55.225 45.4813 56.679 52.9349 55.1346C56.6963 54.3558 60.2902 52.9655 64.0249 52.091C67.7597 51.2164 71.8959 50.7539 75.8726 50.4509C80.0486 50.1292 84.238 49.9857 88.4273 49.9325C90.4555 49.9059 92.4838 49.9006 94.5146 49.9378C96.3142 49.9724 98.159 49.9777 99.9081 49.4806C101.373 49.0659 103.082 48.4492 104.27 47.4683C105.581 46.3864 106.195 44.6985 106.95 43.2232C107.963 41.2481 108.781 39.281 109.002 37.0508C109.223 34.8206 108.842 32.5664 108.247 30.4053C107.811 28.8236 105.35 29.4962 105.785 31.0831C106.277 32.8721 106.62 34.693 106.49 36.5564C106.341 38.6829 105.482 40.5038 104.523 42.3646C103.906 43.5581 103.438 45.0494 102.242 45.791C101.046 46.5326 99.4483 47.0616 98.0474 47.269C96.4126 47.5109 94.7406 47.3753 93.0925 47.3567C91.0138 47.3354 88.9324 47.3647 86.8537 47.4019C82.8398 47.4763 78.8285 47.6438 74.8279 47.9814C71.2952 48.2791 67.7544 48.6805 64.2854 49.4195C60.8165 50.1585 57.2306 51.4849 53.6553 52.3568C46.4834 54.1006 39.0165 52.8698 31.9058 51.3626C27.836 50.4987 24.0773 49.1829 20.2522 47.5587C16.427 45.9346 12.227 44.5416 8.08552 43.2949C6.5092 42.8218 5.83667 45.2833 7.40767 45.7564L7.41033 45.7538Z" fill="#751FFF"/>
<path d="M40.3562 7.32925C41.3345 6.23938 42.5227 5.41533 43.7189 4.58331C44.9151 3.75129 45.8853 3.6742 47.3234 3.68749C48.1342 3.69547 48.9396 3.66357 49.7504 3.63965C50.3644 3.62104 51.6403 3.37648 52.1959 3.66091C52.8711 4.00648 53.3044 5.34622 53.8387 5.96292C55.1891 7.51532 57.4353 5.25052 56.0955 3.7061C55.1199 2.58168 54.9844 1.18612 53.3629 0.673082C51.4835 0.077642 49.2639 0.516247 47.3261 0.49764C45.6541 0.484349 44.1096 0.580044 42.6423 1.46523C41.0341 2.43813 39.3567 3.67155 38.1021 5.07242C36.7357 6.59824 38.9846 8.86038 40.3589 7.32925H40.3562Z" fill="#751FFF"/>
<path d="M59.7558 55.3792C69.5434 55.3765 79.3442 55.2011 89.1185 55.8497C94.0548 56.1766 98.9804 56.7162 103.848 57.6014C106.059 58.0055 108.242 58.5345 110.483 58.771C112.723 59.0076 115.105 59.0262 117.415 58.9837C121.69 58.9039 126.105 59.0953 130.268 57.9736C132.126 57.4738 133.944 56.7986 135.765 56.174C137.429 55.6024 138.543 54.6482 139.255 53.016C140.667 49.7836 139.069 46.9473 136.698 44.725C133.667 41.8834 130.568 39.1056 127.532 36.2613C123.925 32.88 120.196 29.5174 115.913 27.0027C113.97 25.8597 111.851 25.0011 110.012 23.6879C108.345 22.4971 106.668 21.0244 104.573 20.7054C102.968 20.4609 102.274 22.9197 103.895 23.1669C105.517 23.4141 106.915 24.5758 108.242 25.5407C109.77 26.6572 111.418 27.436 113.077 28.3345C116.724 30.3096 119.938 32.8269 123.021 35.5834C126.105 38.34 129.207 41.4794 132.392 44.329C134.263 46.0063 137.812 48.1967 137.203 51.1579C136.825 52.9894 135.725 53.4918 134.117 54.0182C132.336 54.603 130.6 55.2861 128.768 55.7194C124.821 56.6498 120.488 56.4026 116.453 56.4451C114.382 56.4664 112.306 56.4265 110.249 56.1926C108.066 55.9454 105.924 55.3792 103.763 55.0017C99.3419 54.2282 94.8735 53.7151 90.3997 53.3828C80.2028 52.6306 69.9714 52.8193 59.7558 52.822C58.1131 52.822 58.1104 55.3738 59.7558 55.3738V55.3792Z" fill="#751FFF"/>
<path d="M105.482 31.5137C106.854 32.1491 108.255 32.7365 109.369 33.7865C110.483 34.8365 111.474 35.6632 112.859 36.3916C114.138 37.0614 114.624 38.3081 115.616 39.2864C116.671 40.3257 118.008 41.1444 119.268 41.91C120.528 42.6756 121.682 43.2843 122.67 44.3104C123.011 44.6639 123.33 45.044 123.651 45.4135C123.957 45.7618 124.398 46.6044 124.77 46.8516C124.829 46.8888 124.813 47.0031 124.845 47.0563C124.377 46.2907 125.629 47.1493 124.733 46.8038C124.398 46.6735 123.768 46.7426 123.412 46.7134C122.152 46.6071 120.932 46.7931 119.691 47.0138C116.828 47.5215 113.696 46.8995 110.998 48.1648C110.403 48.4439 109.943 48.8347 109.387 49.1696C108.832 49.5045 108.21 49.6055 107.551 49.7145C105.995 49.9724 104.459 50.3259 102.901 50.5652C101.344 50.8044 99.7779 50.7193 98.1617 50.722C96.5455 50.7246 95.0862 51.4583 93.4859 51.5008C91.8857 51.5434 90.5273 51.3972 88.9776 51.8278C87.5661 52.2186 86.1838 52.3754 84.7218 52.4232C81.4256 52.5296 78.3155 52.0724 75.0884 51.5141C71.3218 50.8655 67.7013 50.0893 63.8602 50.0946C62.2174 50.0973 62.2147 52.6492 63.8602 52.6465C65.6651 52.6439 67.4939 52.612 69.2643 53.024C71.2287 53.4812 73.1878 53.7125 75.1576 54.1218C78.1002 54.7332 81.0854 55.0336 84.0918 54.9911C85.5326 54.9698 87.0212 54.906 88.438 54.6163C89.2062 54.4594 89.9399 54.1537 90.7161 54.0341C91.8033 53.8667 92.8958 54.1165 93.9883 54.0421C95.6072 53.9331 97.0054 53.242 98.6641 53.2898C100.416 53.3403 102.085 53.2712 103.818 52.9894C105.432 52.7289 107.04 52.4046 108.648 52.1069C110.257 51.8092 111.275 50.6688 112.806 50.193C114.337 49.7172 115.881 49.9724 117.418 49.8873C119.1 49.7943 120.741 49.2414 122.426 49.2174C124.111 49.1935 126.918 49.9538 127.336 47.5162C127.689 45.4508 125.331 43.2498 123.941 41.9898C122.551 40.7298 120.892 39.9722 119.369 38.9674C118.587 38.4517 117.763 37.9121 117.141 37.205C116.618 36.6095 116.267 35.8759 115.714 35.3017C115.06 34.6212 114.228 34.2676 113.412 33.837C112.638 33.4303 112.072 32.8721 111.453 32.266C110.078 30.9236 108.5 30.1208 106.766 29.3181C105.286 28.6322 103.989 30.8306 105.477 31.5217L105.482 31.5137Z" fill="#751FFF"/>
<path d="M104.238 21.3488C101.918 21.3222 99.6104 20.9952 97.3137 21.4817C96.4525 21.6651 96.2159 22.6619 96.5508 23.3557C97.327 24.9613 97.3802 26.9735 97.6354 28.7147C97.7098 29.2224 98.3611 29.6955 98.8661 29.6504C100.174 29.536 101.112 29.0709 102.351 29.7567C103.406 30.3441 104.387 30.9954 105.485 31.5111C106.963 32.2076 108.26 30.0092 106.774 29.3074C105.456 28.6854 104.278 27.8029 102.954 27.2075C101.45 26.5323 100.4 26.9629 98.8688 27.0958L100.1 28.0315C99.8045 26.0192 99.653 23.9192 98.7572 22.0638L97.9943 23.9379C100.036 23.5072 102.176 23.8714 104.241 23.8953C105.884 23.9139 105.884 21.362 104.241 21.3434L104.238 21.3488Z" fill="#751FFF"/>
<path d="M23.7477 20.9474C23.7105 22.3802 23.2533 24.4403 24.4521 25.5515C25.7972 26.7982 27.7138 24.9826 28.389 23.8103C29.12 22.5371 29.3353 20.7906 28.2029 19.6688C26.9748 18.4514 25.0609 18.688 23.5989 19.2648C22.0598 19.8735 20.3638 21.0112 19.8774 22.6912C19.3909 24.3712 20.4143 25.9927 21.9455 26.761C23.341 27.4601 24.9545 27.7232 26.4671 28.0555C27.8095 28.3506 29.7952 28.8609 31.0259 27.9917C32.5544 26.9098 31.7569 25.0943 30.2683 24.5307C28.9153 24.0203 27.323 24.0017 25.8929 24.0017C24.2501 24.0017 24.2475 26.5536 25.8929 26.5536C26.6133 26.5536 27.3416 26.5722 28.0593 26.6546C28.4315 26.6972 28.8196 26.838 29.1891 26.8593C29.1173 26.8567 29.6729 26.9816 29.6117 27.0268C29.7845 26.9045 29.5506 25.9236 29.4788 25.8784C29.2369 25.7296 28.3943 25.8279 28.0753 25.7774C27.65 25.711 27.2273 25.6153 26.8073 25.5169C25.9275 25.3122 25.0343 25.1394 24.1677 24.8869C23.4447 24.6743 22.0332 24.2835 22.3761 23.2893C22.6711 22.436 23.9205 21.8379 24.6994 21.5668C25.2257 21.3834 26.3926 21.0352 26.4564 21.7688C26.5149 22.46 25.6909 23.3079 25.0875 23.4834L26.3288 23.8103C25.9168 23.4408 26.2837 21.5934 26.2996 20.9448C26.3421 19.302 23.7902 19.302 23.7477 20.9448V20.9474Z" fill="#751FFF"/>
<path d="M64.429 24.0336C62.6639 23.6694 61.0823 24.5705 61.077 26.4897C61.077 26.9283 61.3189 27.3776 61.7096 27.5902C64.3519 29.0363 67.866 28.6907 69.8491 26.2877C70.7715 25.1686 71.3563 23.6189 70.9017 22.1861C70.5269 21.0085 69.4078 20.0914 68.1452 20.1659C64.8516 20.3626 65.0031 25.4743 67.8368 26.3781C70.2717 27.1543 73.1399 23.7837 70.6439 22.0532C68.4588 20.5353 65.3859 22.2419 65.4125 24.8337C65.4285 26.4738 67.9803 26.4791 67.9644 24.8337C67.9617 24.4748 67.9963 24.3419 68.294 24.1665C68.512 24.0389 68.9559 24.1877 69.0968 24.0947C69.2457 24.1718 69.2802 24.193 69.2005 24.1558C69.0835 24.0229 69.0303 23.8794 69.0383 23.7225C68.9639 23.7066 68.8549 24.0548 68.6954 23.9777C68.5014 23.882 67.7145 22.6646 68.3871 22.6912C68.403 22.6912 68.4987 23.4036 68.4508 23.6189C68.294 24.3206 67.7278 24.9373 67.1483 25.3201C65.8963 26.1468 64.2775 26.0937 62.9935 25.3892L63.6262 26.4897L63.7485 26.4951C65.3514 26.8247 66.0372 24.3658 64.4263 24.0336H64.429Z" fill="#751FFF"/>
<path d="M31.087 35.2167C32.7856 35.2486 34.6092 35.6367 36.2759 35.1502C37.8017 34.7036 38.7427 33.3373 39.7874 32.2448C40.9224 31.0592 39.1201 29.2516 37.9824 30.4398C37.177 31.2825 36.4194 32.5584 35.2019 32.7711C33.8755 33.005 32.4268 32.6887 31.0897 32.6648C29.4469 32.6329 29.4469 35.1848 31.0897 35.2167H31.087Z" fill="#751FFF"/>
</svg>
