<svg width="134" height="74" viewBox="0 0 134 74" fill="none" xmlns="http://www.w3.org/2000/svg">
<path d="M2.36845 11.1131C2.40832 14.7469 1.1882 18.2265 1.02339 21.8416C0.890481 24.7816 0.640609 28.1017 2.47743 30.5978C4.14945 32.8706 6.90602 33.8568 9.55625 34.4548C12.6584 35.1566 15.8031 35.768 18.9344 36.3315C22.6161 36.9934 26.3003 37.3895 30.0431 37.4374C33.7859 37.4852 37.4701 37.3257 41.1863 37.3124C45.1471 37.2991 49.1105 37.4905 53.0712 37.3709C56.7236 37.2619 60.3069 36.5761 63.9513 36.4565C66.9125 36.3608 70.6659 36.6452 73.1274 34.6941C75.0334 33.1816 75.9956 30.7546 76.6097 28.4686C78.0557 23.083 78.7203 16.5651 75.5809 11.6341C74.7808 10.3768 73.7255 9.35069 72.7473 8.23956C71.7 7.05134 70.6819 5.83122 69.4059 4.87692C66.862 2.97364 63.0156 2.42605 59.9241 2.33035C56.2424 2.21339 52.5209 2.42073 48.834 2.44731C44.8493 2.47655 40.862 2.52174 36.8774 2.46592C32.5578 2.40478 28.2382 2.22668 23.9398 1.7801C21.6431 1.54086 19.3544 1.22188 17.0843 0.799221C15.508 0.509476 13.8998 0.137326 12.2836 0.312768C10.6674 0.48821 9.45258 1.33618 8.36006 2.44731C7.44032 3.38566 6.65349 4.63236 5.46792 5.24907C3.71084 6.16349 0.348206 6.4878 0.348206 9.09284C0.348206 10.7356 2.90009 10.7383 2.90009 9.09284C2.90009 9.21778 2.81237 9.24436 2.98515 9.06892C3.08351 8.96791 3.31743 8.8669 3.42642 8.80576C3.83844 8.57715 4.28502 8.42032 4.72362 8.25551C5.57425 7.93918 6.47007 7.67336 7.225 7.16298C9.1336 5.86843 10.3245 2.94174 12.8551 2.82212C14.2294 2.75832 15.5771 3.11452 16.9195 3.35376C18.7351 3.67806 20.5639 3.94123 22.3954 4.1592C25.8272 4.56857 29.2775 4.79717 32.7279 4.91679C39.6525 5.15869 46.5878 5.01249 53.5151 4.97793C56.8166 4.96198 60.2191 4.54198 63.4701 5.30223C64.8604 5.62653 66.4393 5.95084 67.6462 6.74298C68.853 7.53513 69.7435 8.67816 70.6606 9.7255C72.5984 11.9371 74.2917 13.8324 74.9217 16.8017C75.4853 19.4492 75.2487 22.251 74.7729 24.8933C74.3688 27.1368 73.8903 29.5611 72.6117 31.4936C71.0115 33.9152 67.9917 33.7743 65.3734 33.8621C62.0958 33.9711 58.9033 34.4655 55.639 34.6941C52.1966 34.9333 48.741 34.8536 45.2933 34.7978C38.5813 34.6888 31.7975 35.2816 25.1041 34.6569C21.3135 34.3033 17.5761 33.5059 13.8519 32.7323C11.2017 32.1821 8.23512 31.9083 5.91716 30.3958C3.02503 28.5084 3.4211 24.8693 3.56198 21.8416C3.73211 18.2265 4.94691 14.7522 4.90704 11.1131C4.88843 9.47297 2.33655 9.46765 2.35516 11.1131H2.36845Z" fill="#751FFF"/>
<path d="M2.36839 31.9959C2.33649 34.4441 2.01485 36.9136 3.89421 38.8142C5.77356 40.7149 8.3414 42.5065 10.7338 43.9286C12.7966 45.1567 14.9922 46.2253 17.1693 47.2355C19.3464 48.2456 21.667 49.1946 24.0807 49.5641C26.4943 49.9335 28.6953 49.6305 30.8006 48.4024C33.1585 47.0281 35.0777 45.38 37.922 45.2152C39.073 45.1488 40.2851 45.1674 41.4069 45.4651C42.7227 45.8107 43.7195 46.7145 45.1231 46.8341C46.5266 46.9537 47.9647 46.741 49.3629 46.7384C51.0722 46.7384 52.7814 46.7437 54.4933 46.7384C57.5768 46.7357 60.6656 46.4194 63.7492 46.5975C66.6599 46.765 69.467 47.4907 72.407 47.4588C75.113 47.4295 77.8563 47.0122 80.4029 46.0791C82.9494 45.1461 85.2169 43.6416 87.4418 42.0094C89.4887 40.5075 91.3919 38.8807 92.4313 36.5043C93.561 33.9231 94.3319 30.9247 94.5685 28.1123C94.6828 26.7539 94.5419 25.3903 94.518 24.0319C94.4887 22.4795 94.6243 20.9298 94.6004 19.3774C94.5579 16.9106 94.0209 14.4624 92.5801 12.4155C89.7651 8.41758 84.8394 6.97949 80.3231 5.87367C77.1253 5.0895 73.9673 4.19368 70.7881 3.34837C69.1081 2.90179 67.5478 2.38078 65.9475 1.69762C64.5174 1.08623 63.1272 0.591801 61.5774 0.400409C60.0277 0.209018 59.9665 2.75293 61.5774 2.95229C64.2117 3.2766 66.5802 4.89013 69.1374 5.55468C71.8939 6.2724 74.6213 7.10442 77.3858 7.78758C81.102 8.70467 85.1611 9.40378 88.3323 11.6952C89.9724 12.8807 91.1686 14.5474 91.7003 16.5065C92.3994 19.085 91.897 21.8469 91.9794 24.4785C92.1336 29.4175 91.4823 35.4117 87.4551 38.801C83.4279 42.1902 78.9861 44.5453 73.7148 44.8617C71.0672 45.0212 68.534 44.665 65.9289 44.2716C63.3239 43.8781 60.5141 44.011 57.8001 44.1147C54.9053 44.229 52.0079 44.1812 49.1104 44.1838C47.8424 44.1838 46.2874 44.5161 45.0433 44.2636C43.887 44.0297 42.9327 43.1711 41.7445 42.9212C39.6658 42.4852 37.3212 42.4852 35.2664 43.0594C32.898 43.7213 31.1196 45.3986 28.9744 46.4965C24.6416 48.7161 19.0673 45.3747 15.2341 43.4342C12.6557 42.129 10.1889 40.6936 7.91874 38.8913C6.88204 38.0699 5.38015 37.1449 4.99205 35.8105C4.64382 34.609 4.90433 33.2187 4.92028 31.9906C4.94154 30.3478 2.38966 30.3478 2.36839 31.9906V31.9959Z" fill="#751FFF"/>
<path d="M82.5746 19.5368C83.2604 23.8192 91.3627 27.0197 91.8438 21.1237C92.0007 19.2125 91.368 16.9636 90.2648 15.4006C88.9676 13.5664 86.764 12.9418 84.6055 13.2767C82.5773 13.5904 80.1716 14.6058 79.0498 16.424C77.9281 18.2422 78.6112 20.1216 79.9802 21.5039C81.4848 23.0217 83.5289 23.9973 85.4615 24.8479C87.6864 25.8288 89.8741 26.7007 92.2824 27.1233C93.8322 27.3945 95.3899 27.6629 96.9476 27.8783C98.6595 28.1148 100.26 28.3062 101.751 29.2366C103.575 30.3743 105.457 31.3552 107.317 32.4238C108.968 33.3728 111.469 34.6753 112.137 36.6105C112.844 38.66 109.72 39.2235 108.359 39.6409C105.324 40.5739 102.469 42.0784 99.5101 43.2215C96.283 44.4682 92.9603 45.4358 89.6535 46.4432C86.3466 47.4507 83.1089 48.6841 79.8101 49.7367C76.5112 50.7894 72.9758 51.6639 69.4989 52.3764C61.7449 53.966 53.8633 55.2765 45.9259 54.7315C41.8561 54.4524 37.8662 53.74 33.8974 52.8282C32.2626 52.4534 30.6837 52.2514 29.0276 52.0388C27.3715 51.8261 26.2551 50.497 26.4757 48.8383C26.6963 47.1795 24.1365 47.23 23.9238 48.8383C23.5862 51.3742 25.4523 53.8065 27.9005 54.4258C29.009 54.7049 30.1813 54.6332 31.303 54.8618C32.9963 55.2073 34.6683 55.646 36.3643 55.9889C42.9141 57.31 49.6633 57.8124 56.3195 57.1C62.8294 56.4035 69.3952 55.1941 75.7351 53.5619C78.9382 52.7379 82.035 51.6586 85.1531 50.5688C88.2712 49.4789 91.4371 48.5911 94.5791 47.6075C97.7211 46.624 100.969 45.372 104.109 44.0508C106.427 43.0753 108.782 42.323 111.119 41.4245C112.926 40.7281 114.723 39.5345 114.803 37.3973C114.875 35.4542 113.553 33.8141 112.145 32.6285C110.481 31.2303 108.569 30.1696 106.658 29.1542C104.747 28.1388 103.088 26.7964 101.132 26.0919C99.5845 25.5364 97.878 25.4779 96.2671 25.2094C94.6562 24.9409 93.1012 24.7363 91.5434 24.3854C89.5099 23.9308 87.5455 23.0456 85.6661 22.1498C84.3477 21.5198 81.1738 20.2359 81.0222 18.4735C80.8574 16.5091 84.8022 15.592 86.2137 15.7621C88.4121 16.028 89.3185 18.625 89.3079 20.5948C89.3026 21.6129 89.0181 22.0488 87.9309 21.7803C86.5513 21.4401 85.2568 20.2811 85.0308 18.8589C84.773 17.2428 82.3115 17.9286 82.5693 19.5368H82.5746Z" fill="#751FFF"/>
<path d="M91.889 12.3889C95.2065 12.6042 98.2076 13.9519 101.153 15.3926C104.098 16.8334 107.073 18.1519 110.14 19.3135C113.208 20.4751 116.137 21.4587 119.152 22.4874C121.892 23.4231 124.678 24.5528 126.863 26.5146C128.602 28.0776 130.247 30.0952 130.938 32.3653C131.773 35.1059 130.247 36.8896 127.98 38.2772C126.916 38.9258 125.795 39.4681 124.702 40.0635C123.376 40.7892 122.158 41.6717 120.898 42.4984C118.067 44.3539 115.162 46.0977 112.458 48.1418C107.097 52.1903 101.855 56.2281 96.0598 59.6652C90.2649 63.1022 84.1909 65.5903 77.6676 67.257C71.1311 68.9264 64.4749 69.9657 57.739 70.3512C54.3152 70.5452 50.8117 70.7207 47.3879 70.4602C43.9641 70.1997 40.6015 69.1922 37.3106 68.206C35.628 67.701 33.9427 67.1294 32.2148 66.7972C30.3301 66.433 28.4561 66.2496 26.7017 65.4122C23.7404 64.0034 20.9599 62.5068 18.9743 59.8193C16.9886 57.1319 16.0582 54.067 15.5292 50.7628C15.2421 48.9738 14.9444 47.1423 14.9444 45.3268C14.9444 43.5112 15.8615 41.8551 15.6993 40.0795C15.5531 38.458 12.9986 38.442 13.1475 40.0795C13.2325 41.0205 12.8577 41.794 12.6557 42.6925C12.4962 43.3969 12.4218 44.1332 12.4005 44.8536C12.342 46.6293 12.6344 48.4103 12.879 50.1647C13.3096 53.2403 13.9077 56.361 15.4628 59.091C18.6314 64.6546 24.3917 68.0492 30.6172 69.0965C34.2616 69.7106 37.7333 71.0981 41.3165 71.9833C44.7908 72.8419 48.2146 73.1184 51.7846 73.0918C59.1478 73.036 66.4845 72.305 73.6909 70.7924C80.6342 69.3384 87.4977 67.265 93.7737 63.9024C100.05 60.5397 106.097 56.4062 111.727 51.9457C114.627 49.649 117.655 47.6208 120.765 45.6218C122.129 44.7446 123.45 43.7983 124.824 42.9397C126.199 42.0811 127.584 41.4697 128.934 40.6802C131.146 39.383 133.328 37.5834 133.697 34.8959C134.067 32.2085 132.823 29.7337 131.329 27.6922C129.516 25.2121 127.209 23.2583 124.455 21.8893C121.127 20.2332 117.477 19.2843 113.995 18.0216C110.201 16.6447 106.485 15.1693 102.859 13.391C99.2337 11.6127 95.8498 10.0948 91.8944 9.83697C90.2542 9.73064 90.2622 12.2825 91.8944 12.3889H91.889Z" fill="#751FFF"/>
</svg>
