<svg width="75" height="57" viewBox="0 0 75 57" fill="none" xmlns="http://www.w3.org/2000/svg">
<path d="M19.6563 4.25874C16.8784 4.28951 13.7984 4.16083 11.2416 5.43646C9.95196 6.07987 9.00363 7.28277 7.89304 8.17516C6.78246 9.06754 5.60194 9.95153 4.63962 11.023C2.39887 13.5127 0.379115 17.5913 0.703618 21.0126C0.86587 22.7135 1.81141 24.1541 3.47029 24.7164C4.67039 25.1221 6.02435 25.0801 7.27481 25.0521C8.86935 25.0185 10.5366 25.0353 12.1032 24.7024C13.6698 24.3695 15.1216 23.7681 16.6686 23.4296C18.2156 23.0911 19.7486 22.61 21.2564 22.0868C24.2777 21.0378 27.2905 19.7733 30.474 19.3062C32.0573 19.074 33.6603 19.1887 35.252 19.0516C37.0172 18.9005 38.7684 18.604 40.5392 18.5257C44.0108 18.3746 47.5775 18.4082 51.052 18.5089C54.5264 18.6096 57.6987 19.7118 60.8402 20.8699C63.3523 21.7959 65.9791 23.3709 68.673 23.6394C71.104 23.88 73.2133 22.333 74.2539 20.2042C75.2946 18.0753 75.1183 15.5492 73.6973 13.5462C72.2762 11.5433 70.0522 10.1949 67.9345 8.97522C64.9245 7.24361 61.8165 5.68543 58.5911 4.39301C55.0131 2.96072 51.3429 2.41522 47.5384 1.94525C45.6277 1.70747 43.8262 1.73824 41.9099 1.74663C39.9937 1.75503 38.2425 1.38297 36.4074 1.18435C32.8602 0.798302 29.3466 0.345117 25.7659 0.367496C24.2413 0.378686 22.6467 0.482191 21.2536 1.16477C20.0311 1.76342 19.1891 3.14536 17.7288 2.97191C16.0168 2.7677 16.0308 5.45325 17.7288 5.65746C20.2018 5.95399 21.2872 3.70484 23.4916 3.22648C24.7085 2.96352 25.9981 3.05024 27.2318 3.06703C28.734 3.08941 30.1914 3.13417 31.6797 3.36635C34.5471 3.80835 37.4956 4.12446 40.3881 4.36504C41.7477 4.47974 43.0876 4.33986 44.45 4.34266C46.0026 4.34266 47.5608 4.61961 49.0993 4.81823C52.3192 5.23225 55.3628 5.9344 58.3701 7.17647C61.2011 8.3458 63.9314 9.7613 66.5834 11.2887C68.4576 12.3685 70.69 13.549 71.781 15.51C72.7517 17.2584 72.1643 19.6978 70.3487 20.6909C68.3933 21.7595 65.5063 19.7929 63.6852 19.0768C60.9941 18.0194 58.2414 17.0011 55.4104 16.3856C52.4842 15.7506 49.5721 15.8234 46.5956 15.8262C43.552 15.8262 40.5392 15.7674 37.5096 16.1199C34.6981 16.4472 31.8391 16.3101 29.0585 16.836C26.2778 17.362 23.651 18.3998 20.9991 19.3342C18.3471 20.2685 15.6308 20.7944 12.976 21.6532C11.5717 22.1064 10.2904 22.2407 8.82739 22.305C7.47343 22.3638 5.87329 22.5904 4.5501 22.2379C1.42536 21.4015 4.81586 15.3842 5.78377 13.9239C7.16011 11.8454 9.38128 10.5698 11.1549 8.87731C13.4292 6.7093 16.7078 6.97505 19.6535 6.94428C21.3795 6.9247 21.3851 4.23916 19.6535 4.25874H19.6563Z" fill="#751FFF"/>
<path d="M15.8015 32.6336C17.6199 32.4154 18.8787 31.1202 20.6019 30.6642C22.7252 30.1019 25.131 29.5117 27.327 29.4389C29.523 29.3662 31.4252 29.7634 33.4953 29.2627C35.5654 28.7619 37.6048 28.7647 39.7896 28.7787C42.2597 28.7927 44.7299 28.8011 47.2 28.7871C49.2002 28.7759 50.9793 29.1312 52.6354 30.3201C54.188 31.4335 55.1559 33.1483 56.8064 34.1386C57.5086 34.561 58.2723 34.8548 58.4177 35.7611C58.524 36.4241 58.1632 36.9109 57.682 37.3361C55.2454 39.4817 51.4549 39.2999 48.4505 39.1013C44.0305 38.8076 39.714 37.6522 35.2745 37.655C30.6811 37.6578 26.0569 37.5151 21.4775 37.9487C19.3543 38.1502 17.3401 38.4187 15.3763 39.2859C13.958 39.9125 12.3663 41.0343 10.7465 40.7686C10.2961 40.6958 9.34782 40.4832 9.1464 39.9993C8.79672 39.1572 10.0164 39.0369 10.5451 39.0313C11.9746 39.0146 13.5664 39.2104 14.8196 38.3767C16.0729 37.5431 16.8729 35.8814 17.7317 34.645C18.5906 33.4085 19.8914 31.4447 21.5838 31.344C23.2763 31.2433 23.3126 28.5549 21.5838 28.6584C17.7317 28.8878 15.9722 32.7763 13.93 35.473C12.9034 36.827 11.3256 36.2283 9.8038 36.3738C8.01064 36.5444 6.43568 37.8284 6.39931 39.7447C6.33497 43.3786 11.1941 43.9353 13.7202 42.959C14.7637 42.5561 15.7484 42.0218 16.7778 41.5854C18.0395 41.0511 19.3431 40.8609 20.6998 40.7126C23.3798 40.4161 26.0793 40.3517 28.7732 40.3378C31.4672 40.3238 34.3849 40.2175 37.1656 40.3741C39.9294 40.5308 42.6374 41.1742 45.3845 41.5015C49.2981 41.9687 53.581 42.3631 57.2708 40.7014C58.7255 40.0468 60.1857 39.0425 60.8207 37.5235C61.4921 35.915 60.9858 33.9596 59.7018 32.7958C58.9856 32.1468 58.0401 31.8531 57.3323 31.1901C56.4427 30.3593 55.7378 29.3746 54.7867 28.6053C53.1222 27.2597 51.1975 26.3897 49.0603 26.1603C46.0251 25.8358 42.8444 26.1072 39.7896 26.0904C38.3405 26.082 36.8551 25.9617 35.4088 26.11C34.0884 26.2442 32.8463 26.7953 31.5259 26.8765C30.1244 26.9632 28.7285 26.7114 27.327 26.7506C25.9255 26.7897 24.6302 27.0975 23.307 27.3464C21.8971 27.6094 20.4061 27.822 19.0521 28.3116C17.9695 28.7032 16.9457 29.8082 15.8015 29.9453C14.1063 30.1467 14.0867 32.835 15.8015 32.6308V32.6336Z" fill="#751FFF"/>
<path d="M36.3543 45.3591C34.0464 45.3591 31.7246 45.4346 29.4223 45.3255C27.6878 45.2416 25.8359 45.208 24.426 46.3913C21.5782 48.7804 22.6217 53.3793 25.7968 54.8984C28.3313 56.1124 31.9176 56.0593 34.6842 55.9698C37.4509 55.8803 40.7911 55.1921 41.5044 52.0226C41.8569 50.4616 41.8653 48.4167 40.7211 47.169C39.4035 45.7284 37.4761 45.9913 35.7137 46.0025C33.9513 46.0137 33.9821 48.6992 35.7137 48.688C36.7348 48.6824 38.6147 48.2041 38.9448 49.4993C39.1965 50.4868 39.0399 51.9638 38.1363 52.5597C36.2116 53.8269 33.0086 53.301 30.849 53.1556C29.6656 53.0772 28.4432 53.0632 27.3186 52.638C25.9059 52.1009 24.854 50.4364 25.7017 48.965C26.5493 47.4935 28.6614 47.9999 30.0237 48.039C32.1302 48.0978 34.245 48.0474 36.3543 48.0474C38.0831 48.0474 38.0859 45.3619 36.3543 45.3619V45.3591Z" fill="#751FFF"/>
</svg>
